<?xml version="1.0" encoding="UTF-8" standalone="no"?>
<!-- Uploaded to: SVG Repo, www.svgrepo.com, Generator: SVG Repo Mixer Tools -->

<svg
   fill="#000000"
   version="1.1"
   id="Capa_1"
   width="24"
   height="24"
   viewBox="0 0 3.7559999 3.756"
   xml:space="preserve"
   sodipodi:docname="person.svg"
   inkscape:version="1.4 (e7c3feb100, 2024-10-09)"
   xmlns:inkscape="http://www.inkscape.org/namespaces/inkscape"
   xmlns:sodipodi="http://sodipodi.sourceforge.net/DTD/sodipodi-0.dtd"
   xmlns="http://www.w3.org/2000/svg"
   xmlns:svg="http://www.w3.org/2000/svg"><defs
   id="defs1" /><sodipodi:namedview
   id="namedview1"
   pagecolor="#aaaaaa"
   bordercolor="#666666"
   borderopacity="1.0"
   inkscape:showpageshadow="2"
   inkscape:pageopacity="0.0"
   inkscape:pagecheckerboard="0"
   inkscape:deskcolor="#d1d1d1"
   inkscape:zoom="8"
   inkscape:cx="5.25"
   inkscape:cy="15.1875"
   inkscape:window-width="1920"
   inkscape:window-height="1052"
   inkscape:window-x="0"
   inkscape:window-y="0"
   inkscape:window-maximized="1"
   inkscape:current-layer="g1" />
<g
   id="g1"
   transform="matrix(0.0275,0,0,0.0275,0.15651372,0.15649997)">
	<path
   id="path1"
   d="M 62.55504 1.0151515e-06 A 15.7 15.7 0 0 0 46.849465 15.694461 A 15.7 15.7 0 0 0 62.55504 31.400036 A 15.7 15.7 0 0 0 78.2495 15.694461 A 15.7 15.7 0 0 0 62.55504 1.0151515e-06 z M 43.248187 37.202096 C 39.948187 37.202096 37.246056 39.904226 37.246056 43.204226 L 37.246056 80.306285 C 37.246056 83.605285 39.948187 86.297301 43.248187 86.297301 L 46.649394 86.297301 L 46.649394 119.19787 C 46.649394 122.49787 49.251524 125.2 52.651524 125.2 L 72.547476 125.2 C 75.847476 125.2 78.549607 122.49787 78.549607 119.19787 L 78.549607 86.297301 L 81.950814 86.297301 C 85.251814 86.297301 87.952944 83.605285 87.952944 80.306285 L 87.952944 43.204226 C 87.952944 39.904226 85.251814 37.202096 81.950814 37.202096 L 43.248187 37.202096 z "
   style="stroke:#ffffff;stroke-opacity:1;stroke-width:5.69090902;stroke-dasharray:none" />
	
</g>
</svg>
