<?xml version="1.0" encoding="UTF-8" standalone="no"?>
<svg
   version="1.1"
   width="24"
   height="24"
   viewBox="0 0 24 24"
   id="svg6"
   sodipodi:docname="3d.svg"
   inkscape:version="1.4 (e7c3feb100, 2024-10-09)"
   xmlns:inkscape="http://www.inkscape.org/namespaces/inkscape"
   xmlns:sodipodi="http://sodipodi.sourceforge.net/DTD/sodipodi-0.dtd"
   xmlns="http://www.w3.org/2000/svg"
   xmlns:svg="http://www.w3.org/2000/svg"
   xmlns:rdf="http://www.w3.org/1999/02/22-rdf-syntax-ns#"
   xmlns:cc="http://creativecommons.org/ns#"
   xmlns:dc="http://purl.org/dc/elements/1.1/">
  <metadata
     id="metadata12">
    <rdf:RDF>
      <cc:Work
         rdf:about="">
        <dc:format>image/svg+xml</dc:format>
        <dc:type
           rdf:resource="http://purl.org/dc/dcmitype/StillImage" />
        <dc:title>uniE251</dc:title>
      </cc:Work>
    </rdf:RDF>
  </metadata>
  <defs
     id="defs10" />
  <sodipodi:namedview
     pagecolor="#ffffff"
     bordercolor="#666666"
     borderopacity="1"
     objecttolerance="10"
     gridtolerance="10"
     guidetolerance="10"
     inkscape:pageopacity="0"
     inkscape:pageshadow="2"
     inkscape:window-width="1600"
     inkscape:window-height="842"
     id="namedview8"
     showgrid="true"
     inkscape:zoom="11.700515"
     inkscape:cx="5.4698447"
     inkscape:cy="6.7945727"
     inkscape:window-x="0"
     inkscape:window-y="0"
     inkscape:window-maximized="1"
     inkscape:current-layer="svg6"
     inkscape:document-rotation="0"
     inkscape:showpageshadow="2"
     inkscape:pagecheckerboard="0"
     inkscape:deskcolor="#d1d1d1">
    <inkscape:grid
       type="xygrid"
       id="grid831"
       originx="0"
       originy="0"
       spacingy="1"
       spacingx="1"
       units="px" />
  </sodipodi:namedview>
  <title
     id="title2">uniE251</title>
  <path
     id="text2"
     style="-inkscape-font-specification:'Myriad Apple';stroke-width:0.82962"
     d="m 15.36304,5.8945149 c -1.262495,0 -2.400985,0.081107 -3.415701,0.2462934 V 17.875395 c 0.814133,0.106191 1.775118,0.158794 2.884226,0.158794 2.359804,0 4.12999,-0.530894 5.309892,-1.592806 C 21.380355,15.344075 22,13.751393 22,11.662967 22,9.69253 21.37433,8.200651 20.123634,7.1859351 19.049923,6.3246065 17.463266,5.8945149 15.36304,5.8945149 Z M 5.6814392,6.2121037 c -1.3568874,0 -2.4592285,0.2887362 -3.3087581,0.8668882 L 2.8685087,8.7252692 C 3.5882491,8.2651073 4.3536553,8.0349994 5.1677878,8.0349994 c 0.578152,0 1.0279386,0.1353307 1.3465122,0.4067082 0.2831765,0.2477795 0.4245321,0.5726646 0.4245321,0.9738314 0,0.5073579 -0.2421576,0.902921 -0.7259175,1.186098 -0.4129658,0.23598 -0.9033059,0.353236 -1.469659,0.353236 H 3.8050721 v 1.664101 h 0.9738313 c 0.7079412,0 1.2870338,0.153406 1.7353966,0.46018 0.519157,0.342172 0.7777687,0.820463 0.7777688,1.434011 0.011799,0.495559 -0.1640853,0.903172 -0.529855,1.221745 -0.4011668,0.36577 -0.9682096,0.547679 -1.6997489,0.547679 -0.9085247,0 -1.7703283,-0.230108 -2.5844609,-0.69027 l -0.4780037,1.735397 c 0.8023335,0.519156 1.8641208,0.777769 3.1856113,0.777769 1.3804856,0 2.4844469,-0.335315 3.3103784,-1.007859 0.7787355,-0.648946 1.1682736,-1.476221 1.1682736,-2.479138 0,-0.755137 -0.2421576,-1.397262 -0.7259175,-1.928218 C 8.4899832,12.20651 7.9064862,11.893674 7.1867459,11.752086 v -0.03565 C 8.5790305,11.220879 9.2753792,10.330571 9.2753792,9.0444785 9.2753792,8.242145 8.9685686,7.5803251 8.3550195,7.0611681 7.7060733,6.494815 6.8141454,6.2121037 5.6814392,6.2121037 Z m 9.9116908,1.469659 c 1.286093,0 2.271178,0.3473641 2.955522,1.0435065 0.696141,0.6843432 1.043507,1.6875028 1.043507,3.0089928 0,1.474878 -0.377489,2.595294 -1.132627,3.36223 -0.743338,0.755135 -1.787051,1.126599 -3.132139,1.114802 -0.542756,0 -0.908194,-0.01646 -1.096978,-0.05185 V 7.7870856 c 0.365769,-0.070794 0.81996,-0.1053229 1.362715,-0.1053229 z" />
</svg>
