<?xml version="1.0" encoding="UTF-8" standalone="no"?>
<svg
   xmlns:dc="http://purl.org/dc/elements/1.1/"
   xmlns:cc="http://creativecommons.org/ns#"
   xmlns:rdf="http://www.w3.org/1999/02/22-rdf-syntax-ns#"
   xmlns:svg="http://www.w3.org/2000/svg"
   xmlns="http://www.w3.org/2000/svg"
   xmlns:sodipodi="http://sodipodi.sourceforge.net/DTD/sodipodi-0.dtd"
   xmlns:inkscape="http://www.inkscape.org/namespaces/inkscape"
   width="24"
   height="24"
   viewBox="0 0 24 24"
   version="1.1"
   id="svg11"
   inkscape:version="0.92.3 (2405546, 2018-03-11)"
   sodipodi:docname="buffer.svg">
  <metadata
     id="metadata17">
    <rdf:RDF>
      <cc:Work
         rdf:about="">
        <dc:format>image/svg+xml</dc:format>
        <dc:type
           rdf:resource="http://purl.org/dc/dcmitype/StillImage" />
        <dc:title></dc:title>
      </cc:Work>
    </rdf:RDF>
  </metadata>
  <defs
     id="defs15" />
  <sodipodi:namedview
     pagecolor="#878787"
     bordercolor="#666666"
     borderopacity="1"
     objecttolerance="10"
     gridtolerance="10"
     guidetolerance="10"
     inkscape:pageopacity="0"
     inkscape:pageshadow="2"
     inkscape:window-width="1280"
     inkscape:window-height="995"
     id="namedview13"
     showgrid="true"
     units="px"
     inkscape:zoom="19.666666"
     inkscape:cx="15.459901"
     inkscape:cy="10.028021"
     inkscape:window-x="1600"
     inkscape:window-y="0"
     inkscape:window-maximized="1"
     inkscape:current-layer="svg11"
     inkscape:snap-global="false">
    <inkscape:grid
       type="xygrid"
       id="grid4473" />
  </sodipodi:namedview>
  <path
     style="color:#000000;font-style:normal;font-variant:normal;font-weight:normal;font-stretch:normal;font-size:medium;line-height:normal;font-family:sans-serif;font-variant-ligatures:normal;font-variant-position:normal;font-variant-caps:normal;font-variant-numeric:normal;font-variant-alternates:normal;font-feature-settings:normal;text-indent:0;text-align:start;text-decoration:none;text-decoration-line:none;text-decoration-style:solid;text-decoration-color:#000000;letter-spacing:normal;word-spacing:normal;text-transform:none;writing-mode:lr-tb;direction:ltr;text-orientation:mixed;dominant-baseline:auto;baseline-shift:baseline;text-anchor:start;white-space:normal;shape-padding:0;clip-rule:nonzero;display:inline;overflow:visible;visibility:visible;opacity:1;isolation:auto;mix-blend-mode:normal;color-interpolation:sRGB;color-interpolation-filters:linearRGB;solid-color:#000000;solid-opacity:1;vector-effect:none;fill:#000000;fill-opacity:1;fill-rule:evenodd;stroke:none;stroke-width:1;stroke-linecap:butt;stroke-linejoin:miter;stroke-miterlimit:4;stroke-dasharray:2, 1;stroke-dashoffset:0;stroke-opacity:1;color-rendering:auto;image-rendering:auto;shape-rendering:auto;text-rendering:auto;enable-background:accumulate"
     d="M 8.4355469,7.1972656 7.6777344,7.9550781 8.3847656,8.6621094 8.9960938,8.0507812 h 0.7207031 v -1 H 8.7890625 8.5800781 Z m 2.2812501,0.8535156 h 2 v -1 h -2 z m 3,0 h 2 v -1 h -2 z m 3,-0.4570312 -0.357422,0.2148438 0.992187,1.6542968 0.857422,-0.515625 -0.992187,-1.6542968 -0.146485,-0.2421876 h -0.28125 -0.07227 z M 5.5566406,10.076172 6.2636719,10.783203 7.6777344,9.3691406 6.9707031,8.6621094 Z m 12.3105474,0.24414 1.027343,1.714844 0.857422,-0.515625 -1.027344,-1.7148435 z M 3.4355469,12.197266 3.7890625,12.550781 3.2949219,12.632812 3.59375,14.429688 4.5800781,14.265625 4.3242188,12.722656 5.5566406,11.490234 4.8496094,10.783203 Z m 14.5156251,1.484375 0.707031,0.707031 1.414063,-1.414063 -0.707032,-0.708984 z m -2.121094,2.121093 0.707031,0.707032 1.414063,-1.414063 -0.707031,-0.707031 z m -12.0703124,-0.386718 0.328125,1.972656 0.9863282,-0.164063 -0.328125,-1.972656 z m 9.5371094,1.080078 0.179687,0.982422 1.966797,-0.357422 -0.177734,-0.982422 z m -2.951172,0.537109 0.177735,0.982422 1.96875,-0.357422 -0.179688,-0.984375 z m -2.9511718,0.535156 0.1777344,0.984375 1.96875,-0.357422 -0.1796875,-0.984374 z m -2.6953124,0.490235 0.042969,0.234375 -0.4902344,0.08203 0.042969,0.257812 0.083984,0.5 0.4980469,-0.08984 1.7109375,-0.310547 -0.1777344,-0.984375 z"
     id="path831"
     inkscape:connector-curvature="0" />
  <path
     style="color:#000000;font-style:normal;font-variant:normal;font-weight:normal;font-stretch:normal;font-size:medium;line-height:normal;font-family:sans-serif;font-variant-ligatures:normal;font-variant-position:normal;font-variant-caps:normal;font-variant-numeric:normal;font-variant-alternates:normal;font-feature-settings:normal;text-indent:0;text-align:start;text-decoration:none;text-decoration-line:none;text-decoration-style:solid;text-decoration-color:#000000;letter-spacing:normal;word-spacing:normal;text-transform:none;writing-mode:lr-tb;direction:ltr;text-orientation:mixed;dominant-baseline:auto;baseline-shift:baseline;text-anchor:start;white-space:normal;shape-padding:0;clip-rule:nonzero;display:inline;overflow:visible;visibility:visible;opacity:1;isolation:auto;mix-blend-mode:normal;color-interpolation:sRGB;color-interpolation-filters:linearRGB;solid-color:#000000;solid-opacity:1;vector-effect:none;fill:#000000;fill-opacity:1;fill-rule:evenodd;stroke:none;stroke-width:1px;stroke-linecap:butt;stroke-linejoin:miter;stroke-miterlimit:4;stroke-dasharray:none;stroke-dashoffset:0;stroke-opacity:1;color-rendering:auto;image-rendering:auto;shape-rendering:auto;text-rendering:auto;enable-background:accumulate"
     d="m 18.203125,4.5605469 c -2.994818,0.00188 -7.315771,0.039079 -10.3027344,0.041016 L 7.7089844,4.6035156 7.5664062,4.7304688 C 5.1388748,6.9189485 3.0466595,9.09922 0.75390625,11.460938 l -0.17578125,0.18164 0.0410156,0.25 c 0.49358488,2.956362 1.13167808,6.738259 1.62499998,9.69336 l 0.087891,0.52539 0.5175782,-0.121094 C 7.7168961,20.86027 12.848401,20.485178 17.710938,18.78125 l 0.107421,-0.03906 5.72461,-5.722657 -0.201172,-0.333984 C 21.772909,10.057877 20.20244,7.4315352 18.632812,4.8046875 L 18.488281,4.5605469 Z M 17.921875,5.5625 c 1.454316,2.4337637 2.909864,4.866812 4.363281,7.300781 l -4.99414,4.994141 C 12.78211,19.420918 7.9187275,19.86307 3.1464844,20.919922 2.6786058,18.120433 2.1100217,14.747399 1.6484375,11.984375 3.8300349,9.73617 5.8338291,7.6634286 8.109375,5.6015625 c 2.902053,-0.0032 6.899726,-0.035435 9.8125,-0.039063 z"
     id="path831-8-5"
     inkscape:connector-curvature="0" />
</svg>
