<?xml version="1.0" encoding="UTF-8" standalone="no"?>
<!-- Created with Inkscape (http://www.inkscape.org/) -->

<svg
   width="24"
   height="24"
   viewBox="0 0 24 24"
   version="1.1"
   id="svg8"
   inkscape:version="1.1 (c68e22c387, 2021-05-23)"
   sodipodi:docname="camera.svg"
   xmlns:inkscape="http://www.inkscape.org/namespaces/inkscape"
   xmlns:sodipodi="http://sodipodi.sourceforge.net/DTD/sodipodi-0.dtd"
   xmlns="http://www.w3.org/2000/svg"
   xmlns:svg="http://www.w3.org/2000/svg"
   xmlns:rdf="http://www.w3.org/1999/02/22-rdf-syntax-ns#"
   xmlns:cc="http://creativecommons.org/ns#"
   xmlns:dc="http://purl.org/dc/elements/1.1/">
  <defs
     id="defs2" />
  <sodipodi:namedview
     id="base"
     pagecolor="#ffffff"
     bordercolor="#666666"
     borderopacity="1.0"
     inkscape:pageopacity="0.0"
     inkscape:pageshadow="2"
     inkscape:zoom="22.4"
     inkscape:cx="11.160714"
     inkscape:cy="10.647321"
     inkscape:document-units="px"
     inkscape:current-layer="layer1"
     showgrid="true"
     inkscape:window-width="1920"
     inkscape:window-height="1171"
     inkscape:window-x="1600"
     inkscape:window-y="0"
     inkscape:window-maximized="1"
     inkscape:snap-bbox="true"
     inkscape:bbox-paths="true"
     inkscape:bbox-nodes="true"
     inkscape:snap-bbox-edge-midpoints="true"
     inkscape:snap-bbox-midpoints="true"
     units="px"
     inkscape:pagecheckerboard="0">
    <inkscape:grid
       type="xygrid"
       id="grid4231"
       originx="0"
       originy="0" />
  </sodipodi:namedview>
  <metadata
     id="metadata5">
    <rdf:RDF>
      <cc:Work
         rdf:about="">
        <dc:format>image/svg+xml</dc:format>
        <dc:type
           rdf:resource="http://purl.org/dc/dcmitype/StillImage" />
      </cc:Work>
    </rdf:RDF>
  </metadata>
  <g
     inkscape:label="Layer 1"
     inkscape:groupmode="layer"
     id="layer1"
     transform="translate(0,-290.65)">
    <path
       d="M 24,296.82355 H 0 v 15.7124 h 24 z m -12.000048,12.90884 c -2.79036,0 -5.052588,-2.26213 -5.052588,-5.0527 0,-2.79035 2.262132,-5.05256 5.052588,-5.05256 2.790456,0 5.052792,2.26221 5.052792,5.05256 0,2.79057 -2.262336,5.0527 -5.052792,5.0527 z m -2.83812,-16.96835 h 5.676336 l 1.867212,3.01056 H 7.294836 Z m 5.869788,11.91566 c 0,1.67428 -1.357296,3.03168 -3.031668,3.03168 -1.674168,0 -3.031476,-1.3574 -3.031476,-3.03168 0,-1.67426 1.357308,-3.03156 3.031476,-3.03156 1.674372,1.1e-4 3.031668,1.3573 3.031668,3.03156 z"
       id="path892"
       style="stroke-width:0.104063" />
    <g
       id="g894"
       transform="matrix(0.10406323,0,0,0.10406323,-148,156.16162)" />
    <g
       id="g896"
       transform="matrix(0.10406323,0,0,0.10406323,-148,156.16162)" />
    <g
       id="g898"
       transform="matrix(0.10406323,0,0,0.10406323,-148,156.16162)" />
    <g
       id="g900"
       transform="matrix(0.10406323,0,0,0.10406323,-148,156.16162)" />
    <g
       id="g902"
       transform="matrix(0.10406323,0,0,0.10406323,-148,156.16162)" />
    <g
       id="g904"
       transform="matrix(0.10406323,0,0,0.10406323,-148,156.16162)" />
    <g
       id="g906"
       transform="matrix(0.10406323,0,0,0.10406323,-148,156.16162)" />
    <g
       id="g908"
       transform="matrix(0.10406323,0,0,0.10406323,-148,156.16162)" />
    <g
       id="g910"
       transform="matrix(0.10406323,0,0,0.10406323,-148,156.16162)" />
    <g
       id="g912"
       transform="matrix(0.10406323,0,0,0.10406323,-148,156.16162)" />
    <g
       id="g914"
       transform="matrix(0.10406323,0,0,0.10406323,-148,156.16162)" />
    <g
       id="g916"
       transform="matrix(0.10406323,0,0,0.10406323,-148,156.16162)" />
    <g
       id="g918"
       transform="matrix(0.10406323,0,0,0.10406323,-148,156.16162)" />
    <g
       id="g920"
       transform="matrix(0.10406323,0,0,0.10406323,-148,156.16162)" />
    <g
       id="g922"
       transform="matrix(0.10406323,0,0,0.10406323,-148,156.16162)" />
  </g>
</svg>
