<?xml version="1.0" encoding="UTF-8" standalone="no"?>
<svg
   xmlns:dc="http://purl.org/dc/elements/1.1/"
   xmlns:cc="http://creativecommons.org/ns#"
   xmlns:rdf="http://www.w3.org/1999/02/22-rdf-syntax-ns#"
   xmlns:svg="http://www.w3.org/2000/svg"
   xmlns="http://www.w3.org/2000/svg"
   xmlns:sodipodi="http://sodipodi.sourceforge.net/DTD/sodipodi-0.dtd"
   xmlns:inkscape="http://www.inkscape.org/namespaces/inkscape"
   width="24"
   height="24"
   viewBox="0 0 24 24"
   version="1.1"
   id="svg9"
   inkscape:version="1.0.1 (3bc2e813f5, 2020-09-07)"
   sodipodi:docname="catalog.svg">
  <metadata
     id="metadata15">
    <rdf:RDF>
      <cc:Work
         rdf:about="">
        <dc:format>image/svg+xml</dc:format>
        <dc:type
           rdf:resource="http://purl.org/dc/dcmitype/StillImage" />
        <dc:title></dc:title>
      </cc:Work>
    </rdf:RDF>
  </metadata>
  <defs
     id="defs13" />
  <sodipodi:namedview
     pagecolor="#ffffff"
     bordercolor="#666666"
     borderopacity="1"
     objecttolerance="10"
     gridtolerance="10"
     guidetolerance="10"
     inkscape:pageopacity="0"
     inkscape:pageshadow="2"
     inkscape:window-width="1920"
     inkscape:window-height="1051"
     id="namedview11"
     showgrid="true"
     units="px"
     inkscape:zoom="6.9532165"
     inkscape:cx="22.711413"
     inkscape:cy="25.520349"
     inkscape:window-x="1920"
     inkscape:window-y="0"
     inkscape:window-maximized="1"
     inkscape:current-layer="svg9"
     inkscape:snap-bbox="true"
     inkscape:document-rotation="0">
    <inkscape:grid
       type="xygrid"
       id="grid4479" />
  </sodipodi:namedview>
  <path
     style="fill:#000000;stroke-width:0.0170648"
     d="M 11.52231,21.11752 C 11.42149,20.97453 11.16269,20.64914 11.00827,20.47124 9.9308,19.22989 8.30832,18.08137 6.52247,17.29583 6.25753,17.17929 5.76737,16.98373 5.61377,16.93328 L 5.49858,16.89548 V 9.84846 2.80143 l 0.10666,0.0721 c 0.51189,0.34619 5.9498,4.06932 5.97269,4.08928 0.0284,0.0247 0.0299,0.38566 0.0299,7.1309 0,3.90768 -0.006,7.10486 -0.0142,7.10486 -0.008,0 -0.0399,-0.0365 -0.0713,-0.0811 z m 0.87047,-7.02559 V 6.9853 l 0.0555,-0.0415 c 0.0449,-0.0336 5.57157,-3.81607 5.9471,-4.07021 l 0.10666,-0.0722 v 7.04703 7.04702 l -0.11519,0.0378 c -0.17356,0.057 -0.54487,0.20357 -0.83191,0.3285 -1.83104,0.7969 -3.46732,1.94767 -4.56102,3.20767 -0.15575,0.17944 -0.41442,0.50457 -0.51561,0.6481 -0.0314,0.0446 -0.0635,0.0811 -0.0713,0.0811 -0.008,0 -0.0142,-3.19798 -0.0142,-7.10664 z M 5.96029,20.24159 C 5.34289,19.98102 4.52407,19.79262 3.73634,19.7299 3.28761,19.6942 2.30395,19.72957 2.03869,19.791 L 2.00029,19.8 V 12.79414 5.78828 l 0.28584,0.005 0.28583,0.005 0.004,6.65103 0.004,6.65102 0.15783,1.7e-4 c 0.30163,3.4e-4 0.88949,0.0655 1.24997,0.13862 0.84149,0.17062 1.44886,0.43272 1.90381,0.82155 0.10471,0.0895 0.25888,0.2538 0.235,0.25047 -0.003,-4.5e-4 -0.0782,-0.0314 -0.16686,-0.0688 z m 11.95923,0.004 c 0.18277,-0.23076 0.64627,-0.54062 1.05176,-0.70312 0.64854,-0.25989 1.59116,-0.44213 2.29093,-0.44292 l 0.15783,-1.7e-4 0.004,-6.65102 0.004,-6.65103 0.28583,-0.005 0.28584,-0.005 v 7.00669 c 0,6.66501 -0.001,7.00625 -0.0299,6.99784 -0.0164,-0.005 -0.14122,-0.0226 -0.27731,-0.0394 -0.35477,-0.0439 -1.35198,-0.0437 -1.70631,3.6e-4 -0.76288,0.0948 -1.46259,0.27578 -2.05463,0.53136 l -0.0664,0.0287 0.0538,-0.0679 z M 8.30575,19.72015 C 7.61413,19.31144 6.4645,18.84999 5.37362,18.54321 5.05177,18.45271 4.40499,18.33217 3.77077,18.2445 L 3.48493,18.205 v -7.14666 c 0,-3.93067 0.005,-7.14666 0.0109,-7.14666 0.006,0 0.27863,0.10496 0.60578,0.23325 l 0.59483,0.23326 0.004,6.56788 0.004,6.56789 0.37542,0.15023 c 1.08921,0.43586 2.01405,0.92875 2.68772,1.43242 0.26008,0.19445 0.80912,0.74075 0.73921,0.73552 -0.008,-5.8e-4 -0.0984,-0.051 -0.20167,-0.11197 z m 7.21136,0.0576 c 0.0764,-0.11181 0.52451,-0.5385 0.71526,-0.68111 0.69068,-0.51638 1.72988,-1.06383 2.81286,-1.48181 l 0.25028,-0.0966 0.004,-6.57024 0.004,-6.57023 0.59601,-0.23303 c 0.3278,-0.12817 0.6004,-0.23303 0.60578,-0.23303 0.005,0 0.01,3.21599 0.01,7.14666 v 7.14666 l -0.28584,0.0395 c -0.63422,0.0877 -1.281,0.2082 -1.60285,0.29871 -1.08536,0.30522 -2.18975,0.74731 -2.91999,1.16889 -0.11534,0.0666 -0.21377,0.12107 -0.21874,0.12107 -0.005,0 0.008,-0.025 0.0289,-0.0555 z"
     id="path1509" />
</svg>
