<?xml version="1.0" encoding="UTF-8" standalone="no"?>
<!-- Generated by IcoMoon.io -->

<svg
   version="1.1"
   width="24"
   height="24"
   viewBox="0 0 24 24"
   id="svg6"
   sodipodi:docname="compare.svg"
   inkscape:version="1.4 (e7c3feb100, 2024-10-09)"
   xmlns:inkscape="http://www.inkscape.org/namespaces/inkscape"
   xmlns:sodipodi="http://sodipodi.sourceforge.net/DTD/sodipodi-0.dtd"
   xmlns="http://www.w3.org/2000/svg"
   xmlns:svg="http://www.w3.org/2000/svg"
   xmlns:rdf="http://www.w3.org/1999/02/22-rdf-syntax-ns#"
   xmlns:cc="http://creativecommons.org/ns#"
   xmlns:dc="http://purl.org/dc/elements/1.1/">
  <metadata
     id="metadata12">
    <rdf:RDF>
      <cc:Work
         rdf:about="">
        <dc:format>image/svg+xml</dc:format>
        <dc:type
           rdf:resource="http://purl.org/dc/dcmitype/StillImage" />
        <dc:title>uniE094</dc:title>
      </cc:Work>
    </rdf:RDF>
  </metadata>
  <defs
     id="defs10" />
  <sodipodi:namedview
     pagecolor="#ffffff"
     bordercolor="#666666"
     borderopacity="1"
     objecttolerance="10"
     gridtolerance="10"
     guidetolerance="10"
     inkscape:pageopacity="0"
     inkscape:pageshadow="2"
     inkscape:window-width="1600"
     inkscape:window-height="842"
     id="namedview8"
     showgrid="true"
     inkscape:zoom="10.086473"
     inkscape:cx="5.3537048"
     inkscape:cy="12.739835"
     inkscape:window-x="0"
     inkscape:window-y="0"
     inkscape:window-maximized="1"
     inkscape:current-layer="svg6"
     inkscape:showpageshadow="2"
     inkscape:pagecheckerboard="0"
     inkscape:deskcolor="#d1d1d1">
    <inkscape:grid
       type="xygrid"
       id="grid235"
       originx="0"
       originy="0"
       spacingy="1"
       spacingx="1"
       units="px"
       visible="true" />
  </sodipodi:namedview>
  <title
     id="title2">uniE094</title>
  <path
     id="path4"
     style="stroke-width:0.54207"
     d="M 16.671875 1.984375 C 16.554027 1.9810607 16.420934 2.0150574 16.271484 2.0878906 L 9.2988281 7.1855469 C 9.0995621 7.2826539 9 7.4013656 9 7.5429688 C 9 7.6845713 9.0995621 7.8032833 9.2988281 7.9003906 L 16.271484 12.912109 C 16.470283 13.008939 16.64189 13.03722 16.785156 13 C 16.928423 12.96278 17 12.867652 17 12.710938 L 17 9 L 21 9 C 21.261333 9 21.547916 8.9461909 21.728516 8.8378906 C 21.909116 8.7295891 22 8.5961673 22 8.4394531 L 22 6.5605469 C 22 6.4038323 21.90912 6.2723634 21.728516 6.1640625 C 21.547916 6.0557616 21.261333 6 21 6 L 17 6 L 17 2.2910156 C 16.999534 2.1345809 16.92796 2.0374995 16.785156 2 C 16.749457 1.9906253 16.711158 1.9854798 16.671875 1.984375 z M 7.328125 10.984375 C 7.2888423 10.985478 7.2505435 10.990625 7.2148438 11 C 7.0720397 11.037499 7.000466 11.134581 7 11.291016 L 7 15 L 3 15 C 2.738667 15 2.4520844 15.055762 2.2714844 15.164062 C 2.0908804 15.272364 2 15.403832 2 15.560547 L 2 17.439453 C 2 17.596167 2.0908844 17.729589 2.2714844 17.837891 C 2.4520844 17.94619 2.738667 18 3 18 L 7 18 L 7 21.710938 C 7 21.867653 7.0715767 21.96278 7.2148438 22 C 7.3581097 22.03722 7.5297166 22.008939 7.7285156 21.912109 L 14.701172 16.900391 C 14.90044 16.803283 15 16.684571 15 16.542969 C 15 16.401366 14.900438 16.282657 14.701172 16.185547 L 7.7285156 11.087891 C 7.5790661 11.015073 7.4459731 10.981065 7.328125 10.984375 z " />
</svg>
