<?xml version="1.0" encoding="UTF-8" standalone="no"?>
<svg
   height="24"
   version="1.1"
   viewBox="0 0 24 24"
   width="24"
   id="svg1"
   sodipodi:docname="cone.svg"
   inkscape:version="1.4 (e7c3feb100, 2024-10-09)"
   xmlns:inkscape="http://www.inkscape.org/namespaces/inkscape"
   xmlns:sodipodi="http://sodipodi.sourceforge.net/DTD/sodipodi-0.dtd"
   xmlns="http://www.w3.org/2000/svg"
   xmlns:svg="http://www.w3.org/2000/svg">
  <defs
     id="defs1" />
  <sodipodi:namedview
     id="namedview1"
     pagecolor="#ffffff"
     bordercolor="#666666"
     borderopacity="1.0"
     inkscape:showpageshadow="2"
     inkscape:pageopacity="0.0"
     inkscape:pagecheckerboard="0"
     inkscape:deskcolor="#d1d1d1"
     inkscape:zoom="21.993724"
     inkscape:cx="11.503282"
     inkscape:cy="10.298392"
     inkscape:window-width="1600"
     inkscape:window-height="842"
     inkscape:window-x="0"
     inkscape:window-y="0"
     inkscape:window-maximized="1"
     inkscape:current-layer="layer1"
     showgrid="true">
    <inkscape:grid
       id="grid1"
       units="px"
       originx="0"
       originy="0"
       spacingx="1"
       spacingy="1"
       empcolor="#0099e5"
       empopacity="0.30196078"
       color="#0099e5"
       opacity="0.14901961"
       empspacing="5"
       enabled="true"
       visible="true" />
  </sodipodi:namedview>
  <g
     id="layer1"
     transform="matrix(1.1764703,0,0,1.1764703,0.23529702,0.23545728)">
    <path
       id="path1-7"
       style="stroke-linecap:round;stroke-linejoin:round"
       d="M 9.9335937 1.079842 A 0.42500001 0.42500001 0 0 0 9.8920898 1.0981038 A 0.42500001 0.42500001 0 0 0 9.8472656 1.1030842 A 0.42500001 0.42500001 0 0 0 9.7924804 1.142928 A 0.42500001 0.42500001 0 0 0 9.7061523 1.206014 A 0.42500001 0.42500001 0 0 0 9.6430663 1.2923421 A 0.42500001 0.42500001 0 0 0 9.6032225 1.3471273 L 4.0832017 15.78717 L 4.0782212 15.798791 A 0.42500001 0.42500001 0 0 0 4.0749009 15.825353 A 0.42500001 0.42500001 0 0 0 4.0499985 15.949865 C 4.0499985 16.621657 4.3878791 17.245417 4.9265612 17.747815 C 5.4652434 18.250213 6.2093581 18.651102 7.1113274 18.931507 C 8.9152662 19.492317 11.084734 19.492317 12.888673 18.931507 C 13.790642 18.651102 14.534757 18.250213 15.073439 17.747815 C 15.612121 17.245417 15.950001 16.621657 15.950001 15.949865 A 0.42500001 0.42500001 0 0 0 15.950001 15.948205 A 0.42500001 0.42500001 0 0 0 15.921779 15.798791 L 15.916798 15.78717 L 10.396777 1.3471273 A 0.42500001 0.42500001 0 0 0 10.393457 1.3421468 A 0.42500001 0.42500001 0 0 0 10.268945 1.1728108 A 0.42500001 0.42500001 0 0 0 10.262305 1.1661702 A 0.42500001 0.42500001 0 0 0 10.152734 1.1030842 A 0.42500001 0.42500001 0 0 0 10.10791 1.0981038 A 0.42500001 0.42500001 0 0 0 10 1.0864827 A 0.42500001 0.42500001 0 0 0 9.9335937 1.079842 z M 10 2.690194 L 15.095021 16.016271 C 15.074514 16.385947 14.885649 16.761689 14.494044 17.126916 C 14.078836 17.514157 13.443801 17.870322 12.636329 18.12135 C 11.021385 18.623405 8.9786151 18.623405 7.3636712 18.12135 C 6.5561994 17.870322 5.9211636 17.514157 5.5059559 17.126916 C 5.1143505 16.761689 4.9254859 16.385947 4.9049792 16.016271 L 10 2.690194 z " />
  </g>
</svg>
