<?xml version="1.0" encoding="UTF-8" standalone="no"?>
<!-- Generated by IcoMoon.io -->

<svg
   version="1.1"
   width="24"
   height="24"
   viewBox="0 0 24 24"
   id="svg6"
   sodipodi:docname="confirm.svg"
   inkscape:version="1.2 (dc2aedaf03, 2022-05-15)"
   xmlns:inkscape="http://www.inkscape.org/namespaces/inkscape"
   xmlns:sodipodi="http://sodipodi.sourceforge.net/DTD/sodipodi-0.dtd"
   xmlns="http://www.w3.org/2000/svg"
   xmlns:svg="http://www.w3.org/2000/svg"
   xmlns:rdf="http://www.w3.org/1999/02/22-rdf-syntax-ns#"
   xmlns:cc="http://creativecommons.org/ns#"
   xmlns:dc="http://purl.org/dc/elements/1.1/">
  <metadata
     id="metadata12">
    <rdf:RDF>
      <cc:Work
         rdf:about="">
        <dc:format>image/svg+xml</dc:format>
        <dc:type
           rdf:resource="http://purl.org/dc/dcmitype/StillImage" />
        <dc:title>uniE082</dc:title>
      </cc:Work>
    </rdf:RDF>
  </metadata>
  <defs
     id="defs10" />
  <sodipodi:namedview
     pagecolor="#ffffff"
     bordercolor="#666666"
     borderopacity="1"
     objecttolerance="10"
     gridtolerance="10"
     guidetolerance="10"
     inkscape:pageopacity="0"
     inkscape:pageshadow="2"
     inkscape:window-width="1600"
     inkscape:window-height="837"
     id="namedview8"
     showgrid="false"
     inkscape:zoom="7.375"
     inkscape:cx="16.135593"
     inkscape:cy="16.067797"
     inkscape:window-x="0"
     inkscape:window-y="0"
     inkscape:window-maximized="1"
     inkscape:current-layer="svg6"
     inkscape:showpageshadow="2"
     inkscape:pagecheckerboard="0"
     inkscape:deskcolor="#d1d1d1" />
  <title
     id="title2">uniE082</title>
  <path
     id="path4"
     style="stroke-width:0.7"
     d="M 12 1.2304688 C 10.544001 1.2304688 9.149758 1.5120589 7.8183594 2.078125 C 6.4869607 2.6441911 5.339599 3.410401 4.375 4.375 C 3.410401 5.339599 2.6441911 6.4869607 2.078125 7.8183594 C 1.5120589 9.149758 1.2304688 10.544001 1.2304688 12 C 1.2304688 13.455999 1.5120589 14.850242 2.078125 16.181641 C 2.6441911 17.513039 3.410401 18.660401 4.375 19.625 C 5.339599 20.589599 6.4869607 21.355809 7.8183594 21.921875 C 9.149758 22.487941 10.544001 22.769531 12 22.769531 C 13.455999 22.769531 14.850242 22.487941 16.181641 21.921875 C 17.513039 21.355809 18.660401 20.589599 19.625 19.625 C 20.589599 18.660401 21.355809 17.513039 21.921875 16.181641 C 22.487941 14.850242 22.769531 13.455999 22.769531 12 C 22.769531 10.544001 22.487941 9.149758 21.921875 7.8183594 C 21.355809 6.4869607 20.589599 5.339599 19.625 4.375 C 18.660401 3.410401 17.513039 2.6441911 16.181641 2.078125 C 14.850242 1.5120589 13.455999 1.2304688 12 1.2304688 z M 17.347656 5.3535156 C 17.435341 5.3535156 17.509229 5.3890338 17.570312 5.4589844 L 19.894531 7.7832031 C 19.964482 7.8446151 20 7.9185028 20 8.0058594 C 20 8.0932153 19.964482 8.1719082 19.894531 8.2421875 L 9.609375 18.541016 C 9.5479631 18.610966 9.4708607 18.646484 9.3789062 18.646484 C 9.2869526 18.646484 9.2098496 18.610966 9.1484375 18.541016 L 4.1054688 13.498047 C 4.035518 13.428096 4 13.349403 4 13.261719 C 4 13.174034 4.035518 13.098193 4.1054688 13.037109 L 6.4296875 10.712891 C 6.4910994 10.64294 6.5649872 10.607422 6.6523438 10.607422 C 6.7397001 10.607422 6.8203459 10.64294 6.890625 10.712891 L 9.1367188 12.958984 C 9.1981307 13.020398 9.2768234 13.050781 9.3730469 13.050781 C 9.4692696 13.050781 9.5479629 13.020398 9.609375 12.958984 L 17.109375 5.4589844 C 17.179326 5.3890338 17.259972 5.3535156 17.347656 5.3535156 z " />
</svg>
