<?xml version="1.0" encoding="UTF-8" standalone="no"?>
<svg
   height="24"
   version="1.1"
   viewBox="0 0 24 24"
   width="24"
   id="svg1"
   sodipodi:docname="cuboid.svg"
   inkscape:version="1.4 (e7c3feb100, 2024-10-09)"
   xmlns:inkscape="http://www.inkscape.org/namespaces/inkscape"
   xmlns:sodipodi="http://sodipodi.sourceforge.net/DTD/sodipodi-0.dtd"
   xmlns="http://www.w3.org/2000/svg"
   xmlns:svg="http://www.w3.org/2000/svg">
  <defs
     id="defs1" />
  <sodipodi:namedview
     id="namedview1"
     pagecolor="#ffffff"
     bordercolor="#666666"
     borderopacity="1.0"
     inkscape:showpageshadow="2"
     inkscape:pageopacity="0.0"
     inkscape:pagecheckerboard="0"
     inkscape:deskcolor="#d1d1d1"
     inkscape:zoom="21.993724"
     inkscape:cx="11.503282"
     inkscape:cy="10.298393"
     inkscape:window-width="1600"
     inkscape:window-height="842"
     inkscape:window-x="0"
     inkscape:window-y="0"
     inkscape:window-maximized="1"
     inkscape:current-layer="layer1"
     showgrid="true">
    <inkscape:grid
       id="grid1"
       units="px"
       originx="0"
       originy="0"
       spacingx="1"
       spacingy="1"
       empcolor="#0099e5"
       empopacity="0.30196078"
       color="#0099e5"
       opacity="0.14901961"
       empspacing="5"
       enabled="true"
       visible="true" />
  </sodipodi:namedview>
  <g
     id="layer1"
     transform="matrix(1.1764703,0,0,1.1764703,0.23529702,0.23545728)">
    <path
       id="path2"
       style="stroke-linejoin:round"
       d="m 12.55498,1.0748876 a 0.42504251,0.42504251 0 0 0 -0.20752,0.049805 L 1.2991182,7.0763539 A 0.42504251,0.42504251 0 0 0 1.0749971,7.4498891 v 7.6500019 a 0.42504251,0.42504251 0 0 0 0.2141602,0.368555 l 5.9483413,3.401661 a 0.42504251,0.42504251 0 0 0 0.028223,0.0083 0.42500001,0.42500001 0 0 0 0.1626953,0.0415 0.42504251,0.42504251 0 0 0 0.018262,0.005 0.42500001,0.42500001 0 0 0 0.00332,0 0.42500001,0.42500001 0 0 0 0.180957,-0.04649 0.42504251,0.42504251 0 0 0 0.021582,-0.005 L 18.70088,12.923425 A 0.42504251,0.42504251 0 0 0 18.925001,12.54989 V 4.9015487 a 0.42504251,0.42504251 0 0 0 -0.21416,-0.370215 L 12.7625,1.1313329 a 0.42504251,0.42504251 0 0 0 -0.20752,-0.056445 z m -0.01162,0.911426 5.080079,2.903614 L 7.4566393,10.363464 2.3765599,7.4598501 Z m 5.531642,3.624122 V 12.295886 L 7.8749988,17.787684 v -6.68379 z M 1.9249973,8.1820182 7.0249986,11.097253 v 6.67051 L 1.9249973,14.854188 Z" />
  </g>
</svg>
