<?xml version="1.0" encoding="UTF-8" standalone="no"?>
<!-- Created with Inkscape (http://www.inkscape.org/) -->

<svg
   width="24"
   height="24"
   viewBox="0 0 6.3499999 6.35"
   version="1.1"
   id="svg5"
   xml:space="preserve"
   inkscape:version="1.2.2 (b0a8486541, 2022-12-01)"
   sodipodi:docname="cyclomedia.svg"
   xmlns:inkscape="http://www.inkscape.org/namespaces/inkscape"
   xmlns:sodipodi="http://sodipodi.sourceforge.net/DTD/sodipodi-0.dtd"
   xmlns="http://www.w3.org/2000/svg"
   xmlns:svg="http://www.w3.org/2000/svg"><sodipodi:namedview
     id="namedview7"
     pagecolor="#ffffff"
     bordercolor="#666666"
     borderopacity="1.0"
     inkscape:showpageshadow="2"
     inkscape:pageopacity="0.0"
     inkscape:pagecheckerboard="0"
     inkscape:deskcolor="#d1d1d1"
     inkscape:document-units="mm"
     showgrid="false"
     inkscape:zoom="32"
     inkscape:cx="13.09375"
     inkscape:cy="11.234375"
     inkscape:window-width="1600"
     inkscape:window-height="841"
     inkscape:window-x="0"
     inkscape:window-y="0"
     inkscape:window-maximized="1"
     inkscape:current-layer="layer1"><inkscape:grid
       type="xygrid"
       id="grid248"
       originx="0"
       originy="0" /></sodipodi:namedview><defs
     id="defs2" /><g
     inkscape:label="Layer 1"
     inkscape:groupmode="layer"
     id="layer1"><path
       id="path454"
       style="fill:#000000;fill-opacity:1;stroke:none;stroke-width:0.264583;stop-color:#000000"
       d="M 5.2916667,0.26458333 5.0120972,0.39894206 C 4.8423473,0.47273198 4.5648404,0.58989135 4.3950806,0.65939128 L 4.0860555,0.78548177 V 1.3590902 c 0,0.5175895 0.02365,0.6003875 0.2428792,0.8500773 0.4441996,0.5058895 0.3892594,1.3024374 0.02834,1.9305314 C 3.9963547,4.7677929 3.96875,4.7625 3.96875,4.7625 L 5.2916667,4.2333333 Z M 2.6044922,0.35088298 V 1.0846883 1.8190104 l 0.2671671,-0.076481 c 0.1467899,-0.0422 0.3873913,-0.053955 0.5348511,-0.026355 l 0.2682007,0.050643 V 1.3223999 0.87849935 L 3.13986,0.61443278 Z M 2.2344889,0.37258708 1.6376261,0.64388835 1.0293945,0.90020345 V 4.9330322 c 0,0 0.4373186,-0.1926981 0.8020183,-0.3596679 L 2.2784139,4.3687256 2.0732585,4.1248128 C 1.6360289,3.6049133 1.6330574,2.8724609 2.065507,2.2484416 2.2672768,1.9568319 2.2803601,1.8844408 2.2582601,1.1544515 Z M 3.175,2.1166667 c -0.5845013,0 -1.0583333,0.473832 -1.0583333,1.0583333 0,0.5845013 0.473832,1.0583333 1.0583333,1.0583333 0.5845013,0 1.0583333,-0.473832 1.0583333,-1.0583333 0,-0.5845013 -0.473832,-1.0583333 -1.0583333,-1.0583333 z m -0.069246,0.372587 c 0.3224197,0 0.3140776,0.211569 -0.010852,0.276469 C 2.9079117,2.8031126 2.8135479,2.889267 2.723348,3.1052368 2.5952081,3.4119765 2.5813381,3.425731 2.4949382,3.3393311 2.2764784,3.1208613 2.730384,2.4892537 3.105754,2.4892537 Z M 2.9223022,4.6038534 v 0.6583577 c 0,0.6584493 9.36e-5,0.8232056 0.2470134,0.8232056 0.2469197,0 0.2470033,-0.1731962 0.2470133,-0.8232056 V 4.6038534 Z"
       sodipodi:nodetypes="ccccsczcccccccccccccccccccccccsssssscccscssccc" /></g></svg>
