<?xml version="1.0" encoding="UTF-8" standalone="no"?>
<svg
   height="24"
   version="1.1"
   viewBox="0 0 24 24"
   width="24"
   id="svg1"
   sodipodi:docname="cylinder.svg"
   inkscape:version="1.4 (e7c3feb100, 2024-10-09)"
   xmlns:inkscape="http://www.inkscape.org/namespaces/inkscape"
   xmlns:sodipodi="http://sodipodi.sourceforge.net/DTD/sodipodi-0.dtd"
   xmlns="http://www.w3.org/2000/svg"
   xmlns:svg="http://www.w3.org/2000/svg">
  <defs
     id="defs1" />
  <sodipodi:namedview
     id="namedview1"
     pagecolor="#ffffff"
     bordercolor="#666666"
     borderopacity="1.0"
     inkscape:showpageshadow="2"
     inkscape:pageopacity="0.0"
     inkscape:pagecheckerboard="0"
     inkscape:deskcolor="#d1d1d1"
     inkscape:zoom="21.993724"
     inkscape:cx="11.503282"
     inkscape:cy="10.298392"
     inkscape:window-width="1600"
     inkscape:window-height="842"
     inkscape:window-x="0"
     inkscape:window-y="0"
     inkscape:window-maximized="1"
     inkscape:current-layer="layer1"
     showgrid="true">
    <inkscape:grid
       id="grid1"
       units="px"
       originx="0"
       originy="0"
       spacingx="1"
       spacingy="1"
       empcolor="#0099e5"
       empopacity="0.30196078"
       color="#0099e5"
       opacity="0.14901961"
       empspacing="5"
       enabled="true"
       visible="true" />
  </sodipodi:namedview>
  <g
     id="layer1"
     transform="matrix(1.1764703,0,0,1.1764703,0.23529702,0.23545728)">
    <path
       id="path1"
       style="stroke-linecap:round;stroke-linejoin:round"
       d="M 10 0.64986147 C 8.4124743 0.64986147 6.9720535 0.99175726 5.8927724 1.5729086 C 4.8134914 2.15406 4.0499985 3.016718 4.0499985 4.0515225 L 4.0499985 15.949865 C 4.0499985 16.621657 4.3878791 17.245417 4.9265612 17.747815 C 5.4652434 18.250213 6.2093581 18.651102 7.1113274 18.931507 C 8.9152662 19.492317 11.084734 19.492317 12.888673 18.931507 C 13.790642 18.651102 14.534757 18.250213 15.073439 17.747815 C 15.612121 17.245417 15.950001 16.621657 15.950001 15.949865 L 15.950001 4.0515225 C 15.950001 3.016718 15.186509 2.15406 14.107228 1.5729086 C 13.027947 0.99175726 11.587526 0.64986147 10 0.64986147 z M 10 1.4998617 C 11.463848 1.4998617 12.785094 1.824392 13.70547 2.3199791 C 14.625846 2.8155662 15.100001 3.4432796 15.100001 4.0515225 C 15.100001 4.6597655 14.625846 5.2841584 13.70547 5.7797455 C 12.785094 6.2753326 11.463848 6.5998629 10 6.5998629 C 8.5361519 6.5998629 7.2149063 6.2753326 6.2945303 5.7797455 C 5.3741542 5.2841584 4.8999987 4.6597655 4.8999987 4.0515225 C 4.8999987 3.4432796 5.3741542 2.8155662 6.2945303 2.3199791 C 7.2149063 1.824392 8.5361519 1.4998617 10 1.4998617 z M 4.8999987 5.8212495 C 5.1803937 6.0873558 5.5164701 6.3241917 5.8927724 6.526816 C 6.9720535 7.1079674 8.4124743 7.4498631 10 7.4498631 C 11.587526 7.4498631 13.027947 7.1079674 14.107228 6.526816 C 14.48353 6.3241917 14.819606 6.0873558 15.100001 5.8212495 L 15.100001 15.949865 C 15.100001 16.340938 14.909251 16.739676 14.494044 17.126916 C 14.078836 17.514157 13.443801 17.870322 12.636329 18.12135 C 11.021385 18.623405 8.9786151 18.623405 7.3636712 18.12135 C 6.5561994 17.870322 5.9211636 17.514157 5.5059559 17.126916 C 5.0907482 16.739676 4.8999987 16.340938 4.8999987 15.949865 L 4.8999987 5.8212495 z " />
  </g>
</svg>
