<?xml version="1.0" encoding="UTF-8" standalone="no"?>
<svg
   version="1.1"
   width="24"
   height="24"
   viewBox="0 0 24 24"
   id="svg6"
   sodipodi:docname="drag.svg"
   inkscape:version="1.4.4 (dcaf3e7d9e, 2026-05-05)"
   xmlns:inkscape="http://www.inkscape.org/namespaces/inkscape"
   xmlns:sodipodi="http://sodipodi.sourceforge.net/DTD/sodipodi-0.dtd"
   xmlns="http://www.w3.org/2000/svg"
   xmlns:svg="http://www.w3.org/2000/svg"
   xmlns:rdf="http://www.w3.org/1999/02/22-rdf-syntax-ns#"
   xmlns:cc="http://creativecommons.org/ns#"
   xmlns:dc="http://purl.org/dc/elements/1.1/">
  <metadata
     id="metadata12">
    <rdf:RDF>
      <cc:Work
         rdf:about="">
        <dc:format>image/svg+xml</dc:format>
        <dc:type
           rdf:resource="http://purl.org/dc/dcmitype/StillImage" />
        <dc:title>uniE251</dc:title>
      </cc:Work>
    </rdf:RDF>
  </metadata>
  <defs
     id="defs10" />
  <sodipodi:namedview
     pagecolor="#ffffff"
     bordercolor="#666666"
     borderopacity="1"
     objecttolerance="10"
     gridtolerance="10"
     guidetolerance="10"
     inkscape:pageopacity="0"
     inkscape:pageshadow="2"
     inkscape:window-width="1600"
     inkscape:window-height="842"
     id="namedview8"
     showgrid="true"
     inkscape:zoom="5.3823521"
     inkscape:cx="-5.9453561"
     inkscape:cy="16.81421"
     inkscape:window-x="0"
     inkscape:window-y="0"
     inkscape:window-maximized="1"
     inkscape:current-layer="svg6"
     inkscape:document-rotation="0"
     inkscape:showpageshadow="2"
     inkscape:pagecheckerboard="0"
     inkscape:deskcolor="#d1d1d1">
    <inkscape:grid
       type="xygrid"
       id="grid831"
       originx="0"
       originy="0"
       spacingy="1"
       spacingx="1"
       units="px" />
  </sodipodi:namedview>
  <title
     id="title2">uniE251</title>
  <path
     fill-rule="evenodd"
     clip-rule="evenodd"
     d="m 7.6000023,5.3999976 c 1.2149819,0 2.1999958,-0.9849659 2.1999958,-2.1999958 C 9.7999981,1.9849719 8.8149842,1 7.6000023,1 6.3849724,1 5.4000005,1.9849719 5.4000005,3.2000018 c 0,1.2150299 0.9849719,2.1999958 2.2000018,2.1999958 z m 0,8.8000014 c 1.2149819,0 2.1999958,-0.985014 2.1999958,-2.200002 0,-1.214982 -0.9850139,-2.1999958 -2.1999958,-2.1999958 -1.2150299,0 -2.2000018,0.9850138 -2.2000018,2.1999958 0,1.214988 0.9849719,2.200002 2.2000018,2.200002 z m 2.1999958,6.599999 C 9.7999981,22.014986 8.8149842,23 7.6000023,23 6.3849724,23 5.4000005,22.014986 5.4000005,20.799998 c 0,-1.214988 0.9849719,-2.200002 2.2000018,-2.200002 1.2149819,0 2.1999958,0.985014 2.1999958,2.200002 z M 16.399998,5.3999976 c 1.214987,0 2.200001,-0.9849659 2.200001,-2.1999958 C 18.599999,1.9849719 17.614985,1 16.399998,1 c -1.214982,0 -2.199996,0.9849719 -2.199996,2.2000018 0,1.2150299 0.985014,2.1999958 2.199996,2.1999958 z m 2.200001,6.5999994 c 0,1.214988 -0.985014,2.200002 -2.200001,2.200002 -1.214982,0 -2.199996,-0.985014 -2.199996,-2.200002 0,-1.214982 0.985014,-2.1999958 2.199996,-2.1999958 1.214987,0 2.200001,0.9850138 2.200001,2.1999958 z M 16.399998,23 c 1.214987,0 2.200001,-0.985014 2.200001,-2.200002 0,-1.214988 -0.985014,-2.200002 -2.200001,-2.200002 -1.214982,0 -2.199996,0.985014 -2.199996,2.200002 0,1.214988 0.985014,2.200002 2.199996,2.200002 z"
     fill="#121923"
     id="path1"
     style="stroke-width:1.46666" />
</svg>
