<?xml version="1.0" encoding="UTF-8" standalone="no"?>
<svg
   width="24"
   height="24"
   version="1.1"
   id="svg1"
   sodipodi:docname="epsilon.svg"
   inkscape:version="1.4.3 (0d15f75042, 2025-12-25)"
   xmlns:inkscape="http://www.inkscape.org/namespaces/inkscape"
   xmlns:sodipodi="http://sodipodi.sourceforge.net/DTD/sodipodi-0.dtd"
   xmlns="http://www.w3.org/2000/svg"
   xmlns:svg="http://www.w3.org/2000/svg">
  <defs
     id="defs1" />
  <sodipodi:namedview
     id="namedview1"
     pagecolor="#ffffff"
     bordercolor="#666666"
     borderopacity="1.0"
     inkscape:showpageshadow="2"
     inkscape:pageopacity="0.0"
     inkscape:pagecheckerboard="0"
     inkscape:deskcolor="#d1d1d1"
     inkscape:zoom="12.346084"
     inkscape:cx="22.719754"
     inkscape:cy="26.769621"
     inkscape:window-width="1920"
     inkscape:window-height="1052"
     inkscape:window-x="0"
     inkscape:window-y="0"
     inkscape:window-maximized="1"
     inkscape:current-layer="svg1" />
  <path
     d="m 9.5441108,11.490077 q -3.651853,-1.297627 -3.651853,-3.9298875 0,-2.0761999 1.9279291,-3.3181907 Q 9.7666152,3 12.639896,3 q 2.613753,0 4.152293,0.8712646 1.538638,0.8527247 1.538638,2.0576927 0,0.6302695 -0.482269,1.1122354 -0.48172,0.4634177 -1.112235,0.4634177 -1.038099,0 -1.705522,-1.4458896 -0.926861,-2.0020645 -2.78063,-2.0020645 -1.464405,0 -2.4098541,0.96394 -0.945441,0.9639319 -0.945441,2.6878967 0,3.392326 3.5035831,3.392326 0.370677,0 0.852725,-0.07412 0.834233,-0.111134 1.297618,-0.111134 1.130743,0 1.130743,0.648802 0,0.722961 -1.149349,0.722961 -0.407692,0 -1.22349,-0.12978 -0.611763,-0.111133 -0.945433,-0.111133 -3.7074823,0 -3.7074823,3.781609 0,1.83518 0.9825046,2.966029 0.9825047,1.112227 2.7435177,1.112227 2.205955,0 2.928908,-2.280092 0.370675,-1.204975 0.815611,-1.668402 0.463475,-0.463417 1.223484,-0.463417 0.630261,0 1.130742,0.463417 0.5193,0.444887 0.5193,1.149357 0,1.68691 -1.890809,2.799137 Q 15.216241,21 12.528254,21 9.5808389,21 7.2822329,19.591125 5.0021422,18.182249 5.0021422,15.828016 q 0,-2.947407 4.5416822,-4.337775 z"
     id="path1"
     style="stroke-width:0.100048" />
</svg>
