<?xml version="1.0" encoding="UTF-8" standalone="no"?>
<!-- Generator: Adobe Illustrator 16.0.0, SVG Export Plug-In . SVG Version: 6.00 Build 0)  -->

<svg
   version="1.1"
   id="Capa_1"
   x="0px"
   y="0px"
   width="24"
   height="24"
   viewBox="0 0 24 24"
   xml:space="preserve"
   sodipodi:docname="eye-slash.svg"
   inkscape:version="1.4.2 (ebf0e940d0, 2025-05-08)"
   xmlns:inkscape="http://www.inkscape.org/namespaces/inkscape"
   xmlns:sodipodi="http://sodipodi.sourceforge.net/DTD/sodipodi-0.dtd"
   xmlns="http://www.w3.org/2000/svg"
   xmlns:svg="http://www.w3.org/2000/svg"
   xmlns:rdf="http://www.w3.org/1999/02/22-rdf-syntax-ns#"
   xmlns:cc="http://creativecommons.org/ns#"
   xmlns:dc="http://purl.org/dc/elements/1.1/"><metadata
   id="metadata47"><rdf:RDF><cc:Work
       rdf:about=""><dc:format>image/svg+xml</dc:format><dc:type
         rdf:resource="http://purl.org/dc/dcmitype/StillImage" /></cc:Work></rdf:RDF></metadata><defs
   id="defs45" /><sodipodi:namedview
   pagecolor="#ffffff"
   bordercolor="#666666"
   borderopacity="1"
   objecttolerance="10"
   gridtolerance="10"
   guidetolerance="10"
   inkscape:pageopacity="0"
   inkscape:pageshadow="2"
   inkscape:window-width="1920"
   inkscape:window-height="1172"
   id="namedview43"
   showgrid="true"
   inkscape:zoom="30.603581"
   inkscape:cx="12.759945"
   inkscape:cy="13.315435"
   inkscape:window-x="0"
   inkscape:window-y="0"
   inkscape:window-maximized="1"
   inkscape:current-layer="g8"
   inkscape:showpageshadow="2"
   inkscape:pagecheckerboard="0"
   inkscape:deskcolor="#d1d1d1"><inkscape:grid
     id="grid1"
     units="px"
     originx="0"
     originy="0"
     spacingx="1"
     spacingy="1"
     empcolor="#0099e5"
     empopacity="0.30196078"
     color="#0099e5"
     opacity="0.14901961"
     empspacing="5"
     enabled="true"
     visible="true" /></sodipodi:namedview>
<g
   id="g10"
   transform="matrix(0.04424334,0,0,0.04424334,1.1456098,0.91230727)">
	<g
   id="g8">
		<path
   d="m 264.45888,248.625 a 19.125,19.125 0 0 1 -19.125,19.125 19.125,19.125 0 0 1 -19.125,-19.125 19.125,19.125 0 0 1 19.125,-19.125 19.125,19.125 0 0 1 19.125,19.125 z"
   id="circle2" />
		<path
   d="m 245.33388,172.125 c -42.075,0 -76.5,34.425 -76.5,76.5 0,42.075 34.425,76.5 76.5,76.5 42.075,0 76.5,-34.425 76.5,-76.5 0,-42.075 -34.425,-76.5 -76.5,-76.5 z m 0,133.875 c -32.513,0 -57.375,-24.862 -57.375,-57.375 0,-32.513 24.862,-57.375 57.375,-57.375 32.513,0 57.375,24.862 57.375,57.375 0,32.513 -24.862,57.375 -57.375,57.375 z"
   id="path4"
   inkscape:connector-curvature="0" />
		<path
   id="path6"
   d="M 471.93048 1.9820549 A 22.602272 22.602272 0 0 0 466.05919 2.6000858 A 22.602272 22.602272 0 0 0 455.77339 8.2065087 L 347.30897 111.24108 C 316.97091 99.588181 282.89825 92.126272 245.33388 92.126272 C 73.208879 92.126272 -25.893384 248.62052 -25.893384 248.62052 C -25.893384 248.62052 14.167601 311.89415 87.603571 357.96784 L 3.7279526 437.64967 A 22.602272 22.602272 0 0 0 2.9333415 469.6107 A 22.602272 22.602272 0 0 0 34.894367 470.40531 L 129.67382 380.34938 C 163.32244 395.17836 202.0213 405.11476 245.33388 405.11476 C 417.45888 405.11476 516.56114 248.62052 516.56114 248.62052 C 516.56114 248.62052 472.0872 178.43975 391.01258 132.07755 L 486.9398 40.962145 A 22.602272 22.602272 0 0 0 487.73442 9.0011198 A 22.602272 22.602272 0 0 0 471.93048 1.9820549 z M 245.33388 133.8875 C 270.63714 133.8875 293.74181 136.992 314.68577 142.23092 L 115.19423 331.74567 C 50.776781 297.77898 19.66432 248.62052 19.66432 248.62052 C 19.66432 248.62052 92.333879 133.8875 245.33388 133.8875 z M 362.53902 159.13848 C 435.70043 192.92371 471.00344 248.62052 471.00344 248.62052 C 471.00344 248.62052 398.33388 363.35353 245.33388 363.35353 C 213.79639 363.35353 185.66308 358.46918 160.88437 350.72805 L 362.53902 159.13848 z " />
	</g>
</g>
<g
   id="g12"
   transform="translate(0,-473.25)">
</g>
<g
   id="g14"
   transform="translate(0,-473.25)">
</g>
<g
   id="g16"
   transform="translate(0,-473.25)">
</g>
<g
   id="g18"
   transform="translate(0,-473.25)">
</g>
<g
   id="g20"
   transform="translate(0,-473.25)">
</g>
<g
   id="g22"
   transform="translate(0,-473.25)">
</g>
<g
   id="g24"
   transform="translate(0,-473.25)">
</g>
<g
   id="g26"
   transform="translate(0,-473.25)">
</g>
<g
   id="g28"
   transform="translate(0,-473.25)">
</g>
<g
   id="g30"
   transform="translate(0,-473.25)">
</g>
<g
   id="g32"
   transform="translate(0,-473.25)">
</g>
<g
   id="g34"
   transform="translate(0,-473.25)">
</g>
<g
   id="g36"
   transform="translate(0,-473.25)">
</g>
<g
   id="g38"
   transform="translate(0,-473.25)">
</g>
<g
   id="g40"
   transform="translate(0,-473.25)">
</g>
</svg>
