<?xml version="1.0" encoding="UTF-8" standalone="no"?>
<!-- Generator: Adobe Illustrator 16.0.0, SVG Export Plug-In . SVG Version: 6.00 Build 0)  -->

<svg
   version="1.1"
   id="Capa_1"
   x="0px"
   y="0px"
   width="24"
   height="24"
   viewBox="0 0 24 24"
   xml:space="preserve"
   sodipodi:docname="eye.svg"
   inkscape:version="1.2 (dc2aedaf03, 2022-05-15)"
   xmlns:inkscape="http://www.inkscape.org/namespaces/inkscape"
   xmlns:sodipodi="http://sodipodi.sourceforge.net/DTD/sodipodi-0.dtd"
   xmlns="http://www.w3.org/2000/svg"
   xmlns:svg="http://www.w3.org/2000/svg"
   xmlns:rdf="http://www.w3.org/1999/02/22-rdf-syntax-ns#"
   xmlns:cc="http://creativecommons.org/ns#"
   xmlns:dc="http://purl.org/dc/elements/1.1/"><metadata
   id="metadata47"><rdf:RDF><cc:Work
       rdf:about=""><dc:format>image/svg+xml</dc:format><dc:type
         rdf:resource="http://purl.org/dc/dcmitype/StillImage" /><dc:title /></cc:Work></rdf:RDF></metadata><defs
   id="defs45" /><sodipodi:namedview
   pagecolor="#ffffff"
   bordercolor="#666666"
   borderopacity="1"
   objecttolerance="10"
   gridtolerance="10"
   guidetolerance="10"
   inkscape:pageopacity="0"
   inkscape:pageshadow="2"
   inkscape:window-width="1920"
   inkscape:window-height="1051"
   id="namedview43"
   showgrid="false"
   inkscape:zoom="30.603581"
   inkscape:cx="12.743607"
   inkscape:cy="9.3943253"
   inkscape:window-x="1600"
   inkscape:window-y="0"
   inkscape:window-maximized="1"
   inkscape:current-layer="g8"
   inkscape:showpageshadow="2"
   inkscape:pagecheckerboard="0"
   inkscape:deskcolor="#d1d1d1" />
<g
   id="g10"
   transform="matrix(0.04424334,0,0,0.04424334,1.1456098,0.91230727)">
	<g
   id="g8">
		<path
   d="m 264.45888,248.625 a 19.125,19.125 0 0 1 -19.125,19.125 19.125,19.125 0 0 1 -19.125,-19.125 19.125,19.125 0 0 1 19.125,-19.125 19.125,19.125 0 0 1 19.125,19.125 z"
   id="circle2" />
		<path
   d="m 245.33388,172.125 c -42.075,0 -76.5,34.425 -76.5,76.5 0,42.075 34.425,76.5 76.5,76.5 42.075,0 76.5,-34.425 76.5,-76.5 0,-42.075 -34.425,-76.5 -76.5,-76.5 z m 0,133.875 c -32.513,0 -57.375,-24.862 -57.375,-57.375 0,-32.513 24.862,-57.375 57.375,-57.375 32.513,0 57.375,24.862 57.375,57.375 0,32.513 -24.862,57.375 -57.375,57.375 z"
   id="path4"
   inkscape:connector-curvature="0" />
		<path
   d="m 245.32507,92.142517 c -172.125,0 -271.218452,156.482483 -271.218452,156.482483 0,0 99.093452,156.46857 271.218452,156.46857 172.125,0 271.23607,-156.46857 271.23607,-156.46857 0,0 -99.11107,-156.482483 -271.23607,-156.482483 z m 0,271.232483 c -153,0 -225.675,-114.75 -225.675,-114.75 0,0 72.675,-114.75 225.675,-114.75 153,0 225.675,114.75 225.675,114.75 0,0 -72.675,114.75 -225.675,114.75 z"
   id="path6"
   inkscape:connector-curvature="0"
   sodipodi:nodetypes="scscsscscs" />
	</g>
</g>
<g
   id="g12"
   transform="translate(0,-473.25)">
</g>
<g
   id="g14"
   transform="translate(0,-473.25)">
</g>
<g
   id="g16"
   transform="translate(0,-473.25)">
</g>
<g
   id="g18"
   transform="translate(0,-473.25)">
</g>
<g
   id="g20"
   transform="translate(0,-473.25)">
</g>
<g
   id="g22"
   transform="translate(0,-473.25)">
</g>
<g
   id="g24"
   transform="translate(0,-473.25)">
</g>
<g
   id="g26"
   transform="translate(0,-473.25)">
</g>
<g
   id="g28"
   transform="translate(0,-473.25)">
</g>
<g
   id="g30"
   transform="translate(0,-473.25)">
</g>
<g
   id="g32"
   transform="translate(0,-473.25)">
</g>
<g
   id="g34"
   transform="translate(0,-473.25)">
</g>
<g
   id="g36"
   transform="translate(0,-473.25)">
</g>
<g
   id="g38"
   transform="translate(0,-473.25)">
</g>
<g
   id="g40"
   transform="translate(0,-473.25)">
</g>
</svg>
