<?xml version="1.0" encoding="UTF-8" standalone="no"?>
<!-- Svg Vector Icons : http://www.onlinewebfonts.com/icon -->

<svg
   version="1.1"
   x="0px"
   y="0px"
   viewBox="0 0 24 24"
   enable-background="new 0 0 1000 1000"
   xml:space="preserve"
   id="svg647"
   sodipodi:docname="fill.svg"
   width="24"
   height="24"
   inkscape:version="1.2.2 (b0a8486541, 2022-12-01)"
   xmlns:inkscape="http://www.inkscape.org/namespaces/inkscape"
   xmlns:sodipodi="http://sodipodi.sourceforge.net/DTD/sodipodi-0.dtd"
   xmlns="http://www.w3.org/2000/svg"
   xmlns:svg="http://www.w3.org/2000/svg"><defs
   id="defs651" /><sodipodi:namedview
   id="namedview649"
   pagecolor="#ffffff"
   bordercolor="#666666"
   borderopacity="1.0"
   inkscape:showpageshadow="2"
   inkscape:pageopacity="0.0"
   inkscape:pagecheckerboard="0"
   inkscape:deskcolor="#d1d1d1"
   showgrid="false"
   inkscape:zoom="4.0955625"
   inkscape:cx="35.648339"
   inkscape:cy="50.908758"
   inkscape:window-width="1920"
   inkscape:window-height="1163"
   inkscape:window-x="1600"
   inkscape:window-y="0"
   inkscape:window-maximized="1"
   inkscape:current-layer="g613" />
<metadata
   id="metadata609"> Svg Vector Icons : http://www.onlinewebfonts.com/icon </metadata>
<g
   id="g645"><g
     id="g613"><path
       d="M 16.714318,8.564235 11.429907,3.228192 10.666653,2.438 8.8617816,4.211443 c -3.084444,-0.439993 -5.302369,0.693663 -6.088072,2.089968 -0.954068,1.694873 0.0202,3.542396 0.05163,3.600763 0.814886,1.627527 1.986705,2.604043 3.481784,2.907099 0.32775,0.0651 0.657746,0.09429 0.987741,0.09429 1.553446,0 3.1091374,-0.65999 4.2899364,-1.33345 0.31877,0.219997 0.707132,0.352444 1.122432,0.352444 1.093249,0 1.982215,-0.89121 1.982215,-1.98895 0,-1.095493 -0.888966,-1.986705 -1.982215,-1.986705 -1.093249,0 -1.982215,0.891212 -1.982215,1.986705 0,0.109998 0.01571,0.215507 0.03143,0.321016 -1.1897784,0.675704 -2.7589394,1.311001 -4.1485104,1.032637 -1.016923,-0.206527 -1.802625,-0.884476 -2.410984,-2.101193 -0.0067,-0.01122 -0.606114,-1.178553 -0.07633,-2.119151 0.446728,-0.794683 1.611813,-1.306512 3.389746,-1.49957 l -0.276118,0.278363 -2.554656,2.56139 c 0.02694,0.06286 0.04714,0.10102 0.04714,0.103265 0.244691,0.491625 0.523053,0.89121 0.830599,1.209981 L 10.181756,5.0847 c 0.219997,-0.219997 0.51183,-0.341219 0.821621,-0.341219 0.309791,0 0.603869,0.121222 0.82162,0.341219 l 5.609916,5.627875 c 0.453463,0.453463 0.453463,1.192023 0,1.645486 l -7.295809,7.311523 c -0.4377484,0.437749 -1.2032484,0.437749 -1.6409964,0 l -5.609916,-5.627875 c -0.219996,-0.217751 -0.338975,-0.509584 -0.338975,-0.821621 0,-0.30979 0.118979,-0.603868 0.338975,-0.823865 l 0.606113,-0.608358 c -0.343458,-0.354693 -0.651005,-0.781218 -0.924878,-1.268353 l -0.776723,0.778968 c -0.509584,0.514074 -0.792437,1.196513 -0.792437,1.921603 0,0.725092 0.282853,1.407531 0.792437,1.91936 l 5.609917,5.627875 c 0.511828,0.511829 1.189778,0.794682 1.914869,0.794682 0.7228464,0 1.4030404,-0.282853 1.9148694,-0.794682 l 7.289075,-7.313768 1.528753,-1.519773 -0.42428,-0.42877 c 0.803662,-0.437748 1.160595,3.225871 1.160595,3.225871 0,0 1.122433,8.745992 2.119153,0 0.951821,-8.368855 -5.618896,-6.355212 -6.191337,-6.166643 z"
       id="path611"
       style="stroke-width:0.0224487" /></g><g
     id="g615" /><g
     id="g617" /><g
     id="g619" /><g
     id="g621" /><g
     id="g623" /><g
     id="g625" /><g
     id="g627" /><g
     id="g629" /><g
     id="g631" /><g
     id="g633" /><g
     id="g635" /><g
     id="g637" /><g
     id="g639" /><g
     id="g641" /><g
     id="g643" /></g>
</svg>
