<?xml version="1.0" encoding="UTF-8" standalone="no"?>
<!-- Generated by IcoMoon.io -->

<svg
   version="1.1"
   width="24"
   height="24"
   viewBox="0 0 24 24"
   id="svg6"
   sodipodi:docname="import.svg"
   inkscape:version="1.2.2 (b0a8486541, 2022-12-01)"
   xmlns:inkscape="http://www.inkscape.org/namespaces/inkscape"
   xmlns:sodipodi="http://sodipodi.sourceforge.net/DTD/sodipodi-0.dtd"
   xmlns="http://www.w3.org/2000/svg"
   xmlns:svg="http://www.w3.org/2000/svg"
   xmlns:rdf="http://www.w3.org/1999/02/22-rdf-syntax-ns#"
   xmlns:cc="http://creativecommons.org/ns#"
   xmlns:dc="http://purl.org/dc/elements/1.1/">
  <metadata
     id="metadata12">
    <rdf:RDF>
      <cc:Work
         rdf:about="">
        <dc:format>image/svg+xml</dc:format>
        <dc:type
           rdf:resource="http://purl.org/dc/dcmitype/StillImage" />
        <dc:title>uniE170</dc:title>
      </cc:Work>
    </rdf:RDF>
  </metadata>
  <defs
     id="defs10" />
  <sodipodi:namedview
     pagecolor="#ffffff"
     bordercolor="#666666"
     borderopacity="1"
     objecttolerance="10"
     gridtolerance="10"
     guidetolerance="10"
     inkscape:pageopacity="0"
     inkscape:pageshadow="2"
     inkscape:window-width="1920"
     inkscape:window-height="1051"
     id="namedview8"
     showgrid="true"
     inkscape:zoom="20.85965"
     inkscape:cx="12.656013"
     inkscape:cy="15.939865"
     inkscape:window-x="1600"
     inkscape:window-y="0"
     inkscape:window-maximized="1"
     inkscape:current-layer="svg6"
     inkscape:showpageshadow="2"
     inkscape:pagecheckerboard="0"
     inkscape:deskcolor="#d1d1d1" />
  <title
     id="title2">uniE170</title>
  <path
     id="path4"
     style="stroke-width:0.7"
     d="M 16.833984 0.79882812 C 16.572651 0.79882813 16.348775 0.88648007 16.162109 1.0605469 L 14.742188 2.4980469 L 18.701172 6.4550781 L 20.138672 5.0175781 C 20.312742 4.8435113 20.398438 4.6265671 20.398438 4.3652344 C 20.398438 4.1039016 20.312739 3.8850043 20.138672 3.7109375 L 17.486328 1.0605469 C 17.312261 0.88647707 17.095317 0.79882812 16.833984 0.79882812 z M 6.15625 2.7246094 C 6.1208709 2.7230631 6.0873542 2.7277519 6.0546875 2.7402344 C 5.9240176 2.7901673 5.8574219 2.9456985 5.8574219 3.2070312 L 5.8769531 14.351562 C 5.8769531 14.613362 5.9695831 14.833539 6.15625 15.013672 C 6.3429168 15.193805 6.5618141 15.290134 6.8105469 15.302734 L 17.990234 15.339844 C 18.252034 15.339844 18.407561 15.275198 18.457031 15.144531 C 18.506498 15.013864 18.44555 14.861567 18.271484 14.6875 L 14.351562 10.767578 L 17.244141 7.8925781 L 13.287109 3.9355469 L 10.394531 6.8105469 L 6.5117188 2.9277344 C 6.3811686 2.796837 6.2623874 2.7292481 6.15625 2.7246094 z M 2.6660156 17.599609 C 2.4055561 17.60007 2.1840446 17.690955 2.0039062 17.871094 C 1.8233064 18.051694 1.734375 18.27187 1.734375 18.533203 L 1.734375 23.201172 L 22.265625 23.201172 L 22.265625 18.533203 C 22.265625 18.27187 22.176694 18.051694 21.996094 17.871094 C 21.815494 17.690494 21.593364 17.599609 21.332031 17.599609 L 2.6679688 17.599609 L 2.6660156 17.599609 z M 18.533203 19.466797 L 20.400391 19.466797 L 20.400391 20.400391 L 18.533203 20.400391 L 18.533203 19.466797 z " />
</svg>
