<?xml version="1.0" encoding="UTF-8" standalone="no"?>
<svg
   height="24"
   version="1.1"
   viewBox="0 0 24 24"
   width="24"
   id="svg1"
   sodipodi:docname="measureobj.svg"
   inkscape:version="1.4.3 (0d15f75042, 2025-12-25)"
   xmlns:inkscape="http://www.inkscape.org/namespaces/inkscape"
   xmlns:sodipodi="http://sodipodi.sourceforge.net/DTD/sodipodi-0.dtd"
   xmlns="http://www.w3.org/2000/svg"
   xmlns:svg="http://www.w3.org/2000/svg">
  <defs
     id="defs1" />
  <sodipodi:namedview
     id="namedview1"
     pagecolor="#ffffff"
     bordercolor="#666666"
     borderopacity="1.0"
     inkscape:showpageshadow="2"
     inkscape:pageopacity="0.0"
     inkscape:pagecheckerboard="0"
     inkscape:deskcolor="#d1d1d1"
     inkscape:zoom="31.103823"
     inkscape:cx="10.33635"
     inkscape:cy="17.955992"
     inkscape:window-width="1920"
     inkscape:window-height="1172"
     inkscape:window-x="0"
     inkscape:window-y="0"
     inkscape:window-maximized="1"
     inkscape:current-layer="layer1"
     showgrid="true">
    <inkscape:grid
       id="grid1"
       units="px"
       originx="0"
       originy="0"
       spacingx="1"
       spacingy="1"
       empcolor="#0099e5"
       empopacity="0.30196078"
       color="#0099e5"
       opacity="0.14901961"
       empspacing="5"
       enabled="true"
       visible="true" />
  </sodipodi:namedview>
  <g
     id="layer1"
     transform="matrix(1.1764703,0,0,1.1764703,0.23529702,0.23545728)">
    <path
       id="path1"
       style="baseline-shift:baseline;display:inline;overflow:visible;vector-effect:none;stroke-linejoin:round;enable-background:accumulate;stop-color:#000000;stop-opacity:1;opacity:1"
       d="M 11.680079 0.22486137 A 0.42504251 0.42504251 0 0 0 11.457618 0.30122857 L 2.9675764 6.2445894 L 2.9576154 6.25123 A 0.42504251 0.42504251 0 0 0 2.942674 6.2628511 A 0.42504251 0.42504251 0 0 0 2.9127912 6.2877535 A 0.42504251 0.42504251 0 0 0 2.9028303 6.2977144 A 0.42504251 0.42504251 0 0 0 2.8729475 6.3309176 A 0.42504251 0.42504251 0 0 0 2.8646467 6.3425386 A 0.42504251 0.42504251 0 0 0 2.8380842 6.3774019 A 0.42504251 0.42504251 0 0 0 2.8165021 6.4189059 A 0.42504251 0.42504251 0 0 0 2.8131818 6.4272066 A 0.42504251 0.42504251 0 0 0 2.8032209 6.4487887 A 0.42504251 0.42504251 0 0 0 2.7899396 6.4886324 A 0.42504251 0.42504251 0 0 0 2.7799787 6.5400973 A 0.42504251 0.42504251 0 0 0 2.7766584 6.5882418 A 0.42504251 0.42504251 0 0 0 2.7749982 6.5998629 A 0.42504251 0.42504251 0 0 0 2.7749982 6.6048434 L 2.7749982 14.249865 A 0.42504251 0.42504251 0 0 0 2.9874983 14.61842 L 8.9225583 18.01012 L 8.9391599 18.020081 A 0.42504251 0.42504251 0 0 0 8.9491208 18.025061 A 0.42504251 0.42504251 0 0 0 8.9922849 18.044983 A 0.42504251 0.42504251 0 0 0 9.0470701 18.063245 A 0.42504251 0.42504251 0 0 0 9.0520505 18.063245 A 0.42504251 0.42504251 0 0 0 9.0985349 18.071545 A 0.42504251 0.42504251 0 0 0 9.1068357 18.073206 A 0.42504251 0.42504251 0 0 0 9.1167966 18.073206 A 0.42504251 0.42504251 0 0 0 9.1483396 18.074866 A 0.42504251 0.42504251 0 0 0 9.1782224 18.073206 A 0.42504251 0.42504251 0 0 0 9.1881834 18.073206 A 0.42504251 0.42504251 0 0 0 9.2097654 18.069885 A 0.42504251 0.42504251 0 0 0 9.2247068 18.068225 A 0.42504251 0.42504251 0 0 0 9.2296873 18.066565 A 0.42504251 0.42504251 0 0 0 9.2828123 18.053284 A 0.42504251 0.42504251 0 0 0 9.3292967 18.035022 A 0.42504251 0.42504251 0 0 0 9.3375975 18.031702 A 0.42504251 0.42504251 0 0 0 9.3475584 18.026721 A 0.42504251 0.42504251 0 0 0 9.3874022 18.001819 A 0.42504251 0.42504251 0 0 0 9.3940428 17.998499 L 17.894045 12.048497 A 0.42504251 0.42504251 0 0 0 18.075002 11.699864 L 18.075002 4.0814053 A 0.42504251 0.42504251 0 0 0 18.016896 3.8373623 A 0.42504251 0.42504251 0 0 0 17.993654 3.8008388 A 0.42504251 0.42504251 0 0 0 17.991994 3.7991786 A 0.42504251 0.42504251 0 0 0 17.972072 3.7759365 A 0.42504251 0.42504251 0 0 0 17.94883 3.7493739 A 0.42504251 0.42504251 0 0 0 17.910646 3.7145107 A 0.42504251 0.42504251 0 0 0 17.907326 3.7128505 A 0.42504251 0.42504251 0 0 0 17.859182 3.6796474 A 0.42504251 0.42504251 0 0 0 17.852541 3.6763271 L 11.91084 0.28130669 A 0.42504251 0.42504251 0 0 0 11.680079 0.22486137 z M 11.723243 1.1528889 L 16.856447 4.0863858 L 9.1267576 9.4984965 L 3.991893 6.5616793 L 11.723243 1.1528889 z M 17.225002 4.8666594 L 17.225002 11.479063 L 9.5749999 16.834729 L 9.5749999 10.220665 L 17.225002 4.8666594 z M 0.35116949 6.5998629 L 0.35116949 14.249865 L 0.94716573 14.249865 L 0.94716573 6.5998629 L 0.35116949 6.5998629 z M 3.6249984 7.331992 L 8.7249997 10.245567 L 8.7249997 16.917737 L 3.6249984 14.004162 L 3.6249984 7.331992 z M 18.742385 13.401525 L 10.242383 19.353186 L 10.584375 19.839612 L 19.084377 13.891271 L 18.742385 13.401525 z M 2.4977521 15.946545 L 2.2039043 16.462854 L 8.1522456 19.862854 L 8.4477535 19.344886 L 2.4977521 15.946545 z " />
  </g>
</svg>
