<?xml version="1.0" encoding="UTF-8" standalone="no"?>
<!-- Created with Inkscape (http://www.inkscape.org/) -->

<svg
   width="24"
   height="24"
   viewBox="0 0 24.000015 24.000015"
   version="1.1"
   id="svg4492"
   inkscape:version="1.2.2 (b0a8486541, 2022-12-01)"
   sodipodi:docname="nodetool.svg"
   xmlns:inkscape="http://www.inkscape.org/namespaces/inkscape"
   xmlns:sodipodi="http://sodipodi.sourceforge.net/DTD/sodipodi-0.dtd"
   xmlns="http://www.w3.org/2000/svg"
   xmlns:svg="http://www.w3.org/2000/svg"
   xmlns:rdf="http://www.w3.org/1999/02/22-rdf-syntax-ns#"
   xmlns:cc="http://creativecommons.org/ns#"
   xmlns:dc="http://purl.org/dc/elements/1.1/">
  <defs
     id="defs4486" />
  <sodipodi:namedview
     id="base"
     pagecolor="#ffffff"
     bordercolor="#666666"
     borderopacity="1.0"
     inkscape:pageopacity="0.0"
     inkscape:pageshadow="2"
     inkscape:zoom="16"
     inkscape:cx="-1.3125"
     inkscape:cy="9.34375"
     inkscape:document-units="px"
     inkscape:current-layer="layer1"
     showgrid="true"
     units="px"
     inkscape:window-width="1920"
     inkscape:window-height="1171"
     inkscape:window-x="1600"
     inkscape:window-y="0"
     inkscape:window-maximized="1"
     inkscape:showpageshadow="2"
     inkscape:pagecheckerboard="0"
     inkscape:deskcolor="#d1d1d1">
    <inkscape:grid
       type="xygrid"
       id="grid4494" />
  </sodipodi:namedview>
  <metadata
     id="metadata4489">
    <rdf:RDF>
      <cc:Work
         rdf:about="">
        <dc:format>image/svg+xml</dc:format>
        <dc:type
           rdf:resource="http://purl.org/dc/dcmitype/StillImage" />
      </cc:Work>
    </rdf:RDF>
  </metadata>
  <g
     inkscape:label="Layer 1"
     inkscape:groupmode="layer"
     id="layer1"
     transform="translate(0,-290.64998)">
    <path
       id="path4513"
       style="color:#000000;font-style:normal;font-variant:normal;font-weight:normal;font-stretch:normal;font-size:medium;line-height:normal;font-family:sans-serif;font-variant-ligatures:normal;font-variant-position:normal;font-variant-caps:normal;font-variant-numeric:normal;font-variant-alternates:normal;font-feature-settings:normal;text-indent:0;text-align:start;text-decoration:none;text-decoration-line:none;text-decoration-style:solid;text-decoration-color:#000000;letter-spacing:normal;word-spacing:normal;text-transform:none;writing-mode:lr-tb;direction:ltr;text-orientation:mixed;dominant-baseline:auto;baseline-shift:baseline;text-anchor:start;white-space:normal;shape-padding:0;clip-rule:nonzero;display:inline;overflow:visible;visibility:visible;opacity:1;isolation:auto;mix-blend-mode:normal;color-interpolation:sRGB;color-interpolation-filters:linearRGB;solid-color:#000000;solid-opacity:1;vector-effect:none;fill:#000000;fill-opacity:1;fill-rule:evenodd;stroke:none;stroke-width:1.82302px;stroke-linecap:butt;stroke-linejoin:round;stroke-miterlimit:4;stroke-dasharray:none;stroke-dashoffset:0;stroke-opacity:1;color-rendering:auto;image-rendering:auto;shape-rendering:auto;text-rendering:auto;enable-background:accumulate"
       d="M 3 291.64998 L 3 297.64998 L 6.1230469 297.64998 L 6.9179688 310.90975 A 0.91160022 0.91160022 0 0 0 8.5097656 311.46053 L 11.257812 308.35701 L 14.044922 313.19295 A 0.91160022 0.91160022 0 0 0 15.291016 313.52693 L 16.771484 312.67146 L 18.251953 311.81404 A 0.91160022 0.91160022 0 0 0 18.585938 310.5699 L 15.796875 305.73201 L 19.857422 304.89803 A 0.91160022 0.91160022 0 0 0 20.175781 303.24373 L 9 295.85115 L 9 291.64998 L 3 291.64998 z M 4 292.64998 L 8 292.64998 L 8 295.18904 L 7.4160156 294.80232 A 0.91160022 0.91160022 0 0 0 6.8964844 294.64998 A 0.91160022 0.91160022 0 0 0 6.0019531 295.61678 L 6.0644531 296.64998 L 4 296.64998 L 4 292.64998 z M 7.9492188 297.64998 L 8.4160156 297.64998 L 17.339844 303.55428 L 14.193359 304.19881 A 0.91160022 0.91160022 0 0 0 13.585938 305.54646 L 16.552734 310.691 L 15.857422 311.09139 L 15.169922 311.49178 L 12.205078 306.3492 A 0.91160022 0.91160022 0 0 0 10.732422 306.19881 L 8.6074219 308.60115 L 7.9492188 297.64998 z " />
  </g>
</svg>
