<?xml version="1.0" encoding="UTF-8" standalone="no"?>
<!-- Generated by IcoMoon.io -->

<svg
   version="1.1"
   width="24"
   height="24"
   viewBox="0 0 24 24"
   id="svg6"
   sodipodi:docname="numericinput.svg"
   inkscape:version="1.2.2 (b0a8486541, 2022-12-01)"
   xmlns:inkscape="http://www.inkscape.org/namespaces/inkscape"
   xmlns:sodipodi="http://sodipodi.sourceforge.net/DTD/sodipodi-0.dtd"
   xmlns="http://www.w3.org/2000/svg"
   xmlns:svg="http://www.w3.org/2000/svg"
   xmlns:rdf="http://www.w3.org/1999/02/22-rdf-syntax-ns#"
   xmlns:cc="http://creativecommons.org/ns#"
   xmlns:dc="http://purl.org/dc/elements/1.1/">
  <metadata
     id="metadata12">
    <rdf:RDF>
      <cc:Work
         rdf:about="">
        <dc:format>image/svg+xml</dc:format>
        <dc:type
           rdf:resource="http://purl.org/dc/dcmitype/StillImage" />
        <dc:title>uniE019</dc:title>
      </cc:Work>
    </rdf:RDF>
  </metadata>
  <defs
     id="defs10" />
  <sodipodi:namedview
     pagecolor="#ffffff"
     bordercolor="#666666"
     borderopacity="1"
     objecttolerance="10"
     gridtolerance="10"
     guidetolerance="10"
     inkscape:pageopacity="0"
     inkscape:pageshadow="2"
     inkscape:window-width="1600"
     inkscape:window-height="841"
     id="namedview8"
     showgrid="true"
     inkscape:zoom="20.85965"
     inkscape:cx="2.7804877"
     inkscape:cy="12.152649"
     inkscape:window-x="0"
     inkscape:window-y="0"
     inkscape:window-maximized="1"
     inkscape:current-layer="svg6"
     inkscape:showpageshadow="2"
     inkscape:pagecheckerboard="0"
     inkscape:deskcolor="#d1d1d1">
    <inkscape:grid
       type="xygrid"
       id="grid289" />
  </sodipodi:namedview>
  <title
     id="title2">uniE019</title>
  <path
     id="rect343"
     style="color:#000000;fill:#000000;-inkscape-stroke:none"
     d="M 0 0 L 0 1 L 0 11 L 24 11 L 24 0 L 0 0 z M 1 1 L 23 1 L 23 10 L 1 10 L 1 1 z M 8.8261719 2.1660156 L 10.929688 5.015625 L 8.7207031 8 L 10.695312 8 L 11.992188 6.15625 L 13.304688 8 L 15.279297 8 L 13.070312 5.0058594 L 15.173828 2.1660156 L 13.201172 2.1660156 L 11.992188 3.8964844 L 10.798828 2.1660156 L 8.8261719 2.1660156 z M 0 13 L 0 14 L 0 24 L 24 24 L 24 13 L 0 13 z M 1 14 L 23 14 L 23 23 L 1 23 L 1 14 z M 8.6855469 14.166016 L 11.283203 20.224609 L 11.232422 20.384766 C 11.152561 20.645183 11.038412 20.82704 10.892578 20.927734 C 10.750217 21.028429 10.521051 21.078125 10.205078 21.078125 L 9.6230469 21.078125 L 9.6230469 22.302734 L 10.701172 22.302734 C 11.239367 22.302734 11.671657 22.172527 11.998047 21.912109 C 12.327909 21.655164 12.6148 21.202041 12.861328 20.552734 L 15.314453 14.166016 L 13.451172 14.166016 L 12.117188 18.125 L 10.548828 14.166016 L 8.6855469 14.166016 z " />
  <g
     aria-label="x"
     id="text1391"
     style="font-size:8px" />
  <g
     aria-label="y"
     id="text1391-6"
     style="font-size:8px" />
  <g
     aria-label="y"
     id="text442"
     style="font-size:8px;line-height:1.25" />
  <g
     aria-label="y"
     id="text443"
     style="font-size:10.6667px;line-height:1.25" />
  <g
     aria-label="x"
     id="text443-3"
     style="font-size:10.6667px;line-height:1.25" />
</svg>
