<?xml version="1.0" encoding="UTF-8" standalone="no"?>
<svg
   width="24"
   height="24"
   version="1.1"
   id="svg1"
   sodipodi:docname="oblique.svg"
   inkscape:version="1.4.2 (ebf0e940d0, 2025-05-08)"
   xmlns:inkscape="http://www.inkscape.org/namespaces/inkscape"
   xmlns:sodipodi="http://sodipodi.sourceforge.net/DTD/sodipodi-0.dtd"
   xmlns="http://www.w3.org/2000/svg"
   xmlns:svg="http://www.w3.org/2000/svg">
  <defs
     id="defs1">
    <inkscape:path-effect
       effect="perspective-envelope"
       up_left_point="31.84,8.235"
       up_right_point="118.21,8.235"
       down_left_point="6.84,117.332"
       down_right_point="143.209,117.332"
       id="path-effect1"
       is_visible="true"
       lpeversion="1"
       deform_type="perspective"
       horizontal_mirror="false"
       vertical_mirror="false"
       overflow_perspective="false" />
  </defs>
  <sodipodi:namedview
     id="namedview1"
     pagecolor="#ffffff"
     bordercolor="#666666"
     borderopacity="1.0"
     inkscape:showpageshadow="2"
     inkscape:pageopacity="0.0"
     inkscape:pagecheckerboard="0"
     inkscape:deskcolor="#d1d1d1"
     inkscape:zoom="3.59479"
     inkscape:cx="50.211556"
     inkscape:cy="55.775164"
     inkscape:window-width="1600"
     inkscape:window-height="842"
     inkscape:window-x="0"
     inkscape:window-y="0"
     inkscape:window-maximized="1"
     inkscape:current-layer="svg1" />
  <path
     d="m 139.33138,100.40986 c 2.07628,9.061 -1.23538,16.92214 -7.48538,16.92214 H 18.203 c -6.25,0 -9.5619324,-7.85964 -7.485227,-16.92214 L 30.125343,15.717557 C 31.084946,11.529963 35.078345,8.235 39.036814,8.235 h 71.976376 c 3.95847,0 7.95183,3.294963 8.9114,7.482557 z M 37.902612,14.17429 c -0.788552,0 -1.627148,0.722405 -1.790034,1.542582 L 19.292985,100.40846 c -0.338692,1.70541 0.375285,3.22606 1.525768,3.22606 H 129.23037 c 1.14762,0 1.86732,-1.52065 1.52863,-3.22606 L 113.93933,15.716872 c -0.16289,-0.820177 -1.00606,-1.542582 -1.792,-1.542582 z m 9.9385,28.041591 c -5.628345,0 -9.313113,-5.26189 -8.279299,-11.413497 0.976861,-5.812713 5.854252,-10.301547 10.933143,-10.301547 5.076868,0 8.852895,4.488834 8.40881,10.301547 -0.469976,6.151607 -5.435804,11.413497 -11.062654,11.413497 z M 120.62564,91.150498 H 29.419956 L 32.243929,74.346727 53.872491,50.541182 62.079678,61.858035 89.407567,29.014214 114.54115,54.940506 Z"
     id="path1"
     inkscape:path-effect="#path-effect1"
     inkscape:original-d="m 143.209,105.968 c 0,6.25 -5.113,11.364 -11.363,11.364 H 18.203 c -6.25,0 -11.363,-5.113 -11.363,-11.364 v -86.37 c 0,-6.25 5.113,-11.363 11.363,-11.363 h 113.643 c 6.25,0 11.363,5.113 11.363,11.363 z M 18.203,17.326 c -1.207,0 -2.271,1.068 -2.271,2.271 v 86.37 c 0,1.207 1.065,2.271 2.271,2.271 h 113.643 c 1.203,0 2.274,-1.064 2.274,-2.271 v -86.37 c 0,-1.203 -1.071,-2.271 -2.274,-2.271 H 18.203 Z m 20.458,36.365 c -7.529,0 -13.641,-6.108 -13.641,-13.635 0,-7.527 6.112,-13.638 13.641,-13.638 7.526,0 13.632,6.111 13.632,13.638 0,7.527 -6.105,13.635 -13.632,13.635 z M 125.025,99.15 H 25.02 V 85.51 l 22.73,-22.724 11.363,11.36 36.365,-36.361 29.547,29.547 z"
     transform="matrix(0.16942427,0,0,0.16942427,-0.71096897,1.3629513)" />
</svg>
