<?xml version="1.0" encoding="UTF-8" standalone="no"?>
<svg
   sodipodi:docname="open.svg"
   inkscape:version="1.3.2 (091e20ef0f, 2023-11-25)"
   id="svg8"
   version="1.1"
   viewBox="0 0 24 24"
   height="24"
   width="24"
   xmlns:inkscape="http://www.inkscape.org/namespaces/inkscape"
   xmlns:sodipodi="http://sodipodi.sourceforge.net/DTD/sodipodi-0.dtd"
   xmlns="http://www.w3.org/2000/svg"
   xmlns:svg="http://www.w3.org/2000/svg"
   xmlns:rdf="http://www.w3.org/1999/02/22-rdf-syntax-ns#"
   xmlns:cc="http://creativecommons.org/ns#"
   xmlns:dc="http://purl.org/dc/elements/1.1/">
  <defs
     id="defs2" />
  <sodipodi:namedview
     inkscape:document-rotation="0"
     units="px"
     inkscape:snap-bbox-midpoints="true"
     inkscape:snap-bbox-edge-midpoints="true"
     inkscape:bbox-nodes="true"
     inkscape:bbox-paths="true"
     inkscape:snap-bbox="true"
     inkscape:window-maximized="1"
     inkscape:window-y="0"
     inkscape:window-x="0"
     inkscape:window-height="1172"
     inkscape:window-width="1920"
     showgrid="true"
     inkscape:current-layer="layer1"
     inkscape:document-units="px"
     inkscape:cy="15.915179"
     inkscape:cx="12.991071"
     inkscape:zoom="22.4"
     inkscape:pageshadow="2"
     inkscape:pageopacity="0.0"
     borderopacity="1.0"
     bordercolor="#666666"
     pagecolor="#ffffff"
     id="base"
     inkscape:pagecheckerboard="0"
     inkscape:showpageshadow="2"
     inkscape:deskcolor="#d1d1d1">
    <inkscape:grid
       originy="0"
       originx="0"
       id="grid4231"
       type="xygrid"
       spacingy="1"
       spacingx="1"
       units="px"
       visible="true" />
  </sodipodi:namedview>
  <metadata
     id="metadata5">
    <rdf:RDF>
      <cc:Work
         rdf:about="">
        <dc:format>image/svg+xml</dc:format>
        <dc:type
           rdf:resource="http://purl.org/dc/dcmitype/StillImage" />
      </cc:Work>
    </rdf:RDF>
  </metadata>
  <g
     transform="translate(0,-290.65)"
     id="layer1"
     inkscape:groupmode="layer"
     inkscape:label="Layer 1">
    <path
       id="path854"
       style="fill:#000000;stroke-width:0.0597622"
       d="m 15.388434,294.05614 c -0.398982,-0.0131 -0.734561,0.18838 -0.907669,0.55319 -0.08141,0.17138 -0.09667,0.4477 -0.09667,1.72671 v 1.52263 l -0.225576,0.0349 c -0.123261,0.0204 -0.373818,0.0371 -0.558565,0.0376 -0.184748,2.7e-4 -0.73548,0.0427 -1.224546,0.094 -5.7452825,0.60267 -9.2511138,3.00793 -10.6637715,7.31775 -0.4031298,1.22993 -0.6217796,2.5645 -0.6928359,4.21073 -0.0343649,0.79603 -0.0269262,0.9324 0.067135,1.13055 0.1098611,0.23154 0.3878757,0.47761 0.5988467,0.5344 v 0.003 c 0.226624,0.0608 0.6166782,-0.005 0.7975671,-0.13427 0.099755,-0.071 0.3516925,-0.39208 0.5612508,-0.71164 1.1431092,-1.74308 2.4221214,-2.95838 3.877734,-3.68707 1.4922316,-0.74703 3.0815638,-1.0412 6.1630168,-1.14129 l 1.29974,-0.0403 v 1.53606 c 0,1.30217 0.01375,1.5706 0.09667,1.74552 0.214323,0.45159 0.799918,0.67812 1.227234,0.47532 0.11471,-0.0545 1.741521,-1.63636 3.708551,-3.60651 3.80179,-3.80778 3.647453,-3.62588 3.547428,-4.18387 -0.03553,-0.19812 -0.455619,-0.63596 -3.609192,-3.78911 -3.148885,-3.14846 -3.593962,-3.57318 -3.7918,-3.60919 -0.05923,-0.0108 -0.117552,-0.017 -0.174547,-0.0189 z"
       sodipodi:nodetypes="scsccccccccccccccsccccccs" />
  </g>
</svg>
