<?xml version="1.0" encoding="UTF-8" standalone="no"?>
<svg
   viewBox="0 0 24 24"
   version="1.1"
   id="svg6"
   sodipodi:docname="paint.svg"
   width="24"
   height="24"
   inkscape:version="1.2 (dc2aedaf03, 2022-05-15)"
   xmlns:inkscape="http://www.inkscape.org/namespaces/inkscape"
   xmlns:sodipodi="http://sodipodi.sourceforge.net/DTD/sodipodi-0.dtd"
   xmlns="http://www.w3.org/2000/svg"
   xmlns:svg="http://www.w3.org/2000/svg"
   xmlns:rdf="http://www.w3.org/1999/02/22-rdf-syntax-ns#"
   xmlns:cc="http://creativecommons.org/ns#"
   xmlns:dc="http://purl.org/dc/elements/1.1/">
  <metadata
     id="metadata10">
    <rdf:RDF>
      <cc:Work
         rdf:about="">
        <dc:format>image/svg+xml</dc:format>
        <dc:type
           rdf:resource="http://purl.org/dc/dcmitype/StillImage" />
      </cc:Work>
    </rdf:RDF>
  </metadata>
  <sodipodi:namedview
     pagecolor="#8b8b8b"
     bordercolor="#666666"
     borderopacity="1"
     objecttolerance="10"
     gridtolerance="10"
     guidetolerance="10"
     inkscape:pageopacity="0"
     inkscape:pageshadow="2"
     inkscape:window-width="1920"
     inkscape:window-height="1171"
     id="namedview8"
     showgrid="true"
     inkscape:zoom="16"
     inkscape:cx="13.625"
     inkscape:cy="19.28125"
     inkscape:window-x="1600"
     inkscape:window-y="0"
     inkscape:window-maximized="1"
     inkscape:current-layer="g8525"
     inkscape:snap-bbox="false"
     inkscape:showpageshadow="2"
     inkscape:pagecheckerboard="0"
     inkscape:deskcolor="#8b8b8b">
    <inkscape:grid
       type="xygrid"
       id="grid4474"
       originx="0"
       originy="0" />
  </sodipodi:namedview>
  <defs
     id="defs3051">
    <style
       type="text/css"
       id="current-color-scheme">
      .ColorScheme-Text {
        color:#4d4d4d;
      }
      </style>
  </defs>
  <g
     id="g8525"
     transform="matrix(0.47786421,0,0,0.47786421,-9.9384657,-10.219543)">
    <path
       d="m 26.618,69.43 c 0.58,0.078 1.414,0.156 2.41,0.156 4.28,0 11.537,-1.473 14.468,-10.706 L 69.475,32.514 c 2.083,-2.113 2.059,-5.529 -0.058,-7.615 -2.043,-2.008 -5.6,-1.984 -7.612,0.059 L 36.043,51.105 c -4.038,0.211 -10.714,2.785 -11.685,11.363 -0.137,0.382 -0.695,1.697 -1.9,1.906 -1.168,0.202 -1.675,1.088 -1.66,1.875 0.04,2.094 3.663,2.892 5.82,3.181 z M 64.227,27.342 c 0.736,-0.746 2.058,-0.758 2.805,-0.02 0.779,0.768 0.789,2.025 0.021,2.805 L 47.09,50.39 44.264,47.607 Z m -22.35,22.685 2.826,2.783 -2.706,2.747 -2.825,-2.783 z M 27.67,63.271 27.721,63 c 0.742,-7.223 6.361,-8.323 8.377,-8.481 l 3.962,3.905 c -1.288,3.609 -3.525,6.006 -6.684,7.101 -2.618,0.905 -5.286,0.755 -7.163,0.392 0.792,-0.892 1.26,-1.915 1.457,-2.646 z"
       id="path8523" />
  </g>
</svg>
