<?xml version="1.0" encoding="UTF-8" standalone="no"?>
<!-- Generated by IcoMoon.io -->

<svg
   xmlns:dc="http://purl.org/dc/elements/1.1/"
   xmlns:cc="http://creativecommons.org/ns#"
   xmlns:rdf="http://www.w3.org/1999/02/22-rdf-syntax-ns#"
   xmlns:svg="http://www.w3.org/2000/svg"
   xmlns="http://www.w3.org/2000/svg"
   xmlns:sodipodi="http://sodipodi.sourceforge.net/DTD/sodipodi-0.dtd"
   xmlns:inkscape="http://www.inkscape.org/namespaces/inkscape"
   version="1.1"
   width="24"
   height="24"
   viewBox="0 0 24 24"
   id="svg6"
   sodipodi:docname="pdf.svg"
   inkscape:version="0.92.3 (2405546, 2018-03-11)">
  <metadata
     id="metadata12">
    <rdf:RDF>
      <cc:Work
         rdf:about="">
        <dc:format>image/svg+xml</dc:format>
        <dc:type
           rdf:resource="http://purl.org/dc/dcmitype/StillImage" />
        <dc:title>uniE019</dc:title>
      </cc:Work>
    </rdf:RDF>
  </metadata>
  <defs
     id="defs10" />
  <sodipodi:namedview
     pagecolor="#ffffff"
     bordercolor="#666666"
     borderopacity="1"
     objecttolerance="10"
     gridtolerance="10"
     guidetolerance="10"
     inkscape:pageopacity="0"
     inkscape:pageshadow="2"
     inkscape:window-width="1280"
     inkscape:window-height="995"
     id="namedview8"
     showgrid="true"
     inkscape:zoom="20.85965"
     inkscape:cx="8.1420844"
     inkscape:cy="11.316147"
     inkscape:window-x="1600"
     inkscape:window-y="0"
     inkscape:window-maximized="1"
     inkscape:current-layer="svg6">
    <inkscape:grid
       type="xygrid"
       id="grid836" />
  </sodipodi:namedview>
  <title
     id="title2">uniE019</title>
  <g
     transform="matrix(0.5546274,0,0,0.55396988,80.988837,-69.068876)"
     id="g838">
    <path
       sodipodi:nodetypes="cccccccccccccsccsccccssssccccccccsccscccccc"
       inkscape:connector-curvature="0"
       id="path840"
       d="m -133.89613,150.39865 c -1.36056,-1.36056 0.84348,-4.48927 4.16567,-5.91333 1.21704,-0.52168 1.32645,-0.65908 2.46504,-3.09558 l 1.19146,-2.54968 -0.60092,-1.35501 c -0.43641,-0.98404 -0.6043,-1.87413 -0.61325,-3.25119 -0.0107,-1.65193 0.0703,-1.98424 0.62912,-2.57969 0.77467,-0.82548 1.61664,-0.87516 2.28657,-0.1349 0.68628,0.75834 0.83822,3.68668 0.28857,5.56173 l -0.4118,1.40477 1.42175,1.75967 c 2.14643,2.65659 2.10997,2.6313 3.79602,2.63296 1.95206,0.002 3.40027,0.41708 4.18208,1.19889 0.90929,0.90929 0.82078,1.86466 -0.23223,2.5067 -0.47294,0.28836 -1.03849,0.52407 -1.25677,0.5238 -1.03238,-0.001 -2.37645,-0.62322 -3.70229,-1.71318 -0.79934,-0.65713 -1.6923,-1.19502 -1.98438,-1.19531 -0.29207,-2.9e-4 -1.55947,0.18821 -2.81644,0.4189 l -2.2854,0.41944 -1.33822,2.05459 c -2.17439,3.33837 -3.99289,4.4981 -5.18458,3.30642 z m 1.84046,-1.27326 c 0.60841,-0.42681 2.36902,-2.80889 2.07606,-2.80889 -0.43196,0 -1.89782,1.18866 -2.43793,1.97689 -0.84372,1.23133 -0.69495,1.57337 0.36187,0.832 z m 16.00001,-3.88072 c 0,-0.42866 -1.80664,-1.08398 -2.73881,-0.99345 l -0.83306,0.0809 0.92604,0.59085 c 0.95419,0.60882 2.64583,0.81449 2.64583,0.32169 z m -8.13898,-2.24997 1.25372,-0.17695 -0.51869,-0.69802 c -0.28528,-0.38391 -0.7472,-0.98752 -1.02649,-1.34135 l -0.50781,-0.64333 -0.69025,1.36214 c -0.80997,1.5984 -0.85964,1.99396 -0.22723,1.80951 0.25467,-0.0743 1.0272,-0.21468 1.71675,-0.312 z m -0.8795,-8.58445 c 0.008,-0.65484 -0.0959,-1.36518 -0.23079,-1.57853 -0.63635,-1.00614 -0.96333,2.48717 -0.33186,3.54535 0.23817,0.39909 0.54694,-0.68025 0.56265,-1.96682 z"
       style="fill:#000000;fill-opacity:1;stroke-width:0.26458332" />
  </g>
  <path
     style="color:#000000;font-style:normal;font-variant:normal;font-weight:normal;font-stretch:normal;font-size:medium;line-height:normal;font-family:sans-serif;font-variant-ligatures:normal;font-variant-position:normal;font-variant-caps:normal;font-variant-numeric:normal;font-variant-alternates:normal;font-feature-settings:normal;text-indent:0;text-align:start;text-decoration:none;text-decoration-line:none;text-decoration-style:solid;text-decoration-color:#000000;letter-spacing:normal;word-spacing:normal;text-transform:none;writing-mode:lr-tb;direction:ltr;text-orientation:mixed;dominant-baseline:auto;baseline-shift:baseline;text-anchor:start;white-space:normal;shape-padding:0;clip-rule:nonzero;display:inline;overflow:visible;visibility:visible;opacity:1;isolation:auto;mix-blend-mode:normal;color-interpolation:sRGB;color-interpolation-filters:linearRGB;solid-color:#000000;solid-opacity:1;vector-effect:none;fill:#000000;fill-opacity:1;fill-rule:evenodd;stroke:none;stroke-width:1.00001264;stroke-linecap:butt;stroke-linejoin:round;stroke-miterlimit:4;stroke-dasharray:none;stroke-dashoffset:0;stroke-opacity:1;color-rendering:auto;image-rendering:auto;shape-rendering:auto;text-rendering:auto;enable-background:accumulate"
     d="M 3.0000025,0.500169 C 2.7235777,0.49998946 2.4994453,0.72411921 2.4996215,1.000544 v 21.999454 c -1.795e-4,0.276427 0.2239539,0.500561 0.500381,0.500381 H 21.000002 c 0.276426,1.77e-4 0.500556,-0.223956 0.500376,-0.500381 V 6.5002215 c 7.2e-5,-0.1319219 -0.05199,-0.2585273 -0.144845,-0.352237 L 15.905921,0.648306 C 15.811942,0.55343541 15.683922,0.50009484 15.550384,0.500169 Z m 0.500376,0.999662 H 15.341895 l 5.157726,5.2055885 V 22.499621 H 3.5003785 Z"
     id="path830"
     inkscape:connector-curvature="0"
     sodipodi:nodetypes="ccccccccccccccccc" />
  <path
     style="color:#000000;font-style:normal;font-variant:normal;font-weight:normal;font-stretch:normal;font-size:medium;line-height:normal;font-family:sans-serif;font-variant-ligatures:normal;font-variant-position:normal;font-variant-caps:normal;font-variant-numeric:normal;font-variant-alternates:normal;font-feature-settings:normal;text-indent:0;text-align:start;text-decoration:none;text-decoration-line:none;text-decoration-style:solid;text-decoration-color:#000000;letter-spacing:normal;word-spacing:normal;text-transform:none;writing-mode:lr-tb;direction:ltr;text-orientation:mixed;dominant-baseline:auto;baseline-shift:baseline;text-anchor:start;white-space:normal;shape-padding:0;clip-rule:nonzero;display:inline;overflow:visible;visibility:visible;opacity:1;isolation:auto;mix-blend-mode:normal;color-interpolation:sRGB;color-interpolation-filters:linearRGB;solid-color:#000000;solid-opacity:1;vector-effect:none;fill:#000000;fill-opacity:1;fill-rule:evenodd;stroke:none;stroke-width:1.00001264;stroke-linecap:butt;stroke-linejoin:round;stroke-miterlimit:4;stroke-dasharray:none;stroke-dashoffset:0;stroke-opacity:1;color-rendering:auto;image-rendering:auto;shape-rendering:auto;text-rendering:auto;enable-background:accumulate"
     d="m 14.999528,1 v 5.5002215 c 4.28e-4,0.2759978 0.224384,0.4994611 0.500382,0.499281 H 21 V 5.9998465 H 16.000285 V 1 Z"
     id="path832"
     inkscape:connector-curvature="0"
     sodipodi:nodetypes="cccccccc" />
  <g
     aria-label="PDF"
     style="font-style:normal;font-variant:normal;font-weight:normal;font-stretch:normal;font-size:1.85813141px;line-height:3.71626282px;font-family:Monospace;-inkscape-font-specification:Monospace;text-align:center;letter-spacing:0px;word-spacing:0px;text-anchor:middle;fill:#000000;fill-opacity:1;stroke:none;stroke-width:0.1486505px;stroke-linecap:butt;stroke-linejoin:miter;stroke-opacity:1"
     id="text836"
     transform="translate(0.26986,0.916663)">
    <path
       d="m 6.84733,17.728516 h 0.2184245 q 0.4690755,0 0.7054036,-0.186198 0.2399089,-0.186198 0.2399089,-0.605144 0,-0.390299 -0.2148438,-0.576497 -0.211263,-0.186198 -0.6660156,-0.186198 H 6.84733 Z m 2.288086,-0.83073 q 0,0.34375 -0.1038412,0.658855 -0.1038411,0.315104 -0.34375,0.555013 -0.2363281,0.239908 -0.6266276,0.383138 -0.3867188,0.143229 -0.9596354,0.143229 H 6.84733 V 20.5 H 5.7373039 V 15.264974 H 7.19108 q 0.5048828,0 0.8701172,0.114583 0.3688151,0.111003 0.6051432,0.322266 0.2399089,0.207682 0.3544922,0.512044 0.1145834,0.300781 0.1145834,0.683919 z"
       style="font-style:normal;font-variant:normal;font-weight:bold;font-stretch:normal;font-size:7.33333349px;font-family:'Droid Sans';-inkscape-font-specification:'Droid Sans Bold';stroke-width:0.1486505px"
       id="path902"
       inkscape:connector-curvature="0" />
    <path
       d="m 14.169921,17.832357 q 0,0.662435 -0.182617,1.163737 -0.179036,0.497721 -0.522786,0.83431 -0.34017,0.333007 -0.837891,0.501302 Q 12.132486,20.5 11.498697,20.5 h -1.378581 v -5.235026 h 1.532553 q 0.576497,0 1.038411,0.164713 0.465495,0.164714 0.794922,0.49056 0.329427,0.322266 0.504883,0.802084 0.179036,0.479817 0.179036,1.110026 z m -1.124349,0.02865 q 0,-0.436849 -0.08952,-0.751954 -0.08594,-0.318684 -0.254232,-0.526367 -0.164713,-0.207682 -0.408203,-0.307943 -0.239909,-0.10026 -0.551432,-0.10026 H 11.23014 v 3.408854 h 0.408204 q 0.701823,0 1.052734,-0.429687 0.354492,-0.429688 0.354492,-1.292643 z"
       style="font-style:normal;font-variant:normal;font-weight:bold;font-stretch:normal;font-size:7.33333349px;font-family:'Droid Sans';-inkscape-font-specification:'Droid Sans Bold';stroke-width:0.1486505px"
       id="path904"
       inkscape:connector-curvature="0" />
    <path
       d="m 16.354167,20.5 h -1.092123 v -5.235026 h 3.000651 v 0.909505 h -1.908528 v 1.349935 h 1.776041 v 0.905924 h -1.776041 z"
       style="font-style:normal;font-variant:normal;font-weight:bold;font-stretch:normal;font-size:7.33333349px;font-family:'Droid Sans';-inkscape-font-specification:'Droid Sans Bold';stroke-width:0.1486505px"
       id="path906"
       inkscape:connector-curvature="0" />
  </g>
</svg>
