<?xml version="1.0" encoding="UTF-8" standalone="no"?>
<svg
   version="1"
   viewBox="0 0 24 24"
   enable-background="new 0 0 24 24"
   id="svg308"
   sodipodi:docname="pen.svg"
   inkscape:version="1.2.2 (b0a8486541, 2022-12-01)"
   xmlns:inkscape="http://www.inkscape.org/namespaces/inkscape"
   xmlns:sodipodi="http://sodipodi.sourceforge.net/DTD/sodipodi-0.dtd"
   xmlns="http://www.w3.org/2000/svg"
   xmlns:svg="http://www.w3.org/2000/svg">
  <defs
     id="defs312" />
  <sodipodi:namedview
     id="namedview310"
     pagecolor="#ffffff"
     bordercolor="#666666"
     borderopacity="1.0"
     inkscape:showpageshadow="2"
     inkscape:pageopacity="0.0"
     inkscape:pagecheckerboard="0"
     inkscape:deskcolor="#d1d1d1"
     showgrid="true"
     inkscape:zoom="30.166667"
     inkscape:cx="10.740331"
     inkscape:cy="12.016575"
     inkscape:window-width="1920"
     inkscape:window-height="1163"
     inkscape:window-x="1600"
     inkscape:window-y="0"
     inkscape:window-maximized="1"
     inkscape:current-layer="svg308">
    <inkscape:grid
       type="xygrid"
       id="grid485" />
  </sodipodi:namedview>
  <path
     d="M 18.40625 2 C 18.15625 2 17.8875 2.1125 17.6875 2.3125 L 12.40625 7.59375 L 16.40625 11.59375 L 21.6875 6.3125 C 22.0875 5.9125 22.0875 5.20625 21.6875 4.90625 L 19.09375 2.3125 C 18.89375 2.1125 18.65625 2 18.40625 2 z M 11.59375 9.1875 C 9.99375 10.7875 8.1 11.1875 5 11.1875 C 4.4 13.9875 2.8 19.1125 2 21.3125 L 7.09375 16.1875 C 7.09375 15.9875 7 15.8875 7 15.6875 C 7 14.9875 7.6125 14.40625 8.3125 14.40625 C 9.0125 14.40625 9.59375 14.9875 9.59375 15.6875 C 9.49375 16.3875 9.0125 17 8.3125 17 C 8.1125 17 8.0125 17.00625 7.8125 16.90625 L 2.6875 22 C 4.8875 21.3 9.9125 19.6 12.8125 19 C 12.8125 15.9 13.2125 14.00625 14.8125 12.40625 L 11.59375 9.1875 z"
     id="path306" />
</svg>
