<?xml version="1.0" encoding="UTF-8" standalone="no"?>
<svg
   xmlns:dc="http://purl.org/dc/elements/1.1/"
   xmlns:cc="http://creativecommons.org/ns#"
   xmlns:rdf="http://www.w3.org/1999/02/22-rdf-syntax-ns#"
   xmlns:svg="http://www.w3.org/2000/svg"
   xmlns="http://www.w3.org/2000/svg"
   xmlns:sodipodi="http://sodipodi.sourceforge.net/DTD/sodipodi-0.dtd"
   xmlns:inkscape="http://www.inkscape.org/namespaces/inkscape"
   width="24"
   height="24"
   viewBox="0 0 24 24"
   version="1.1"
   id="svg11"
   inkscape:version="1.0.1 (3bc2e813f5, 2020-09-07)"
   sodipodi:docname="point_buffer.svg">
  <metadata
     id="metadata17">
    <rdf:RDF>
      <cc:Work
         rdf:about="">
        <dc:format>image/svg+xml</dc:format>
        <dc:type
           rdf:resource="http://purl.org/dc/dcmitype/StillImage" />
        <dc:title></dc:title>
      </cc:Work>
    </rdf:RDF>
  </metadata>
  <defs
     id="defs15" />
  <sodipodi:namedview
     pagecolor="#878787"
     bordercolor="#666666"
     borderopacity="1"
     objecttolerance="10"
     gridtolerance="10"
     guidetolerance="10"
     inkscape:pageopacity="0"
     inkscape:pageshadow="2"
     inkscape:window-width="1920"
     inkscape:window-height="1051"
     id="namedview13"
     showgrid="true"
     units="px"
     inkscape:zoom="19.666666"
     inkscape:cx="9.0714594"
     inkscape:cy="6.5584013"
     inkscape:window-x="1920"
     inkscape:window-y="0"
     inkscape:window-maximized="1"
     inkscape:current-layer="svg11"
     inkscape:snap-bbox="true"
     inkscape:bbox-paths="true"
     inkscape:bbox-nodes="true"
     inkscape:snap-bbox-edge-midpoints="true"
     inkscape:snap-bbox-midpoints="true"
     inkscape:document-rotation="0">
    <inkscape:grid
       type="xygrid"
       id="grid4473" />
  </sodipodi:namedview>
  <g
     id="g2030"
     style="opacity:1">
    <path
       id="path2032"
       style="color:#000000;font-style:normal;font-variant:normal;font-weight:normal;font-stretch:normal;font-size:medium;line-height:normal;font-family:sans-serif;font-variant-ligatures:normal;font-variant-position:normal;font-variant-caps:normal;font-variant-numeric:normal;font-variant-alternates:normal;font-variant-east-asian:normal;font-feature-settings:normal;font-variation-settings:normal;text-indent:0;text-align:start;text-decoration:none;text-decoration-line:none;text-decoration-style:solid;text-decoration-color:#000000;letter-spacing:normal;word-spacing:normal;text-transform:none;writing-mode:lr-tb;direction:ltr;text-orientation:mixed;dominant-baseline:auto;baseline-shift:baseline;text-anchor:start;white-space:normal;shape-padding:0;shape-margin:0;inline-size:0;clip-rule:nonzero;display:inline;overflow:visible;visibility:visible;isolation:auto;mix-blend-mode:normal;color-interpolation:sRGB;color-interpolation-filters:linearRGB;solid-color:#000000;solid-opacity:1;vector-effect:none;fill:#000000;fill-opacity:1;fill-rule:evenodd;stroke:none;stroke-width:2.667;stroke-linecap:butt;stroke-linejoin:miter;stroke-miterlimit:4;stroke-dasharray:2.667, 2.66699999999999982;stroke-dashoffset:0;stroke-opacity:1.0;color-rendering:auto;image-rendering:auto;shape-rendering:auto;text-rendering:auto;enable-background:accumulate;stop-color:#000000;stop-opacity:1;"
       d="M 11.761719 6.671875 C 11.303412 6.6914684 10.849803 6.7708664 10.414062 6.90625 C 10.164689 6.9838027 9.9225371 7.0800963 9.6875 7.1933594 C 9.4549475 7.3054065 9.2311251 7.433847 9.0175781 7.578125 L 9.0136719 7.5800781 L 9.0097656 7.5839844 C 8.8542335 7.6906194 8.6781388 7.8170353 8.4960938 7.9804688 L 9.3984375 8.984375 C 8.7319704 9.5598417 8.2516575 10.339324 8.078125 11.238281 L 6.765625 10.972656 C 6.7400429 11.099168 6.7224941 11.214369 6.7089844 11.318359 L 6.7089844 11.320312 L 6.7089844 11.322266 C 6.5730752 12.386314 6.7561945 13.47801 7.2617188 14.445312 L 8.4570312 13.820312 C 8.8661984 14.614377 9.5235056 15.254981 10.337891 15.628906 L 9.7851562 16.851562 L 9.9238281 16.914062 L 10.166016 17.009766 L 10.398438 17.087891 L 10.414062 17.09375 C 11.333357 17.379497 12.317222 17.413885 13.257812 17.183594 L 12.9375 15.876953 C 13.822411 15.66341 14.582799 15.155538 15.128906 14.462891 L 16.191406 15.296875 L 16.273438 15.191406 L 16.421875 14.982422 L 16.550781 14.78125 L 16.558594 14.769531 C 17.069125 13.933362 17.335977 12.973348 17.333984 11.998047 L 16 12 C 16 11.611745 15.9274 11.243637 15.824219 10.888672 L 17.123047 10.519531 L 17.09375 10.414062 L 17.009766 10.166016 L 16.919922 9.9394531 L 16.914062 9.9238281 C 16.813396 9.6858047 16.694468 9.4549269 16.560547 9.234375 L 16.560547 9.2324219 C 16.427427 9.013471 16.278126 8.8047912 16.115234 8.6074219 C 15.952446 8.4101604 15.775163 8.2247136 15.585938 8.0527344 L 15.582031 8.0488281 L 15.578125 8.0449219 C 15.443931 7.924919 15.282877 7.7863158 15.082031 7.6484375 L 14.322266 8.7539062 C 13.66651 8.2838297 12.868391 8 12 8 C 11.937849 8 11.879818 8.0147737 11.818359 8.0175781 L 11.761719 6.671875 z " />
  </g>
  <path
     style="color:#000000;font-style:normal;font-variant:normal;font-weight:normal;font-stretch:normal;font-size:medium;line-height:normal;font-family:sans-serif;font-variant-ligatures:normal;font-variant-position:normal;font-variant-caps:normal;font-variant-numeric:normal;font-variant-alternates:normal;font-variant-east-asian:normal;font-feature-settings:normal;font-variation-settings:normal;text-indent:0;text-align:start;text-decoration:none;text-decoration-line:none;text-decoration-style:solid;text-decoration-color:#000000;letter-spacing:normal;word-spacing:normal;text-transform:none;writing-mode:lr-tb;direction:ltr;text-orientation:mixed;dominant-baseline:auto;baseline-shift:baseline;text-anchor:start;white-space:normal;shape-padding:0;shape-margin:0;inline-size:0;clip-rule:nonzero;display:inline;overflow:visible;visibility:visible;isolation:auto;mix-blend-mode:normal;color-interpolation:sRGB;color-interpolation-filters:linearRGB;solid-color:#000000;solid-opacity:1;vector-effect:none;fill:#000000;fill-opacity:1;fill-rule:evenodd;stroke:none;stroke-width:2;stroke-linecap:butt;stroke-linejoin:miter;stroke-miterlimit:4;stroke-dasharray:none;stroke-dashoffset:0;stroke-opacity:1;color-rendering:auto;image-rendering:auto;shape-rendering:auto;text-rendering:auto;enable-background:accumulate;stop-color:#000000;stop-opacity:1;opacity:1"
     d="M 12 3 C 7.0412819 3 3 7.0412819 3 12 C 3 16.958718 7.0412819 21 12 21 C 16.958718 21 21 16.958718 21 12 C 21 7.0412819 16.958718 3 12 3 z M 12 5 C 15.877838 5 19 8.1221621 19 12 C 19 15.877838 15.877838 19 12 19 C 8.1221621 19 5 15.877838 5 12 C 5 8.1221621 8.1221621 5 12 5 z "
     id="path2027" />
</svg>
