<?xml version="1.0" encoding="UTF-8" standalone="no"?>
<svg
   height="24"
   version="1.1"
   viewBox="0 0 24 24"
   width="24"
   id="svg1"
   sodipodi:docname="pyramid.svg"
   inkscape:version="1.4 (e7c3feb100, 2024-10-09)"
   xmlns:inkscape="http://www.inkscape.org/namespaces/inkscape"
   xmlns:sodipodi="http://sodipodi.sourceforge.net/DTD/sodipodi-0.dtd"
   xmlns="http://www.w3.org/2000/svg"
   xmlns:svg="http://www.w3.org/2000/svg">
  <defs
     id="defs1" />
  <sodipodi:namedview
     id="namedview1"
     pagecolor="#ffffff"
     bordercolor="#666666"
     borderopacity="1.0"
     inkscape:showpageshadow="2"
     inkscape:pageopacity="0.0"
     inkscape:pagecheckerboard="0"
     inkscape:deskcolor="#d1d1d1"
     inkscape:zoom="21.993724"
     inkscape:cx="11.503282"
     inkscape:cy="10.298392"
     inkscape:window-width="1600"
     inkscape:window-height="842"
     inkscape:window-x="0"
     inkscape:window-y="0"
     inkscape:window-maximized="1"
     inkscape:current-layer="layer1"
     showgrid="true">
    <inkscape:grid
       id="grid1"
       units="px"
       originx="0"
       originy="0"
       spacingx="1"
       spacingy="1"
       empcolor="#0099e5"
       empopacity="0.30196078"
       color="#0099e5"
       opacity="0.14901961"
       empspacing="5"
       enabled="true"
       visible="true" />
  </sodipodi:namedview>
  <g
     id="layer1"
     transform="matrix(1.1764703,0,0,1.1764703,0.23529702,0.23545728)">
    <path
       id="path4"
       style="stroke-linecap:round;stroke-linejoin:round"
       d="M 10 1.9265219 A 0.42504251 0.42504251 0 0 0 9.799121 1.979647 A 0.42500001 0.42500001 0 0 0 9.7509765 2.0194907 A 0.42504251 0.42504251 0 0 0 9.6663085 2.0875571 L 0.3163062 13.9859 A 0.42504251 0.42504251 0 0 0 0.47402109 14.636681 L 9.8240234 18.886682 A 0.42504251 0.42504251 0 0 0 9.9701172 18.918225 A 0.42500001 0.42500001 0 0 0 10 18.926526 A 0.42500001 0.42500001 0 0 0 10.172656 18.886682 A 0.42500001 0.42500001 0 0 0 10.175977 18.886682 L 19.525979 14.636681 A 0.42504251 0.42504251 0 0 0 19.683694 13.9859 L 10.333691 2.0875571 A 0.42504251 0.42504251 0 0 0 10.249023 2.0194907 A 0.42500001 0.42500001 0 0 0 10.200879 1.979647 A 0.42504251 0.42504251 0 0 0 10 1.9265219 z M 9.5749999 3.580038 L 9.5749999 17.840784 L 1.3190408 14.087169 L 9.5749999 3.580038 z M 10.425 3.580038 L 18.680959 14.087169 L 10.425 17.840784 L 10.425 3.580038 z " />
  </g>
</svg>
