<?xml version="1.0" encoding="UTF-8" standalone="no"?>
<svg
   xmlns:dc="http://purl.org/dc/elements/1.1/"
   xmlns:cc="http://creativecommons.org/ns#"
   xmlns:rdf="http://www.w3.org/1999/02/22-rdf-syntax-ns#"
   xmlns:svg="http://www.w3.org/2000/svg"
   xmlns="http://www.w3.org/2000/svg"
   xmlns:sodipodi="http://sodipodi.sourceforge.net/DTD/sodipodi-0.dtd"
   xmlns:inkscape="http://www.inkscape.org/namespaces/inkscape"
   height="24"
   id="Layer_1"
   version="1.1"
   viewBox="0 0 24 24"
   width="24"
   xml:space="preserve"
   sodipodi:docname="refresh.svg"
   inkscape:version="0.92.3 (2405546, 2018-03-11)"><metadata
     id="metadata9"><rdf:RDF><cc:Work
         rdf:about=""><dc:format>image/svg+xml</dc:format><dc:type
           rdf:resource="http://purl.org/dc/dcmitype/StillImage" /><dc:title></dc:title></cc:Work></rdf:RDF></metadata><defs
     id="defs7" /><sodipodi:namedview
     pagecolor="#ffffff"
     bordercolor="#666666"
     borderopacity="1"
     objecttolerance="10"
     gridtolerance="10"
     guidetolerance="10"
     inkscape:pageopacity="0"
     inkscape:pageshadow="2"
     inkscape:window-width="1853"
     inkscape:window-height="1025"
     id="namedview5"
     showgrid="false"
     inkscape:zoom="7.375"
     inkscape:cx="-3.2542373"
     inkscape:cy="16"
     inkscape:window-x="67"
     inkscape:window-y="27"
     inkscape:window-maximized="1"
     inkscape:current-layer="Layer_1" /><path
     d="m 22.285714,12 c -1.044858,0 -1.540285,0.736285 -1.714285,1.513715 C 19.944856,16.311429 17.286,20.571429 12,20.571429 7.266,20.571429 3.4285714,16.733144 3.4285714,12 3.4285714,7.2668565 7.266,3.428571 12,3.428571 c 1.92,0 3.681429,0.645429 5.108571,1.7142855 h -1.68 c -0.946286,0 -1.714286,0.768 -1.714286,1.714287 0,0.9462855 0.768,1.7142855 1.714286,1.7142855 h 5.142858 c 0.946285,0 1.714285,-0.768 1.714285,-1.7142855 V 1.7142855 C 22.285714,0.768 21.517714,0 20.571429,0 19.625143,0 18.857143,0.768 18.857143,1.7142855 v 0.444 C 16.914,0.7988565 14.551714,0 12,0 5.3725714,0 0,5.372571 0,12 0,18.627429 5.3725714,24 12,24 20.553429,24 24,15.857143 24,13.821429 24,12.576 23.089714,12 22.285714,12 Z"
     id="path2"
     inkscape:connector-curvature="0"
     style="stroke-width:0.85714293" /></svg>