<?xml version="1.0" encoding="UTF-8" standalone="no"?>
<svg
   viewBox="0 0 24 24"
   version="1.1"
   id="svg617"
   sodipodi:docname="routing-tram.svg"
   width="24"
   height="24"
   inkscape:version="1.2.2 (b0a8486541, 2022-12-01)"
   xmlns:inkscape="http://www.inkscape.org/namespaces/inkscape"
   xmlns:sodipodi="http://sodipodi.sourceforge.net/DTD/sodipodi-0.dtd"
   xmlns="http://www.w3.org/2000/svg"
   xmlns:svg="http://www.w3.org/2000/svg">
  <defs
     id="defs621" />
  <sodipodi:namedview
     id="namedview619"
     pagecolor="#ffffff"
     bordercolor="#666666"
     borderopacity="1.0"
     inkscape:showpageshadow="2"
     inkscape:pageopacity="0.0"
     inkscape:pagecheckerboard="0"
     inkscape:deskcolor="#d1d1d1"
     showgrid="false"
     inkscape:zoom="1.3554688"
     inkscape:cx="180.74928"
     inkscape:cy="20.288184"
     inkscape:window-width="1600"
     inkscape:window-height="841"
     inkscape:window-x="0"
     inkscape:window-y="0"
     inkscape:window-maximized="1"
     inkscape:current-layer="svg617" />
  <!--! Font Awesome Pro 6.4.0 by @fontawesome - https://fontawesome.com License - https://fontawesome.com/license (Commercial License) Copyright 2023 Fonticons, Inc. -->
  <path
     d="m 6.1055317,3.0625 c -0.5242187,0 -1.0140625,0.2363281 -1.340625,0.6445313 l -0.5542968,0.6875 C 3.8582661,4.8371094 3.2094379,4.9101563 2.7625629,4.5535156 2.3156879,4.196875 2.2469379,3.5523438 2.6035786,3.1054688 L 3.1492817,2.4179687 C 3.8668599,1.5242187 4.9539692,1 6.1055317,1 H 17.896157 c 1.147266,0 2.234375,0.5242187 2.951953,1.4179687 l 0.55,0.6875001 c 0.356641,0.446875 0.283594,1.0957031 -0.163281,1.4480468 -0.446875,0.3523438 -1.095703,0.2835938 -1.448047,-0.1589843 l -0.545703,-0.6875 C 18.914516,3.2988281 18.420376,3.0625 17.900454,3.0625 H 13.032095 V 5.125 h 1.71875 c 2.277343,0 4.125,1.8476562 4.125,4.125 v 6.875 c 0,1.314844 -0.614454,2.483594 -1.572657,3.239844 l 2.814453,2.814453 C 20.42272,22.484375 20.207876,23 19.778188,23 h -1.705859 c -0.365234,0 -0.713281,-0.146094 -0.971094,-0.403906 L 14.750845,20.25 H 9.2508442 L 6.9047505,22.596094 C 6.646938,22.853906 6.2988911,23 5.9336567,23 H 4.2235005 C 3.793813,23 3.5789692,22.480078 3.8840474,22.179297 L 6.6985005,19.364844 C 5.7402974,18.608594 5.1258442,17.439844 5.1258442,16.125 V 9.25 c 0,-2.2773438 1.8476563,-4.125 4.125,-4.125 H 10.969594 V 3.0625 Z M 9.2508442,7.875 c -0.7605468,0 -1.375,0.6144531 -1.375,1.375 v 1.375 c 0,0.760547 0.6144532,1.375 1.375,1.375 h 5.5000008 c 0.760546,0 1.375,-0.614453 1.375,-1.375 V 9.25 c 0,-0.7605469 -0.614454,-1.375 -1.375,-1.375 z m 1.3749998,8.25 a 1.375,1.375 0 1 0 -2.7499998,0 1.375,1.375 0 1 0 2.7499998,0 z m 4.125001,1.375 a 1.375,1.375 0 1 0 0,-2.75 1.375,1.375 0 1 0 0,2.75 z"
     id="path615"
     style="stroke-width:0.0429688" />
</svg>
