<?xml version="1.0" encoding="UTF-8" standalone="no"?>
<svg
   viewBox="0 0 24 24"
   version="1.1"
   id="svg219"
   sodipodi:docname="routing-ship.svg"
   width="24"
   height="24"
   inkscape:version="1.2.2 (b0a8486541, 2022-12-01)"
   xmlns:inkscape="http://www.inkscape.org/namespaces/inkscape"
   xmlns:sodipodi="http://sodipodi.sourceforge.net/DTD/sodipodi-0.dtd"
   xmlns="http://www.w3.org/2000/svg"
   xmlns:svg="http://www.w3.org/2000/svg">
  <defs
     id="defs223" />
  <sodipodi:namedview
     id="namedview221"
     pagecolor="#ffffff"
     bordercolor="#666666"
     borderopacity="1.0"
     inkscape:showpageshadow="2"
     inkscape:pageopacity="0.0"
     inkscape:pagecheckerboard="0"
     inkscape:deskcolor="#d1d1d1"
     showgrid="false"
     inkscape:zoom="3.8338446"
     inkscape:cx="93.90052"
     inkscape:cy="11.607148"
     inkscape:window-width="1600"
     inkscape:window-height="841"
     inkscape:window-x="0"
     inkscape:window-y="0"
     inkscape:window-maximized="1"
     inkscape:current-layer="svg219" />
  <!--! Font Awesome Pro 6.4.0 by @fontawesome - https://fontawesome.com License - https://fontawesome.com/license (Commercial License) Copyright 2023 Fonticons, Inc. -->
  <path
     d="m 8.3325472,3.441881 c 0,-0.6761866 0.5462977,-1.2224843 1.2224843,-1.2224843 h 4.8899365 c 0.676187,0 1.222484,0.5462977 1.222484,1.2224843 v 1.2224844 h 1.833727 c 1.01237,0 1.833726,0.8213566 1.833726,1.8337264 v 4.8899372 l 1.696197,0.565399 c 0.882481,0.294161 1.126978,1.432599 0.439331,2.059123 l -3.858466,3.537564 c -0.618883,0.359104 -1.325632,0.576859 -1.944515,0.576859 -0.748771,0 -1.558667,-0.29416 -2.261596,-0.775513 -0.844278,-0.592141 -1.971256,-0.592141 -2.815533,0 -0.6532651,0.450791 -1.4517002,0.775513 -2.2615961,0.775513 -0.6188827,0 -1.3256314,-0.217755 -1.9445141,-0.576859 L 2.5257466,14.012551 C 1.8380992,13.382207 2.0825961,12.247589 2.9650769,11.953428 L 4.6650942,11.388029 V 6.4980918 c 0,-1.0123698 0.8213567,-1.8337264 1.8337265,-1.8337264 H 8.3325472 Z M 7.1100629,10.574313 11.228306,9.2028384 c 0.500455,-0.1680916 1.042932,-0.1680916 1.547207,0 l 4.114424,1.3714746 V 7.109334 H 7.1100629 Z m 5.5966851,7.762776 c 0.85956,0.592141 1.910132,0.997089 2.960704,0.997089 1.027651,0 2.116426,-0.412589 2.956884,-0.997089 v 0 c 0.454612,-0.324723 1.073494,-0.297981 1.497544,0.06494 0.550118,0.454612 1.241585,0.802256 1.933053,0.962707 0.657085,0.15281 1.065854,0.809896 0.913043,1.466981 -0.15281,0.657085 -0.809896,1.065853 -1.466981,0.913043 -0.935965,-0.217755 -1.715298,-0.630344 -2.223393,-0.955066 -1.107877,0.595961 -2.349463,0.989448 -3.61015,0.989448 -1.218664,0 -2.315079,-0.378206 -3.071491,-0.72203 -0.221576,-0.103147 -0.42405,-0.202474 -0.595962,-0.29416 -0.171911,0.09169 -0.370565,0.194834 -0.595961,0.29416 -0.756411,0.343824 -1.8528267,0.72203 -3.0714908,0.72203 -1.260687,0 -2.5022726,-0.393487 -3.610149,-0.985628 C 4.2104829,21.114416 3.4349694,21.530825 2.4990048,21.74858 1.8419195,21.901391 1.1848341,21.492622 1.0320236,20.835537 0.87921309,20.178452 1.2879812,19.521367 1.9450666,19.368556 2.6365343,19.208105 3.328002,18.860461 3.8781199,18.40585 4.3021692,18.046745 4.9210519,18.020003 5.3756632,18.3409 v 0 c 0.8442783,0.58068 1.9292331,0.993269 2.956884,0.993269 1.0505725,0 2.1011448,-0.404948 2.9607038,-0.997089 0.424049,-0.301801 0.989448,-0.301801 1.413497,0 z"
     id="path217"
     style="stroke-width:0.0382026" />
</svg>
