<?xml version="1.0" encoding="UTF-8" standalone="no"?>
<svg
   viewBox="0 0 24 24"
   version="1.1"
   id="svg245"
   sodipodi:docname="routing-truck.svg"
   width="24"
   height="24"
   inkscape:version="1.2.2 (b0a8486541, 2022-12-01)"
   xmlns:inkscape="http://www.inkscape.org/namespaces/inkscape"
   xmlns:sodipodi="http://sodipodi.sourceforge.net/DTD/sodipodi-0.dtd"
   xmlns="http://www.w3.org/2000/svg"
   xmlns:svg="http://www.w3.org/2000/svg">
  <defs
     id="defs249" />
  <sodipodi:namedview
     id="namedview247"
     pagecolor="#ffffff"
     bordercolor="#666666"
     borderopacity="1.0"
     inkscape:showpageshadow="2"
     inkscape:pageopacity="0.0"
     inkscape:pagecheckerboard="0"
     inkscape:deskcolor="#d1d1d1"
     showgrid="false"
     inkscape:zoom="11.3125"
     inkscape:cx="31.116022"
     inkscape:cy="34.342541"
     inkscape:window-width="1920"
     inkscape:window-height="1171"
     inkscape:window-x="1600"
     inkscape:window-y="0"
     inkscape:window-maximized="1"
     inkscape:current-layer="svg245" />
  <!--! Font Awesome Pro 6.3.0 by @fontawesome - https://fontawesome.com License - https://fontawesome.com/license (Commercial License) Copyright 2023 Fonticons, Inc. -->
  <path
     d="M 2.65,3.2 C 1.739063,3.2 1,3.939062 1,4.85 v 11 c 0,0.910938 0.739063,1.65 1.65,1.65 H 3.2 c 0,1.821875 1.478125,3.3 3.3,3.3 1.821875,0 3.3,-1.478125 3.3,-3.3 h 4.4 c 0,1.821875 1.478125,3.3 3.3,3.3 1.821875,0 3.3,-1.478125 3.3,-3.3 h 1.1 c 0.608438,0 1.1,-0.491562 1.1,-1.1 0,-0.608437 -0.491562,-1.1 -1.1,-1.1 V 13.1 12 11.357187 C 21.9,10.772812 21.669687,10.2125 21.257187,9.8 L 18.6,7.142812 C 18.1875,6.730312 17.627188,6.5 17.042812,6.5 H 15.3 V 4.85 C 15.3,3.939062 14.560938,3.2 13.65,3.2 Z M 15.3,8.7 h 1.742812 L 19.7,11.357187 V 12 H 15.3 Z M 4.85,17.5 a 1.65,1.65 0 1 1 3.3,0 1.65,1.65 0 1 1 -3.3,0 z M 17.5,15.85 a 1.65,1.65 0 1 1 0,3.3 1.65,1.65 0 1 1 0,-3.3 z"
     id="path179"
     style="stroke-width:0.034375" />
</svg>
