<?xml version="1.0" encoding="UTF-8" standalone="no"?>
<svg
   viewBox="0 0 24 24"
   version="1.1"
   id="svg4"
   sodipodi:docname="routing-walking.svg"
   width="24"
   height="24"
   inkscape:version="1.2.2 (b0a8486541, 2022-12-01)"
   xmlns:inkscape="http://www.inkscape.org/namespaces/inkscape"
   xmlns:sodipodi="http://sodipodi.sourceforge.net/DTD/sodipodi-0.dtd"
   xmlns="http://www.w3.org/2000/svg"
   xmlns:svg="http://www.w3.org/2000/svg">
  <defs
     id="defs8" />
  <sodipodi:namedview
     id="namedview6"
     pagecolor="#ffffff"
     bordercolor="#666666"
     borderopacity="1.0"
     inkscape:showpageshadow="2"
     inkscape:pageopacity="0.0"
     inkscape:pagecheckerboard="0"
     inkscape:deskcolor="#d1d1d1"
     showgrid="false"
     inkscape:zoom="5.421875"
     inkscape:cx="2.5821326"
     inkscape:cy="38.824208"
     inkscape:window-width="1600"
     inkscape:window-height="841"
     inkscape:window-x="0"
     inkscape:window-y="0"
     inkscape:window-maximized="1"
     inkscape:current-layer="svg4" />
  <!--! Font Awesome Pro 6.3.0 by @fontawesome - https://fontawesome.com License - https://fontawesome.com/license (Commercial License) Copyright 2023 Fonticons, Inc. -->
  <path
     d="m 11.999793,3.0626009 a 2.062601,2.062601 0 1 1 4.125202,0 2.062601,2.062601 0 1 1 -4.125202,0 z M 10.56027,9.5640902 c -0.04297,0.017188 -0.08164,0.034377 -0.124616,0.051565 L 10.091887,9.7660531 C 9.3871655,10.07974 8.8457328,10.677035 8.6007989,11.407539 L 8.4890747,11.742712 C 8.248438,12.464622 7.4706656,12.85136 6.7487554,12.610723 6.0268452,12.370086 5.6401075,11.592314 5.8807443,10.870404 L 5.9924685,10.535231 C 6.4823361,9.0699255 7.5652015,7.8753358 8.9746453,7.2479614 L 9.3184121,7.0975635 C 10.212206,6.7022317 11.17905,6.4959716 12.158785,6.4959716 c 1.9165,0 3.643929,1.1516187 4.37873,2.9177206 l 0.661751,1.5856248 0.919576,0.459787 c 0.67894,0.33947 0.953953,1.16451 0.614483,1.84345 -0.339469,0.678939 -1.16451,0.953953 -1.843449,0.614483 l -1.151619,-0.571512 c -0.442599,-0.223449 -0.790664,-0.592998 -0.979735,-1.052786 l -0.412521,-0.98833 -0.829337,2.814591 2.127057,2.320426 c 0.232043,0.253528 0.395332,0.558621 0.481274,0.893793 l 0.988329,3.957616 c 0.184775,0.734801 -0.262122,1.482494 -1.00122,1.667268 -0.739099,0.184775 -1.482495,-0.262122 -1.66727,-1.00122 L 13.499476,18.171151 10.461437,14.858099 C 9.8254681,14.166268 9.5891284,13.199424 9.8297652,12.292739 L 10.555973,9.5640902 Z M 8.0765546,18.102398 9.1508258,15.421017 c 0.090239,0.128912 0.1933688,0.249231 0.3007959,0.369549 l 1.7489133,1.907906 -0.623077,1.555544 c -0.10313,0.257825 -0.257825,0.494165 -0.455491,0.691831 l -2.6513014,2.651301 c -0.5371356,0.537136 -1.4094438,0.537136 -1.9465794,0 -0.5371356,-0.537135 -0.5371356,-1.409444 0,-1.946579 z"
     id="path2"
     style="stroke-width:0.0429708" />
</svg>
