<?xml version="1.0" encoding="UTF-8" standalone="no"?>
<svg
   viewBox="0 0 24 24"
   version="1.1"
   id="svg492"
   sodipodi:docname="routing-cablecar.svg"
   width="24"
   height="24"
   inkscape:version="1.2.2 (b0a8486541, 2022-12-01)"
   xmlns:inkscape="http://www.inkscape.org/namespaces/inkscape"
   xmlns:sodipodi="http://sodipodi.sourceforge.net/DTD/sodipodi-0.dtd"
   xmlns="http://www.w3.org/2000/svg"
   xmlns:svg="http://www.w3.org/2000/svg">
  <defs
     id="defs496" />
  <sodipodi:namedview
     id="namedview494"
     pagecolor="#ffffff"
     bordercolor="#666666"
     borderopacity="1.0"
     inkscape:showpageshadow="2"
     inkscape:pageopacity="0.0"
     inkscape:pagecheckerboard="0"
     inkscape:deskcolor="#d1d1d1"
     showgrid="false"
     inkscape:zoom="0.67773438"
     inkscape:cx="227.22767"
     inkscape:cy="310.59366"
     inkscape:window-width="1600"
     inkscape:window-height="841"
     inkscape:window-x="0"
     inkscape:window-y="0"
     inkscape:window-maximized="1"
     inkscape:current-layer="svg492" />
  <!--! Font Awesome Pro 6.4.0 by @fontawesome - https://fontawesome.com License - https://fontawesome.com/license (Commercial License) Copyright 2023 Fonticons, Inc. -->
  <path
     d="m 13.374973,1.0002205 a 1.3749724,1.3749724 0 1 1 0,2.7499448 1.3749724,1.3749724 0 1 1 0,-2.7499448 z M 7.8750829,3.4064222 a 1.3749725,1.3749725 0 1 1 2.7499451,0 1.3749726,1.3749726 0 1 1 -2.7499451,0 z M 2.3751932,13.374973 c 0,-1.516767 1.2331784,-2.749946 2.7499448,-2.749946 h 5.843633 V 7.7676629 L 2.2419928,9.5723142 C 1.6834102,9.6883274 1.137718,9.3273972 1.0217047,8.7731114 0.90569145,8.2188257 1.2666217,7.6688367 1.8209075,7.5528234 l 9.9685495,-2.0624586 9.96855,-2.0624586 c 0.558583,-0.1160133 1.104275,0.2449169 1.220288,0.7992027 0.116014,0.5542857 -0.244916,1.1042747 -0.799202,1.220288 L 13.031229,7.337984 v 3.287043 h 5.843633 c 1.516767,0 2.749945,1.233179 2.749945,2.749946 v 6.874861 c 0,1.516767 -1.233178,2.749946 -2.749945,2.749946 H 5.125138 c -1.5167664,0 -2.7499448,-1.233179 -2.7499448,-2.749946 z m 2.7499448,0 c -0.3781174,0 -0.6874862,0.309369 -0.6874862,0.687486 v 2.749945 c 0,0.378116 0.3093688,0.687486 0.6874862,0.687486 h 2.7499449 c 0.3781174,0 0.6874862,-0.30937 0.6874862,-0.687486 v -2.749945 c 0,-0.378117 -0.3093688,-0.687486 -0.6874862,-0.687486 z m 4.8124035,0.687486 v 2.749945 c 0,0.378116 0.3093685,0.687486 0.6874865,0.687486 h 2.749945 c 0.378117,0 0.687486,-0.30937 0.687486,-0.687486 v -2.749945 c 0,-0.378117 -0.309369,-0.687486 -0.687486,-0.687486 h -2.749945 c -0.378118,0 -0.6874865,0.309369 -0.6874865,0.687486 z m 6.1873755,-0.687486 c -0.378117,0 -0.687486,0.309369 -0.687486,0.687486 v 2.749945 c 0,0.378116 0.309369,0.687486 0.687486,0.687486 h 2.749945 c 0.378118,0 0.687486,-0.30937 0.687486,-0.687486 v -2.749945 c 0,-0.378117 -0.309368,-0.687486 -0.687486,-0.687486 z"
     id="path490"
     style="stroke-width:0.0429679" />
</svg>
