<?xml version="1.0" encoding="UTF-8" standalone="no"?>
<svg
   viewBox="0 0 24 24"
   version="1.1"
   id="svg4"
   sodipodi:docname="routing-bicycle.svg"
   width="24"
   height="24"
   inkscape:version="1.2.2 (b0a8486541, 2022-12-01)"
   xmlns:inkscape="http://www.inkscape.org/namespaces/inkscape"
   xmlns:sodipodi="http://sodipodi.sourceforge.net/DTD/sodipodi-0.dtd"
   xmlns="http://www.w3.org/2000/svg"
   xmlns:svg="http://www.w3.org/2000/svg">
  <defs
     id="defs8" />
  <sodipodi:namedview
     id="namedview6"
     pagecolor="#ffffff"
     bordercolor="#666666"
     borderopacity="1.0"
     inkscape:showpageshadow="2"
     inkscape:pageopacity="0.0"
     inkscape:pagecheckerboard="0"
     inkscape:deskcolor="#d1d1d1"
     showgrid="false"
     inkscape:zoom="1.9169223"
     inkscape:cx="-17.215095"
     inkscape:cy="91.031338"
     inkscape:window-width="1600"
     inkscape:window-height="841"
     inkscape:window-x="0"
     inkscape:window-y="0"
     inkscape:window-maximized="1"
     inkscape:current-layer="svg4" />
  <!--! Font Awesome Pro 6.3.0 by @fontawesome - https://fontawesome.com License - https://fontawesome.com/license (Commercial License) Copyright 2023 Fonticons, Inc. -->
  <path
     d="m 11.725,4.3 c -0.457187,0 -0.825,0.367812 -0.825,0.825 0,0.457187 0.367813,0.825 0.825,0.825 h 0.883438 l 1.189375,2.2 H 8.6621875 L 7.7203125,6.84375 C 7.565625,6.627187 7.3146875,6.5 7.05,6.5 H 5.125 C 4.6678125,6.5 4.3,6.867813 4.3,7.325 4.3,7.782188 4.6678125,8.15 5.125,8.15 H 6.6271875 L 7.386875,9.205312 6.4725,11.030625 C 6.12875,10.944688 5.7678125,10.9 5.4,10.9 2.9696875,10.9 1,12.869687 1,15.3 c 0,2.430312 1.9696875,4.4 4.4,4.4 2.2446875,0 4.0940625,-1.680937 4.365625,-3.85 H 11.45 c 0.292188,0 0.560313,-0.154687 0.711563,-0.405625 l 2.915,-4.932813 L 15.8225,11.89 c -0.99,0.807812 -1.6225,2.035 -1.6225,3.41 0,2.430312 1.969688,4.4 4.4,4.4 2.430313,0 4.4,-1.969688 4.4,-4.4 0,-2.430313 -1.969687,-4.4 -4.4,-4.4 -0.464063,0 -0.910937,0.07219 -1.330312,0.20625 L 13.904375,4.8775 C 13.711875,4.52 13.340625,4.3 12.935,4.3 Z m 5.039375,9.339688 1.110313,2.052187 c 0.216562,0.402188 0.718437,0.55 1.117187,0.333437 0.39875,-0.216562 0.55,-0.718437 0.333438,-1.117187 L 18.215,12.855937 c 0.12375,-0.02062 0.254375,-0.03094 0.385,-0.03094 1.368125,0 2.475,1.106875 2.475,2.475 0,1.368125 -1.106875,2.475 -2.475,2.475 -1.368125,0 -2.475,-1.106875 -2.475,-2.475 0,-0.639375 0.240625,-1.220312 0.639375,-1.660312 z M 5.57875,15.85 H 7.813125 C 7.5621875,16.953438 6.575625,17.775 5.4,17.775 c -1.368125,0 -2.475,-1.106875 -2.475,-2.475 0,-1.368125 1.106875,-2.475 2.475,-2.475 0.058437,0 0.116875,0.0034 0.1753125,0.0069 l -0.831875,1.667188 C 4.4340625,15.12125 4.884375,15.853437 5.57875,15.853437 Z M 6.7371875,14.2 8.48,10.717812 10.985938,14.196563 10.9825,14.2 H 6.73375 Z M 9.8515625,9.8 H 13.577813 L 11.896875,12.64625 9.848125,9.8 Z"
     id="path2"
     style="stroke-width:0.034375" />
</svg>
