<?xml version="1.0" encoding="UTF-8" standalone="no"?>
<svg
   version="1.1"
   width="24"
   height="24"
   viewBox="0 0 24 24"
   id="svg6"
   sodipodi:docname="save.svg"
   inkscape:version="1.3.2 (091e20ef0f, 2023-11-25)"
   xmlns:inkscape="http://www.inkscape.org/namespaces/inkscape"
   xmlns:sodipodi="http://sodipodi.sourceforge.net/DTD/sodipodi-0.dtd"
   xmlns="http://www.w3.org/2000/svg"
   xmlns:svg="http://www.w3.org/2000/svg"
   xmlns:rdf="http://www.w3.org/1999/02/22-rdf-syntax-ns#"
   xmlns:cc="http://creativecommons.org/ns#"
   xmlns:dc="http://purl.org/dc/elements/1.1/">
  <metadata
     id="metadata12">
    <rdf:RDF>
      <cc:Work
         rdf:about="">
        <dc:format>image/svg+xml</dc:format>
        <dc:type
           rdf:resource="http://purl.org/dc/dcmitype/StillImage" />
        <dc:title>uniE032</dc:title>
      </cc:Work>
    </rdf:RDF>
  </metadata>
  <defs
     id="defs10">
    <inkscape:path-effect
       effect="fillet_chamfer"
       id="path-effect857"
       is_visible="true"
       lpeversion="1"
       satellites_param="F,0,0,1,0,0.2,0,1 @ F,0,0,1,0,0.2,0,1 @ F,0,0,1,0,0.2,0,1 @ F,0,0,1,0,0.2,0,1 @ F,0,0,1,0,0.2,0,1 @ F,0,0,1,0,0.2,0,1 @ F,0,0,1,0,0.2,0,1 @ F,0,0,1,0,0.2,0,1"
       unit="px"
       method="auto"
       mode="F"
       radius="0.2"
       chamfer_steps="1"
       flexible="false"
       use_knot_distance="true"
       apply_no_radius="true"
       apply_with_radius="true"
       only_selected="false"
       hide_knots="false"
       nodesatellites_param="F,0,0,1,0,0.2,0,1 @ F,0,0,1,0,0.2,0,1 @ F,0,0,1,0,0.2,0,1 @ F,0,0,1,0,0.2,0,1 @ F,0,0,1,0,0.2,0,1 @ F,0,0,1,0,0.2,0,1 @ F,0,0,1,0,0.2,0,1 @ F,0,0,1,0,0.2,0,1" />
    <inkscape:path-effect
       effect="fillet_chamfer"
       id="path-effect855"
       is_visible="true"
       lpeversion="1"
       satellites_param="F,0,0,1,0,0.5,0,1 @ F,0,0,1,0,0.5,0,1 @ F,0,0,1,0,0.5,0,1 @ F,0,0,1,0,0.5,0,1"
       unit="px"
       method="auto"
       mode="F"
       radius="0.5"
       chamfer_steps="1"
       flexible="false"
       use_knot_distance="true"
       apply_no_radius="true"
       apply_with_radius="true"
       only_selected="false"
       hide_knots="false"
       nodesatellites_param="F,0,0,1,0,0.5,0,1 @ F,0,0,1,0,0.5,0,1 @ F,0,0,1,0,0.5,0,1 @ F,0,0,1,0,0.5,0,1" />
    <inkscape:path-effect
       effect="fillet_chamfer"
       id="path-effect853"
       is_visible="true"
       lpeversion="1"
       satellites_param="F,0,0,1,0,0.5,0,1 @ F,0,0,1,0,0.5,0,1 @ F,0,0,1,0,0.5,0,1 @ F,0,0,1,0,0.5,0,1"
       unit="px"
       method="auto"
       mode="F"
       radius="0.5"
       chamfer_steps="1"
       flexible="false"
       use_knot_distance="true"
       apply_no_radius="true"
       apply_with_radius="true"
       only_selected="false"
       hide_knots="false"
       nodesatellites_param="F,0,0,1,0,0.5,0,1 @ F,0,0,1,0,0.5,0,1 @ F,0,0,1,0,0.5,0,1 @ F,0,0,1,0,0.5,0,1" />
    <inkscape:path-effect
       effect="fillet_chamfer"
       id="path-effect851"
       is_visible="true"
       lpeversion="1"
       satellites_param="F,0,0,1,0,0.5,0,1 @ F,0,0,1,0,0.5,0,1 @ F,0,0,1,0,0.5,0,1 @ F,0,0,1,0,0.5,0,1"
       unit="px"
       method="auto"
       mode="F"
       radius="0.5"
       chamfer_steps="1"
       flexible="false"
       use_knot_distance="true"
       apply_no_radius="true"
       apply_with_radius="true"
       only_selected="false"
       hide_knots="false"
       nodesatellites_param="F,0,0,1,0,0.5,0,1 @ F,0,0,1,0,0.5,0,1 @ F,0,0,1,0,0.5,0,1 @ F,0,0,1,0,0.5,0,1" />
  </defs>
  <sodipodi:namedview
     pagecolor="#ffffff"
     bordercolor="#666666"
     borderopacity="1"
     objecttolerance="10"
     gridtolerance="10"
     guidetolerance="10"
     inkscape:pageopacity="0"
     inkscape:pageshadow="2"
     inkscape:window-width="1920"
     inkscape:window-height="1052"
     id="namedview8"
     showgrid="true"
     inkscape:zoom="11.313709"
     inkscape:cx="-4.1542523"
     inkscape:cy="13.832776"
     inkscape:window-x="0"
     inkscape:window-y="0"
     inkscape:window-maximized="1"
     inkscape:current-layer="svg6"
     inkscape:document-rotation="0"
     inkscape:showpageshadow="2"
     inkscape:pagecheckerboard="0"
     inkscape:deskcolor="#d1d1d1">
    <inkscape:grid
       type="xygrid"
       id="grid816"
       originx="0"
       originy="0"
       spacingy="1"
       spacingx="1"
       units="px"
       visible="true" />
  </sodipodi:namedview>
  <title
     id="title2">uniE032</title>
  <g
     id="g1"
     transform="translate(-1.7999308,-1.7999308)">
    <path
       id="rect840"
       style="fill:#000000;fill-opacity:1;stroke:#000000;stroke-width:0.4;stroke-linecap:round;stroke-linejoin:round;stroke-miterlimit:4;stroke-dasharray:none;stroke-opacity:1;paint-order:stroke markers fill"
       d="m 2.1222499,2.0623487 c -0.022614,0.017118 -0.042782,0.037286 -0.0599,0.0599 C 1.9968515,2.2087782 2,2.3981369 2,2.5085938 V 21.491406 c 0,0.110457 -0.00315,0.299815 0.062349,0.386344 0.017118,0.02261 0.037286,0.04278 0.0599,0.0599 C 2.2087782,22.003149 2.3981369,22 2.5085938,22 H 21.491406 c 0.110457,0 0.299815,0.0031 0.386344,-0.06235 0.02261,-0.01712 0.04278,-0.03729 0.0599,-0.0599 C 22.003149,21.791222 22,21.601863 22,21.491406 V 7.3171875 A 0.49086397,0.49086397 67.831814 0 0 21.860226,6.9741377 L 17.139774,2.1430498 A 0.47504266,0.47504266 22.831814 0 0 16.8,2 H 2.5085938 C 2.3981369,2 2.2087791,1.9968515 2.1222499,2.0623487 Z"
       inkscape:path-effect="#path-effect857"
       inkscape:original-d="M 2.3085938,2 C 2.1377702,2 2,2.1377702 2,2.3085938 V 21.691406 C 2,21.86223 2.1377702,22 2.3085938,22 H 21.691406 C 21.86223,22 22,21.86223 22,21.691406 V 7.1171875 L 17,2 Z"
       transform="matrix(1.1764626,0,0,1.1764626,-0.31762038,-0.31762038)" />
    <path
       style="fill:#ffffff;fill-opacity:1;stroke:#000000;stroke-width:0.4;stroke-linecap:round;stroke-linejoin:miter;stroke-miterlimit:4;stroke-dasharray:none;stroke-opacity:1;paint-order:stroke markers fill"
       id="rect842"
       width="14"
       height="8"
       x="5"
       y="12.90425"
       ry="0"
       inkscape:path-effect="#path-effect855"
       d="m 5.5,12.90425 h 13 a 0.5,0.5 45 0 1 0.5,0.5 v 7 a 0.5,0.5 135 0 1 -0.5,0.5 h -13 a 0.5,0.5 45 0 1 -0.5,-0.5 v -7 a 0.5,0.5 135 0 1 0.5,-0.5 z"
       sodipodi:type="rect"
       transform="matrix(1.1764626,0,0,1.1764626,-0.31762038,-0.31762038)" />
    <path
       style="fill:#000000;fill-opacity:1;fill-rule:evenodd;stroke:none;stroke-width:0.653588px;stroke-linecap:butt;stroke-linejoin:miter;stroke-opacity:1"
       d="M 7.9176177,17.852191 H 19.682243 v 0.65359 H 7.9176177 Z"
       id="path822-5"
       inkscape:connector-curvature="0"
       sodipodi:nodetypes="ccccc" />
    <path
       style="fill:#000000;fill-opacity:1;fill-rule:evenodd;stroke:none;stroke-width:0.653588px;stroke-linecap:butt;stroke-linejoin:miter;stroke-opacity:1"
       d="M 7.9176177,19.005779 H 19.682243 v 0.653589 H 7.9176177 Z"
       id="path822-5-3"
       inkscape:connector-curvature="0"
       sodipodi:nodetypes="ccccc" />
    <path
       style="fill:#000000;fill-opacity:1;fill-rule:evenodd;stroke:none;stroke-width:0.653588px;stroke-linecap:butt;stroke-linejoin:miter;stroke-opacity:1"
       d="M 7.9176177,20.159366 H 19.682243 v 0.653591 H 7.9176177 Z"
       id="path822-5-5"
       inkscape:connector-curvature="0"
       sodipodi:nodetypes="ccccc" />
    <path
       style="fill:#000000;fill-opacity:1;fill-rule:evenodd;stroke:none;stroke-width:0.653588px;stroke-linecap:butt;stroke-linejoin:miter;stroke-opacity:1"
       d="M 7.9176177,21.312952 H 19.682243 v 0.653591 H 7.9176177 Z"
       id="path822-5-6"
       inkscape:connector-curvature="0"
       sodipodi:nodetypes="ccccc" />
    <path
       style="fill:#ffffff;fill-opacity:1;stroke:#000000;stroke-width:0.4;stroke-linecap:round;stroke-linejoin:miter;stroke-miterlimit:4;stroke-dasharray:none;stroke-opacity:1;paint-order:stroke markers fill"
       id="rect844"
       width="11"
       height="6"
       x="5"
       y="4"
       inkscape:path-effect="#path-effect853"
       d="m 5.5,4 h 10 A 0.5,0.5 45 0 1 16,4.5 v 5 A 0.5,0.5 135 0 1 15.5,10 l -10,0 A 0.5,0.5 45 0 1 5,9.5 v -5 A 0.5,0.5 135 0 1 5.5,4 Z"
       sodipodi:type="rect"
       transform="matrix(1.1764626,0,0,1.1764626,-0.31762038,-0.31762038)" />
    <path
       style="fill:#000000;fill-opacity:1;stroke:none;stroke-width:0.4;stroke-linecap:round;stroke-linejoin:miter;stroke-miterlimit:4;stroke-dasharray:none;stroke-opacity:1;paint-order:stroke markers fill"
       id="rect849"
       width="3"
       height="4"
       x="12"
       y="5"
       inkscape:path-effect="#path-effect851"
       d="m 12.5,5 h 2 A 0.5,0.5 45 0 1 15,5.5 v 3 A 0.5,0.5 135 0 1 14.5,9 h -2 A 0.5,0.5 45 0 1 12,8.5 v -3 A 0.5,0.5 135 0 1 12.5,5 Z"
       sodipodi:type="rect"
       transform="matrix(1.1764626,0,0,1.1764626,-0.31762038,-0.31762038)" />
  </g>
</svg>
