<?xml version="1.0" encoding="UTF-8" standalone="no"?>
<svg
   width="24"
   height="24"
   viewBox="0 0 24 24"
   version="1.1"
   id="svg11"
   inkscape:version="1.2.2 (b0a8486541, 2022-12-01)"
   sodipodi:docname="scale.svg"
   xmlns:inkscape="http://www.inkscape.org/namespaces/inkscape"
   xmlns:sodipodi="http://sodipodi.sourceforge.net/DTD/sodipodi-0.dtd"
   xmlns="http://www.w3.org/2000/svg"
   xmlns:svg="http://www.w3.org/2000/svg"
   xmlns:rdf="http://www.w3.org/1999/02/22-rdf-syntax-ns#"
   xmlns:cc="http://creativecommons.org/ns#"
   xmlns:dc="http://purl.org/dc/elements/1.1/">
  <metadata
     id="metadata17">
    <rdf:RDF>
      <cc:Work
         rdf:about="">
        <dc:format>image/svg+xml</dc:format>
        <dc:type
           rdf:resource="http://purl.org/dc/dcmitype/StillImage" />
      </cc:Work>
    </rdf:RDF>
  </metadata>
  <defs
     id="defs15" />
  <sodipodi:namedview
     pagecolor="#878787"
     bordercolor="#666666"
     borderopacity="1"
     objecttolerance="10"
     gridtolerance="10"
     guidetolerance="10"
     inkscape:pageopacity="0"
     inkscape:pageshadow="2"
     inkscape:window-width="1920"
     inkscape:window-height="1171"
     id="namedview13"
     showgrid="true"
     units="px"
     inkscape:zoom="9.8333331"
     inkscape:cx="17.084746"
     inkscape:cy="3.5084747"
     inkscape:window-x="1600"
     inkscape:window-y="0"
     inkscape:window-maximized="1"
     inkscape:current-layer="svg11"
     inkscape:showpageshadow="2"
     inkscape:pagecheckerboard="0"
     inkscape:deskcolor="#878787">
    <inkscape:grid
       type="xygrid"
       id="grid4473" />
  </sodipodi:namedview>
  <path
     id="path406"
     style="color:#000000;fill:#000000;-inkscape-stroke:none"
     d="M 13.414062 5.0429688 C 12.500866 5.0429687 11.771703 5.2953548 11.226562 5.7988281 C 10.684895 6.3023014 10.414062 6.9717864 10.414062 7.8085938 C 10.414062 8.5655399 10.656466 9.1772994 11.142578 9.6425781 C 11.632162 10.104384 12.275172 10.333984 13.070312 10.333984 C 13.382814 10.333984 13.672092 10.291883 13.939453 10.205078 C 14.206815 10.118272 14.459201 9.9880647 14.695312 9.8144531 C 14.636285 10.467232 14.438802 10.959634 14.105469 11.292969 C 13.772134 11.62283 13.308161 11.787109 12.710938 11.787109 C 12.426214 11.787109 12.13737 11.750651 11.845703 11.677734 C 11.554035 11.601345 11.249133 11.48915 10.929688 11.339844 L 10.929688 12.777344 C 11.249133 12.88498 11.574869 12.965492 11.908203 13.017578 C 12.241537 13.073131 12.590494 13.099609 12.955078 13.099609 C 14.087025 13.099609 14.977646 12.734594 15.626953 12.001953 C 16.27626 11.265841 16.601562 10.255428 16.601562 8.9707031 C 16.601563 7.7207004 16.323135 6.7523886 15.767578 6.0683594 C 15.212021 5.3843301 14.427953 5.0429688 13.414062 5.0429688 z M 20.236328 5.0429688 C 19.323132 5.0429687 18.593968 5.2953548 18.048828 5.7988281 C 17.50716 6.3023014 17.236328 6.9717864 17.236328 7.8085938 C 17.236328 8.5655399 17.478732 9.1772994 17.964844 9.6425781 C 18.454428 10.104384 19.097437 10.333984 19.892578 10.333984 C 20.205078 10.333984 20.494357 10.291883 20.761719 10.205078 C 21.02908 10.118272 21.281466 9.9880647 21.517578 9.8144531 C 21.45855 10.467232 21.261069 10.959634 20.927734 11.292969 C 20.594401 11.62283 20.130427 11.787109 19.533203 11.787109 C 19.248481 11.787109 18.959636 11.750651 18.667969 11.677734 C 18.376302 11.601345 18.071398 11.48915 17.751953 11.339844 L 17.751953 12.777344 C 18.071398 12.88498 18.397134 12.965492 18.730469 13.017578 C 19.063802 13.073131 19.412759 13.099609 19.777344 13.099609 C 20.909291 13.099609 21.799912 12.734594 22.449219 12.001953 C 23.098526 11.265841 23.423828 10.255428 23.423828 8.9707031 C 23.423828 7.7207004 23.145401 6.7523886 22.589844 6.0683594 C 22.034287 5.3843301 21.250219 5.0429688 20.236328 5.0429688 z M 2.3847656 5.1738281 L 0.57617188 5.5488281 L 0.57617188 6.9121094 L 2.3945312 6.5371094 L 2.3945312 11.564453 L 0.62304688 11.564453 L 0.62304688 12.949219 L 6.0605469 12.949219 L 6.0605469 11.564453 L 4.2910156 11.564453 L 4.2910156 5.1738281 L 2.3847656 5.1738281 z M 13.402344 6.3027344 C 13.753039 6.3027344 14.018229 6.4173172 14.195312 6.6464844 C 14.372396 6.8756515 14.460938 7.2165789 14.460938 7.6679688 C 14.460937 8.1228308 14.372396 8.4641922 14.195312 8.6933594 C 14.018229 8.9190543 13.753039 9.0332031 13.402344 9.0332031 C 13.051649 9.0332031 12.788412 8.9190543 12.611328 8.6933594 C 12.434244 8.4641922 12.345703 8.1228308 12.345703 7.6679688 C 12.345703 7.2165789 12.434244 6.8756515 12.611328 6.6464844 C 12.788412 6.4173172 13.051649 6.3027344 13.402344 6.3027344 z M 20.224609 6.3027344 C 20.575304 6.3027344 20.840494 6.4173172 21.017578 6.6464844 C 21.194662 6.8756515 21.283203 7.2165789 21.283203 7.6679688 C 21.283203 8.1228308 21.194662 8.4641922 21.017578 8.6933594 C 20.840494 8.9190543 20.575304 9.0332031 20.224609 9.0332031 C 19.873914 9.0332031 19.610678 8.9190543 19.433594 8.6933594 C 19.25651 8.4641922 19.167969 8.1228308 19.167969 7.6679688 C 19.167969 7.2165789 19.25651 6.8756515 19.433594 6.6464844 C 19.610678 6.4173172 19.873914 6.3027344 20.224609 6.3027344 z M 7.3886719 7.1152344 L 7.3886719 9.1308594 L 9.2695312 9.1308594 L 9.2695312 7.1152344 L 7.3886719 7.1152344 z M 7.3886719 10.933594 L 7.3886719 12.949219 L 9.2695312 12.949219 L 9.2695312 10.933594 L 7.3886719 10.933594 z M 1 15 L 1 23 L 23 23 L 23 15 L 21 15 L 21 21 L 3 21 L 3 15 L 1 15 z " />
</svg>
