<?xml version="1.0" encoding="UTF-8" standalone="no"?>
<svg
   height="24"
   version="1.1"
   viewBox="0 0 24 24"
   width="24"
   id="svg1"
   sodipodi:docname="sphere.svg"
   inkscape:version="1.4 (e7c3feb100, 2024-10-09)"
   xmlns:inkscape="http://www.inkscape.org/namespaces/inkscape"
   xmlns:sodipodi="http://sodipodi.sourceforge.net/DTD/sodipodi-0.dtd"
   xmlns="http://www.w3.org/2000/svg"
   xmlns:svg="http://www.w3.org/2000/svg">
  <defs
     id="defs1" />
  <sodipodi:namedview
     id="namedview1"
     pagecolor="#ffffff"
     bordercolor="#666666"
     borderopacity="1.0"
     inkscape:showpageshadow="2"
     inkscape:pageopacity="0.0"
     inkscape:pagecheckerboard="0"
     inkscape:deskcolor="#d1d1d1"
     inkscape:zoom="21.993724"
     inkscape:cx="11.503282"
     inkscape:cy="10.298392"
     inkscape:window-width="1600"
     inkscape:window-height="842"
     inkscape:window-x="0"
     inkscape:window-y="0"
     inkscape:window-maximized="1"
     inkscape:current-layer="layer1"
     showgrid="true">
    <inkscape:grid
       id="grid1"
       units="px"
       originx="0"
       originy="0"
       spacingx="1"
       spacingy="1"
       empcolor="#0099e5"
       empopacity="0.30196078"
       color="#0099e5"
       opacity="0.14901961"
       empspacing="5"
       enabled="true"
       visible="true" />
  </sodipodi:namedview>
  <g
     id="layer1"
     transform="matrix(1.1764703,0,0,1.1764703,0.23529702,0.23545728)">
    <path
       id="path6"
       style="stroke-linecap:round;stroke-linejoin:round"
       d="M 10 1.0748616 C 5.0758915 1.0748616 1.0749979 5.0757553 1.0749978 9.9998638 C 1.0749979 14.923972 5.0758915 18.926526 10 18.926526 C 14.924108 18.926526 18.925002 14.923972 18.925002 9.9998638 C 18.925002 5.0757553 14.924108 1.0748617 10 1.0748616 z M 10 1.9265219 C 14.464734 1.926522 18.075002 5.5351294 18.075002 9.9998638 C 18.075002 10.239947 18.060584 10.477362 18.040139 10.712071 C 17.880373 11.114774 17.584962 11.509146 17.151955 11.884142 C 16.465679 12.478473 15.443454 13.005042 14.162013 13.374962 C 11.803509 14.055803 8.9082158 14.108251 6.4638663 13.535997 C 5.8916126 11.091648 5.9440599 8.1963553 6.6249015 5.837851 C 6.9948217 4.55641 7.5213903 3.5341842 8.1157222 2.8479089 C 8.4907175 2.4149014 8.8850898 2.1194911 9.2877928 1.9597251 C 9.5225017 1.9392792 9.7599168 1.9265219 10 1.9265219 z M 7.8301752 2.2220298 C 7.7643661 2.2896149 7.6977021 2.3563121 7.6342767 2.4295494 C 6.9576964 3.2107971 6.4032333 4.3134057 6.0139639 5.6618744 C 5.3279533 8.0382844 5.2469732 10.869011 5.7699208 13.35338 C 4.5210799 12.984644 3.5218304 12.467656 2.8480451 11.884142 C 2.4150377 11.509146 2.1196273 11.114774 1.9598613 10.712071 C 1.9394155 10.477362 1.924998 10.239947 1.924998 9.9998638 C 1.9249981 6.287368 4.4223279 3.1683776 7.8301752 2.2220298 z M 2.222166 12.169689 C 2.2897511 12.235498 2.3564483 12.302162 2.4296856 12.365587 C 3.2109333 13.042168 4.3135419 13.596631 5.6620106 13.9859 C 5.7531281 14.012203 5.846849 14.036081 5.9392568 14.060607 C 5.9637828 14.153015 5.9876605 14.246736 6.0139639 14.337853 C 6.4032333 15.686321 6.9576964 16.788931 7.6342767 17.570178 C 7.6977021 17.643415 7.7643661 17.710113 7.8301752 17.777698 C 5.1126369 17.023046 2.976613 14.887313 2.222166 12.169689 z M 17.777834 12.169689 C 16.831687 15.577844 13.712714 18.074866 10 18.074866 C 9.7616146 18.074866 9.5258631 18.061823 9.2927732 18.041663 C 8.8883682 17.882363 8.4922442 17.586589 8.1157222 17.151819 C 7.5322069 16.478033 7.01522 15.478784 6.6464835 14.229943 C 9.1308523 14.752891 11.961579 14.671911 14.337989 13.9859 C 15.686457 13.596631 16.789067 13.042168 17.570314 12.365587 C 17.643552 12.302162 17.710249 12.235498 17.777834 12.169689 z " />
  </g>
</svg>
