<?xml version="1.0" encoding="UTF-8" standalone="no"?>
<!-- Generated by IcoMoon.io -->

<svg
   version="1.1"
   width="24"
   height="24"
   viewBox="0 0 24 24"
   id="svg6"
   sodipodi:docname="sync.svg"
   inkscape:version="1.3.2 (091e20ef0f, 2023-11-25)"
   xmlns:inkscape="http://www.inkscape.org/namespaces/inkscape"
   xmlns:sodipodi="http://sodipodi.sourceforge.net/DTD/sodipodi-0.dtd"
   xmlns="http://www.w3.org/2000/svg"
   xmlns:svg="http://www.w3.org/2000/svg"
   xmlns:rdf="http://www.w3.org/1999/02/22-rdf-syntax-ns#"
   xmlns:cc="http://creativecommons.org/ns#"
   xmlns:dc="http://purl.org/dc/elements/1.1/">
  <metadata
     id="metadata12">
    <rdf:RDF>
      <cc:Work
         rdf:about="">
        <dc:format>image/svg+xml</dc:format>
        <dc:type
           rdf:resource="http://purl.org/dc/dcmitype/StillImage" />
        <dc:title>uniE094</dc:title>
      </cc:Work>
    </rdf:RDF>
  </metadata>
  <defs
     id="defs10" />
  <sodipodi:namedview
     pagecolor="#ffffff"
     bordercolor="#666666"
     borderopacity="1"
     objecttolerance="10"
     gridtolerance="10"
     guidetolerance="10"
     inkscape:pageopacity="0"
     inkscape:pageshadow="2"
     inkscape:window-width="1600"
     inkscape:window-height="842"
     id="namedview8"
     showgrid="true"
     inkscape:zoom="20.85965"
     inkscape:cx="11.19386"
     inkscape:cy="15.029015"
     inkscape:window-x="0"
     inkscape:window-y="0"
     inkscape:window-maximized="1"
     inkscape:current-layer="svg6"
     inkscape:showpageshadow="2"
     inkscape:pagecheckerboard="0"
     inkscape:deskcolor="#d1d1d1">
    <inkscape:grid
       type="xygrid"
       id="grid235"
       originx="0"
       originy="0"
       spacingy="1"
       spacingx="1"
       units="px"
       visible="true" />
  </sodipodi:namedview>
  <title
     id="title2">uniE094</title>
  <path
     id="path4"
     style="stroke-width:0.54207"
     d="m 22.986328,5.4238278 c 0,-0.1567146 -0.09088,-0.2881834 -0.271484,-0.3964843 -0.1806,-0.1083009 -0.400776,-0.1640626 -0.662109,-0.1640626 H 11.785156 V 1.6074216 c -4.66e-4,-0.1564347 -0.07204,-0.2535162 -0.214844,-0.2910157 -0.142799,-0.037499 -0.314405,-0.00922 -0.513671,0.087891 l -9.7441408,4.78125 c -0.199266,0.097107 -0.298828,0.2158187 -0.298828,0.3574219 0,0.1416025 0.099562,0.2603145 0.298828,0.3574218 l 9.7441408,4.7812507 c 0.198799,0.09683 0.370405,0.12511 0.513671,0.08789 0.143267,-0.03722 0.214844,-0.132347 0.214844,-0.289062 V 8.2226559 h 10.267579 c 0.261333,0 0.481509,-0.053809 0.662109,-0.1621093 0.1806,-0.1083015 0.271484,-0.2417233 0.271484,-0.3984375 z m 0,12.0332032 c 0,-0.141602 -0.09956,-0.260314 -0.298828,-0.357422 l -9.744141,-4.78125 c -0.198799,-0.09683 -0.370405,-0.12511 -0.513671,-0.08789 -0.143267,0.03722 -0.214844,0.132348 -0.214844,0.289062 v 3.257813 H 1.9472662 c -0.261333,0 -0.48151,0.05381 -0.66211,0.162109 -0.1806,0.108301 -0.271484,0.241722 -0.271484,0.398438 v 2.238281 c 0,0.156714 0.090884,0.288183 0.271484,0.396484 0.1806,0.108301 0.400777,0.164063 0.66211,0.164063 H 12.214844 v 3.255859 c 4.66e-4,0.156434 0.07204,0.253516 0.214844,0.291016 0.142799,0.0375 0.314405,0.0092 0.513671,-0.08789 l 9.744141,-4.78125 c 0.199267,-0.09711 0.298828,-0.215819 0.298828,-0.357422 z" />
</svg>
