<?xml version="1.0" encoding="UTF-8" standalone="no"?>
<svg
   height="24"
   id="Layer_1"
   version="1.1"
   viewBox="0 0 24 24"
   width="24"
   xml:space="preserve"
   sodipodi:docname="tilt-left.svg"
   inkscape:version="1.3.2 (091e20ef0f, 2023-11-25)"
   xmlns:inkscape="http://www.inkscape.org/namespaces/inkscape"
   xmlns:sodipodi="http://sodipodi.sourceforge.net/DTD/sodipodi-0.dtd"
   xmlns="http://www.w3.org/2000/svg"
   xmlns:svg="http://www.w3.org/2000/svg"
   xmlns:rdf="http://www.w3.org/1999/02/22-rdf-syntax-ns#"
   xmlns:cc="http://creativecommons.org/ns#"
   xmlns:dc="http://purl.org/dc/elements/1.1/"><metadata
     id="metadata9"><rdf:RDF><cc:Work
         rdf:about=""><dc:format>image/svg+xml</dc:format><dc:type
           rdf:resource="http://purl.org/dc/dcmitype/StillImage" /></cc:Work></rdf:RDF></metadata><defs
     id="defs7" /><sodipodi:namedview
     pagecolor="#ffffff"
     bordercolor="#666666"
     borderopacity="1"
     objecttolerance="10"
     gridtolerance="10"
     guidetolerance="10"
     inkscape:pageopacity="0"
     inkscape:pageshadow="2"
     inkscape:window-width="1600"
     inkscape:window-height="842"
     id="namedview5"
     showgrid="false"
     inkscape:zoom="7.375"
     inkscape:cx="-3.2542373"
     inkscape:cy="15.932203"
     inkscape:window-x="0"
     inkscape:window-y="0"
     inkscape:window-maximized="1"
     inkscape:current-layer="path1"
     inkscape:showpageshadow="2"
     inkscape:pagecheckerboard="0"
     inkscape:deskcolor="#d1d1d1" /><g
     id="path1"><path
       id="path5"
       style="color:#000000;fill:#000000;stroke-linecap:round;-inkscape-stroke:none"
       d="M 10.576172 7.3164062 C 7.3793588 7.3164062 4.3458876 8.7327396 2.2910156 11.181641 A 1.24081 1.24081 0 0 0 2.4433594 12.929688 A 1.24081 1.24081 0 0 0 4.1914062 12.777344 C 5.7757976 10.88914 8.1112967 9.7988281 10.576172 9.7988281 C 12.452142 9.7988281 14.252541 10.432206 15.705078 11.566406 L 14.800781 12.324219 A 1.0736079 1.0736079 0 0 0 15.064453 14.130859 L 20.785156 16.611328 A 0.86856703 0.86856703 0 0 0 21.976562 15.613281 L 20.527344 9.546875 A 1.0736079 1.0736079 0 0 0 18.792969 8.9726562 L 17.638672 9.9414062 C 15.689469 8.2614862 13.186667 7.3164063 10.576172 7.3164062 z " /><g
       id="g4" /></g></svg>
