<?xml version="1.0" encoding="UTF-8" standalone="no"?>
<svg
   height="24"
   id="Layer_1"
   version="1.1"
   viewBox="0 0 24 24"
   width="24"
   xml:space="preserve"
   sodipodi:docname="tilt-left.svg"
   inkscape:version="1.3.2 (091e20ef0f, 2023-11-25)"
   xmlns:inkscape="http://www.inkscape.org/namespaces/inkscape"
   xmlns:sodipodi="http://sodipodi.sourceforge.net/DTD/sodipodi-0.dtd"
   xmlns="http://www.w3.org/2000/svg"
   xmlns:svg="http://www.w3.org/2000/svg"
   xmlns:rdf="http://www.w3.org/1999/02/22-rdf-syntax-ns#"
   xmlns:cc="http://creativecommons.org/ns#"
   xmlns:dc="http://purl.org/dc/elements/1.1/"><metadata
     id="metadata9"><rdf:RDF><cc:Work
         rdf:about=""><dc:format>image/svg+xml</dc:format><dc:type
           rdf:resource="http://purl.org/dc/dcmitype/StillImage" /></cc:Work></rdf:RDF></metadata><defs
     id="defs7" /><sodipodi:namedview
     pagecolor="#ffffff"
     bordercolor="#666666"
     borderopacity="1"
     objecttolerance="10"
     gridtolerance="10"
     guidetolerance="10"
     inkscape:pageopacity="0"
     inkscape:pageshadow="2"
     inkscape:window-width="1600"
     inkscape:window-height="842"
     id="namedview5"
     showgrid="false"
     inkscape:zoom="7.375"
     inkscape:cx="-3.2542373"
     inkscape:cy="15.932203"
     inkscape:window-x="0"
     inkscape:window-y="0"
     inkscape:window-maximized="1"
     inkscape:current-layer="path1"
     inkscape:showpageshadow="2"
     inkscape:pagecheckerboard="0"
     inkscape:deskcolor="#d1d1d1" /><g
     id="path1"><path
       id="path5"
       style="color:#000000;fill:#000000;stroke-linecap:round;-inkscape-stroke:none"
       d="m 13.424612,7.3164062 c 3.196813,0 6.230284,1.4163334 8.285156,3.8652348 a 1.24081,1.24081 0 0 1 -0.152343,1.748047 1.24081,1.24081 0 0 1 -1.748047,-0.152344 C 18.224986,10.88914 15.889487,9.7988281 13.424612,9.7988281 c -1.87597,0 -3.676369,0.6333779 -5.128906,1.7675779 l 0.904297,0.757813 a 1.0736079,1.0736079 0 0 1 -0.263672,1.80664 L 3.215628,16.611328 A 0.86856703,0.86856703 0 0 1 2.024222,15.613281 L 3.47344,9.546875 A 1.0736079,1.0736079 0 0 1 5.207815,8.9726562 l 1.154297,0.96875 c 1.949203,-1.67992 4.452005,-2.6249999 7.0625,-2.625 z" /><g
       id="g4" /></g></svg>
