<?xml version="1.0" encoding="UTF-8" standalone="no"?>
<!-- Uploaded to: SVG Repo, www.svgrepo.com, Generator: SVG Repo Mixer Tools -->

<svg
   fill="#000000"
   width="24"
   height="24"
   viewBox="0 0 1.68 1.68"
   version="1.1"
   id="svg1"
   sodipodi:docname="unpin.svg"
   inkscape:version="1.4.2 (ebf0e940d0, 2025-05-08)"
   xmlns:inkscape="http://www.inkscape.org/namespaces/inkscape"
   xmlns:sodipodi="http://sodipodi.sourceforge.net/DTD/sodipodi-0.dtd"
   xmlns="http://www.w3.org/2000/svg"
   xmlns:svg="http://www.w3.org/2000/svg">
  <defs
     id="defs1" />
  <sodipodi:namedview
     id="namedview1"
     pagecolor="#ffffff"
     bordercolor="#666666"
     borderopacity="1.0"
     inkscape:showpageshadow="2"
     inkscape:pageopacity="0.0"
     inkscape:pagecheckerboard="0"
     inkscape:deskcolor="#d1d1d1"
     inkscape:zoom="6.2020459"
     inkscape:cx="11.286598"
     inkscape:cy="9.4323713"
     inkscape:window-width="1920"
     inkscape:window-height="1052"
     inkscape:window-x="0"
     inkscape:window-y="0"
     inkscape:window-maximized="1"
     inkscape:current-layer="svg1" />
  <path
     d="m 1.309234,0.2833384 c 0.020817,-0.020817 0.020817,-0.053729 0,-0.073201 -0.020145,-0.020133 -0.052379,-0.020808 -0.073196,0 L 0.05010853,1.3967415 c -0.0201447,0.020148 -0.0201447,0.053723 0,0.073868 0.0194756,0.019476 0.053723,0.019476 0.0731986,0 z M 0.72835739,0.6090335 0.44698636,0.5700852 c -0.0147747,-0.00134 -0.0235045,-0.00403 -0.0322344,-0.01746 L 0.29656305,0.3894434 c -0.0268615,-0.036935 -0.0597679,-0.052379 -0.0899864,-0.052379 -0.0449932,0 -0.0846135,0.035591 -0.0846135,0.08797 V 1.2154277 Z M 1.1118045,1.2664657 V 0.90786711 h 0.3451678 c 0.1020703,0 0.1880277,-0.04298 0.1880277,-0.059096 0,-0.016788 -0.085957,-0.059768 -0.1880277,-0.059768 H 1.1118045 V 0.6003034 l -0.50499589,0.504993 0.0852854,-0.011415 c 0.0275335,-0.00403 0.0382792,0.00537 0.053051,0.018801 l 0.22295,0.2054903 c 0.020817,0.019476 0.040964,0.028202 0.06917,0.028202 0.04499,0 0.07454,-0.032903 0.07454,-0.07991 z"
     id="path1"
     style="stroke-width:0.0288399" />
</svg>
