<?xml version="1.0" encoding="UTF-8" standalone="no"?>
<!-- Generated by IcoMoon.io -->

<svg
   version="1.1"
   width="24"
   height="24"
   viewBox="0 0 24 24"
   id="svg6"
   sodipodi:docname="up-down-arrow.svg"
   inkscape:version="1.2.2 (b0a8486541, 2022-12-01)"
   xmlns:inkscape="http://www.inkscape.org/namespaces/inkscape"
   xmlns:sodipodi="http://sodipodi.sourceforge.net/DTD/sodipodi-0.dtd"
   xmlns="http://www.w3.org/2000/svg"
   xmlns:svg="http://www.w3.org/2000/svg"
   xmlns:rdf="http://www.w3.org/1999/02/22-rdf-syntax-ns#"
   xmlns:cc="http://creativecommons.org/ns#"
   xmlns:dc="http://purl.org/dc/elements/1.1/">
  <metadata
     id="metadata12">
    <rdf:RDF>
      <cc:Work
         rdf:about="">
        <dc:format>image/svg+xml</dc:format>
        <dc:type
           rdf:resource="http://purl.org/dc/dcmitype/StillImage" />
        <dc:title>uniE094</dc:title>
      </cc:Work>
    </rdf:RDF>
  </metadata>
  <defs
     id="defs10" />
  <sodipodi:namedview
     pagecolor="#ffffff"
     bordercolor="#666666"
     borderopacity="1"
     objecttolerance="10"
     gridtolerance="10"
     guidetolerance="10"
     inkscape:pageopacity="0"
     inkscape:pageshadow="2"
     inkscape:window-width="1600"
     inkscape:window-height="837"
     id="namedview8"
     showgrid="true"
     inkscape:zoom="20.85965"
     inkscape:cx="1.9175777"
     inkscape:cy="14.309924"
     inkscape:window-x="0"
     inkscape:window-y="0"
     inkscape:window-maximized="1"
     inkscape:current-layer="svg6"
     inkscape:showpageshadow="2"
     inkscape:pagecheckerboard="0"
     inkscape:deskcolor="#d1d1d1">
    <inkscape:grid
       type="xygrid"
       id="grid235" />
  </sodipodi:namedview>
  <title
     id="title2">uniE094</title>
  <path
     id="path4"
     style="stroke-width:0.54207"
     d="M 5.4238281 1.0136719 C 5.2671135 1.0136719 5.1356447 1.1045564 5.0273438 1.2851562 C 4.9190429 1.4657561 4.8632812 1.6859326 4.8632812 1.9472656 L 4.8632812 12.214844 L 1.6074219 12.214844 C 1.4509872 12.21531 1.3539057 12.286888 1.3164062 12.429688 C 1.2789068 12.572487 1.3071899 12.744093 1.4042969 12.943359 L 6.1855469 22.6875 C 6.2826536 22.886766 6.4013656 22.986328 6.5429688 22.986328 C 6.6845713 22.986328 6.8032833 22.886766 6.9003906 22.6875 L 11.681641 12.943359 C 11.778467 12.74456 11.806751 12.572954 11.769531 12.429688 C 11.732312 12.286421 11.637184 12.214844 11.480469 12.214844 L 8.2226562 12.214844 L 8.2226562 1.9472656 C 8.2226562 1.6859326 8.1688472 1.4657561 8.0605469 1.2851562 C 7.9522454 1.1045564 7.8188236 1.0136719 7.6621094 1.0136719 L 5.4238281 1.0136719 z M 17.457031 1.0136719 C 17.315429 1.0136719 17.196717 1.1132335 17.099609 1.3125 L 12.318359 11.056641 C 12.221533 11.25544 12.193249 11.427046 12.230469 11.570312 C 12.267688 11.713579 12.362817 11.785156 12.519531 11.785156 L 15.777344 11.785156 L 15.777344 22.052734 C 15.777344 22.314067 15.831153 22.534244 15.939453 22.714844 C 16.047754 22.895444 16.181175 22.986328 16.337891 22.986328 L 18.576172 22.986328 C 18.732886 22.986328 18.864355 22.895444 18.972656 22.714844 C 19.080957 22.534244 19.136719 22.314067 19.136719 22.052734 L 19.136719 11.785156 L 22.392578 11.785156 C 22.549012 11.78469 22.646094 11.713112 22.683594 11.570312 C 22.721094 11.427513 22.69281 11.255907 22.595703 11.056641 L 17.814453 1.3125 C 17.717347 1.1132335 17.598634 1.0136719 17.457031 1.0136719 z " />
</svg>
