<?xml version="1.0" encoding="UTF-8" standalone="no"?>
<!-- Generated by IcoMoon.io -->

<svg
   version="1.1"
   width="24"
   height="24"
   viewBox="0 0 24 24"
   id="svg6"
   sodipodi:docname="zoomout.svg"
   inkscape:version="1.2.1 (9c6d41e410, 2022-07-14)"
   xmlns:inkscape="http://www.inkscape.org/namespaces/inkscape"
   xmlns:sodipodi="http://sodipodi.sourceforge.net/DTD/sodipodi-0.dtd"
   xmlns="http://www.w3.org/2000/svg"
   xmlns:svg="http://www.w3.org/2000/svg"
   xmlns:rdf="http://www.w3.org/1999/02/22-rdf-syntax-ns#"
   xmlns:cc="http://creativecommons.org/ns#"
   xmlns:dc="http://purl.org/dc/elements/1.1/">
  <metadata
     id="metadata12">
    <rdf:RDF>
      <cc:Work
         rdf:about="">
        <dc:format>image/svg+xml</dc:format>
        <dc:type
           rdf:resource="http://purl.org/dc/dcmitype/StillImage" />
        <dc:title>uniE003</dc:title>
      </cc:Work>
    </rdf:RDF>
  </metadata>
  <defs
     id="defs10" />
  <sodipodi:namedview
     pagecolor="#ffffff"
     bordercolor="#666666"
     borderopacity="1"
     objecttolerance="10"
     gridtolerance="10"
     guidetolerance="10"
     inkscape:pageopacity="0"
     inkscape:pageshadow="2"
     inkscape:window-width="1600"
     inkscape:window-height="837"
     id="namedview8"
     showgrid="true"
     inkscape:zoom="28.36463"
     inkscape:cx="9.6775456"
     inkscape:cy="13.449849"
     inkscape:window-x="0"
     inkscape:window-y="0"
     inkscape:window-maximized="1"
     inkscape:current-layer="svg6"
     inkscape:showpageshadow="2"
     inkscape:pagecheckerboard="0"
     inkscape:deskcolor="#d1d1d1">
    <inkscape:grid
       type="xygrid"
       id="grid358" />
  </sodipodi:namedview>
  <title
     id="title2">uniE003</title>
  <path
     d="m 14.113475,0.80944999 q -1.92565,0 -3.67729,0.74564201 Q 8.6845448,2.300734 7.4231615,3.5532691 6.1617783,4.8058043 5.4108692,6.5451576 4.6599601,8.2845109 4.6599601,10.196653 l 0.019496,0.038 -0.019496,0.09536 q 0,2.695782 1.5018182,5.009423 l -5.2946327,5.238852 q -0.44260314,0.496856 -0.43321704,0.851036 0.009432,0.35418 0.43321704,0.81232 l 1.1357508,1.109142 q 0.5003646,0.382141 0.8953148,0.382141 0.3949492,0 0.7602952,-0.382141 l 5.2946327,-5.238852 q 2.2909949,1.471926 5.0253159,1.471926 l 0.09603,-0.01936 0.03827,0.01936 q 1.925649,0 3.67729,-0.745642 1.75164,-0.745642 3.013023,-1.998177 1.261383,-1.252535 2.012292,-2.991889 0.750909,-1.739353 0.750909,-3.651494 0,-1.9121421 -0.75091,-3.6514954 Q 22.06445,4.8058043 20.803067,3.5532691 19.541684,2.300734 17.790044,1.555092 16.038403,0.80944999 14.112754,0.80944999 Z m 0,3.23135431 q 1.6946,0 3.119161,0.822357 1.424562,0.8223571 2.252728,2.236926 0.828167,1.4145689 0.828167,3.0972827 0,1.682713 -0.828167,3.097282 -0.828166,1.414568 -2.252728,2.236926 -1.424561,0.822357 -3.119161,0.822357 -1.694601,0 -3.119163,-0.822357 Q 9.569751,14.70922 8.7415848,13.294652 7.9134186,11.880083 7.9134186,10.19737 q 0,-1.6827138 0.8281662,-3.0972827 0.8281662,-1.4145689 2.2527272,-2.236926 1.424562,-0.822357 3.119163,-0.822357 z"
     id="path4"
     inkscape:connector-curvature="0"
     style="stroke-width:0.69999999" />
  <text
     xml:space="preserve"
     style="font-style:normal;font-weight:normal;font-size:40px;line-height:1.25;font-family:sans-serif;fill:#000000;fill-opacity:1;stroke:none"
     x="14"
     y="10"
     id="text414"><tspan
       sodipodi:role="line"
       id="tspan412"></tspan></text>
  <path
     style="fill:#000000;fill-opacity:1;stroke:none;stroke-width:1px;stroke-linecap:butt;stroke-linejoin:miter;stroke-opacity:1"
     d="m 10,9 h 8 v 2 h -8 z"
     id="path632"
     sodipodi:nodetypes="ccccc" />
</svg>
